SplineFontDB: 3.2
FontName: Consolas-Italic
FullName: Consolas Italic
FamilyName: Consolas
Weight: Book
Copyright: (c) 2018 Microsoft Corporation. All rights reserved.
Version: 7.00
ItalicAngle: -11
UnderlinePosition: -338
UnderlineWidth: 144
Ascent: 1621
Descent: 427
InvalidEm: 0
sfntRevision: 0x00070000
LayerCount: 2
Layer: 0 1 "Back" 1
Layer: 1 1 "Fore" 0
XUID: [1021 691 -1985989191 8915489]
StyleMap: 0x0001
FSType: 8
OS2Version: 3
OS2_WeightWidthSlopeOnly: 0
OS2_UseTypoMetrics: 0
CreationTime: 1069378219
ModificationTime: 1656195478
PfmFamily: 17
TTFWeight: 400
TTFWidth: 5
LineGap: 350
VLineGap: 0
Panose: 2 11 6 9 2 2 4 10 2 4
OS2TypoAscent: 1771
OS2TypoAOffset: 0
OS2TypoDescent: -427
OS2TypoDOffset: 0
OS2TypoLinegap: 350
OS2WinAscent: 1884
OS2WinAOffset: 0
OS2WinDescent: 514
OS2WinDOffset: 0
HheadAscent: 1771
HheadAOffset: 0
HheadDescent: -427
HheadDOffset: 0
OS2SubXSize: 1434
OS2SubYSize: 1331
OS2SubXOff: 0
OS2SubYOff: 287
OS2SupXSize: 1434
OS2SupYSize: 1331
OS2SupXOff: 0
OS2SupYOff: 977
OS2StrikeYSize: 102
OS2StrikeYPos: 512
OS2CapHeight: 1307
OS2XHeight: 1004
OS2FamilyClass: 2057
OS2Vendor: 'MS  '
OS2CodePages: 6000019f.dfd70000
OS2UnicodeRanges: e00006ff.0000fcff.00000001.00000000
Lookup: 1 0 0 "'salt' Stylistic Alternatives in Latin lookup 0" { "'salt' Stylistic Alternatives in Latin lookup 0 subtable"  } ['locl' ('latn' <'ROM ' > ) 'salt' ('latn' <'ROM ' > ) ]
Lookup: 1 0 0 "'locl' Localized Forms in Latin lookup 1" { "'locl' Localized Forms in Latin lookup 1 subtable"  } ['locl' ('latn' <'IPPH' > ) ]
Lookup: 1 0 0 "'locl' Localized Forms in Greek lookup 2" { "'locl' Localized Forms in Greek lookup 2 subtable"  } ['locl' ('grek' <'dflt' > ) ]
Lookup: 1 0 0 "'locl' Localized Forms in Cyrillic lookup 3" { "'locl' Localized Forms in Cyrillic lookup 3 subtable"  } ['locl' ('cyrl' <'SRB ' 'dflt' > ) ]

StartChar: .notdef
Encoding: 65536 -1 0
Width: 1126
GlyphClass: 2
Flags: W
LayerCount: 2
Fore
SplineSet
1196 1307 m 1,0,-1
 936 0 l 1,1,-1
 -14 0 l 1,2,-1
 246 1307 l 1,3,-1
 1196 1307 l 1,0,-1
860 92 m 1,4,-1
 1083 1214 l 1,5,-1
 319 1214 l 1,6,-1
 96 92 l 1,7,-1
 860 92 l 1,4,-1
508 444 m 1,8,-1
 408 444 l 1,9,-1
 451 696 l 1,10,-1
 545 696 l 2,11,12
 602 696 602 696 639.5 712 c 128,-1,13
 677 728 677 728 698.5 753 c 128,-1,14
 720 778 720 778 728.5 807 c 128,-1,15
 737 836 737 836 737 862 c 0,16,17
 737 900 737 900 720 929.5 c 128,-1,18
 703 959 703 959 671.5 979.5 c 128,-1,19
 640 1000 640 1000 595.5 1011 c 128,-1,20
 551 1022 551 1022 496 1022 c 2,21,-1
 451 1022 l 1,22,-1
 469 1122 l 1,23,-1
 508 1122 l 2,24,25
 600 1122 600 1122 667.5 1102 c 128,-1,26
 735 1082 735 1082 778.5 1047.5 c 128,-1,27
 822 1013 822 1013 843 967.5 c 128,-1,28
 864 922 864 922 864 872 c 0,29,30
 864 828 864 828 847 780 c 128,-1,31
 830 732 830 732 792 692.5 c 128,-1,32
 754 653 754 653 693 627.5 c 128,-1,33
 632 602 632 602 543 602 c 1,34,-1
 508 444 l 1,8,-1
424 354 m 0,35,36
 461 354 461 354 484.5 328.5 c 128,-1,37
 508 303 508 303 508 268 c 0,38,39
 508 250 508 250 500.5 234 c 128,-1,40
 493 218 493 218 480.5 206 c 128,-1,41
 468 194 468 194 452 187 c 128,-1,42
 436 180 436 180 418 180 c 0,43,44
 381 180 381 180 357.5 205 c 128,-1,45
 334 230 334 230 334 264 c 0,46,47
 334 283 334 283 341 299.5 c 128,-1,48
 348 316 348 316 360.5 328 c 128,-1,49
 373 340 373 340 389.5 347 c 128,-1,50
 406 354 406 354 424 354 c 0,35,36
EndSplineSet
EndChar

StartChar: A
Encoding: 65 65 4
Width: 1126
GlyphClass: 2
Flags: W
AnchorPoint: "Anchor-11" 0 1700 basechar 0
AnchorPoint: "Anchor-10" 1126 1700 basechar 0
AnchorPoint: "Anchor-9" 1045 0 basechar 0
AnchorPoint: "Anchor-8" 563 -50 basechar 0
AnchorPoint: "Anchor-7" 600 1300 basechar 0
AnchorPoint: "Anchor-6" 1126 -350 basechar 0
AnchorPoint: "Anchor-5" 1126 1700 basechar 0
AnchorPoint: "Anchor-4" 640 1300 basechar 0
AnchorPoint: "Anchor-2" 563 -180 basechar 0
AnchorPoint: "Anchor-1" 916 1390 basechar 0
AnchorPoint: "Anchor-0" 563 1430 basechar 0
LayerCount: 2
Fore
SplineSet
1014 0 m 1,0,-1
 825 0 l 1,1,-1
 793 285 l 1,2,-1
 248 285 l 1,3,-1
 98 0 l 1,4,-1
 -92 0 l 1,5,-1
 604 1307 l 1,6,-1
 848 1307 l 1,7,-1
 1014 0 l 1,0,-1
772 444 m 1,8,-1
 692 1143 l 1,9,-1
 330 444 l 1,10,-1
 772 444 l 1,8,-1
EndSplineSet
Substitution2: "'sups' Superscript lookup 15 subtable" A.superior
EndChar

StartChar: B
Encoding: 66 66 5
Width: 1126
GlyphClass: 2
Flags: W
AnchorPoint: "Anchor-11" 0 1700 basechar 0
AnchorPoint: "Anchor-10" 1126 1700 basechar 0
AnchorPoint: "Anchor-9" 660 25 basechar 0
AnchorPoint: "Anchor-7" 770 1250 basechar 0
AnchorPoint: "Anchor-6" 1126 -350 basechar 0
AnchorPoint: "Anchor-5" 1126 1700 basechar 0
AnchorPoint: "Anchor-4" 850 1230 basechar 0
AnchorPoint: "Anchor-2" 563 -180 basechar 0
AnchorPoint: "Anchor-1" 996 1390 basechar 0
AnchorPoint: "Anchor-0" 563 1430 basechar 0
LayerCount: 2
Fore
SplineSet
55 0 m 1,0,-1
 317 1307 l 1,1,-1
 680 1307 l 2,2,3
 873 1307 873 1307 971 1242.5 c 128,-1,4
 1069 1178 1069 1178 1069 1053 c 0,5,6
 1069 998 1069 998 1054.5 942.5 c 128,-1,7
 1040 887 1040 887 1007 838 c 128,-1,8
 974 789 974 789 920 749 c 128,-1,9
 866 709 866 709 788 686 c 1,10,11
 832 678 832 678 870 659 c 128,-1,12
 908 640 908 640 936.5 610 c 128,-1,13
 965 580 965 580 981 540 c 128,-1,14
 997 500 997 500 997 449 c 256,15,16
 997 398 997 398 984 345 c 128,-1,17
 971 292 971 292 941 242 c 128,-1,18
 911 192 911 192 865.5 148 c 128,-1,19
 820 104 820 104 755 71 c 128,-1,20
 690 38 690 38 604 19 c 128,-1,21
 518 0 518 0 410 0 c 2,22,-1
 55 0 l 1,0,-1
881 1014 m 0,23,24
 881 1045 881 1045 869 1071.5 c 128,-1,25
 857 1098 857 1098 830 1117 c 128,-1,26
 803 1136 803 1136 758.5 1146.5 c 128,-1,27
 714 1157 714 1157 649 1157 c 2,28,-1
 465 1157 l 1,29,-1
 383 748 l 1,30,-1
 553 748 l 2,31,32
 650 748 650 748 713 775 c 128,-1,33
 776 802 776 802 813.5 842 c 128,-1,34
 851 882 851 882 866 928.5 c 128,-1,35
 881 975 881 975 881 1014 c 0,23,24
807 432 m 0,36,37
 807 511 807 511 740 555.5 c 128,-1,38
 673 600 673 600 545 600 c 2,39,-1
 354 600 l 1,40,-1
 264 150 l 1,41,-1
 438 150 l 2,42,43
 517 150 517 150 575 164 c 128,-1,44
 633 178 633 178 674 201.5 c 128,-1,45
 715 225 715 225 741 254.5 c 128,-1,46
 767 284 767 284 781.5 315.5 c 128,-1,47
 796 347 796 347 801.5 377 c 128,-1,48
 807 407 807 407 807 432 c 0,36,37
EndSplineSet
Substitution2: "'sups' Superscript lookup 15 subtable" B.superior
EndChar

StartChar: C
Encoding: 67 67 6
Width: 1126
GlyphClass: 2
Flags: W
AnchorPoint: "Anchor-11" 0 1700 basechar 0
AnchorPoint: "Anchor-10" 1126 1700 basechar 0
AnchorPoint: "Anchor-9" 730 0 basechar 0
AnchorPoint: "Anchor-8" 640 0 basechar 0
AnchorPoint: "Anchor-7" 900 1250 basechar 0
AnchorPoint: "Anchor-6" 1126 -350 basechar 0
AnchorPoint: "Anchor-5" 1126 1700 basechar 0
AnchorPoint: "Anchor-4" 900 1270 basechar 0
AnchorPoint: "Anchor-2" 623 -180 basechar 0
AnchorPoint: "Anchor-1" 1045 1390 basechar 0
AnchorPoint: "Anchor-0" 623 1430 basechar 0
LayerCount: 2
Fore
SplineSet
903 49 m 1,0,1
 818 17 818 17 737.5 0.5 c 128,-1,2
 657 -16 657 -16 569 -16 c 0,3,4
 342 -16 342 -16 219 98 c 128,-1,5
 96 212 96 212 96 442 c 0,6,7
 96 538 96 538 115 640.5 c 128,-1,8
 134 743 134 743 173.5 841 c 128,-1,9
 213 939 213 939 273 1026.5 c 128,-1,10
 333 1114 333 1114 414 1180 c 128,-1,11
 495 1246 495 1246 598 1284.5 c 128,-1,12
 701 1323 701 1323 827 1323 c 0,13,14
 918 1323 918 1323 998.5 1307.5 c 128,-1,15
 1079 1292 1079 1292 1145 1260 c 1,16,-1
 1110 1085 l 1,17,18
 1047 1124 1047 1124 977 1144.5 c 128,-1,19
 907 1165 907 1165 817 1165 c 0,20,21
 723 1165 723 1165 647 1133 c 128,-1,22
 571 1101 571 1101 512.5 1047.5 c 128,-1,23
 454 994 454 994 411.5 923.5 c 128,-1,24
 369 853 369 853 342 775.5 c 128,-1,25
 315 698 315 698 302 618.5 c 128,-1,26
 289 539 289 539 289 467 c 0,27,28
 289 143 289 143 602 143 c 0,29,30
 686 143 686 143 772.5 162.5 c 128,-1,31
 859 182 859 182 936 217 c 1,32,-1
 903 49 l 1,0,1
EndSplineSet
Substitution2: "'sups' Superscript lookup 15 subtable" C.superior
EndChar

StartChar: D
Encoding: 68 68 7
Width: 1126
GlyphClass: 2
Flags: W
AnchorPoint: "Anchor-11" 0 1700 basechar 0
AnchorPoint: "Anchor-10" 1126 1700 basechar 0
AnchorPoint: "Anchor-9" 570 25 basechar 0
AnchorPoint: "Anchor-7" 770 1230 basechar 0
AnchorPoint: "Anchor-6" 1126 -350 basechar 0
AnchorPoint: "Anchor-5" 1126 1700 basechar 0
AnchorPoint: "Anchor-4" 860 1170 basechar 0
AnchorPoint: "Anchor-2" 523 -180 basechar 0
AnchorPoint: "Anchor-1" 1003 1390 basechar 0
AnchorPoint: "Anchor-0" 523 1430 basechar 0
LayerCount: 2
Fore
SplineSet
6 0 m 1,0,-1
 268 1307 l 1,1,-1
 596 1307 l 2,2,3
 848 1307 848 1307 976 1199.5 c 128,-1,4
 1104 1092 1104 1092 1104 866 c 0,5,6
 1104 826 1104 826 1099 767 c 128,-1,7
 1094 708 1094 708 1080 640 c 128,-1,8
 1066 572 1066 572 1040.5 497.5 c 128,-1,9
 1015 423 1015 423 974 352 c 128,-1,10
 933 281 933 281 874 217 c 128,-1,11
 815 153 815 153 734.5 105 c 128,-1,12
 654 57 654 57 550 28.5 c 128,-1,13
 446 0 446 0 313 0 c 2,14,-1
 6 0 l 1,0,-1
920 858 m 0,15,16
 920 939 920 939 898.5 995.5 c 128,-1,17
 877 1052 877 1052 834 1088 c 128,-1,18
 791 1124 791 1124 726 1140.5 c 128,-1,19
 661 1157 661 1157 575 1157 c 2,20,-1
 416 1157 l 1,21,-1
 215 154 l 1,22,-1
 336 154 l 2,23,24
 434 154 434 154 511 177 c 128,-1,25
 588 200 588 200 647.5 239.5 c 128,-1,26
 707 279 707 279 750 331 c 128,-1,27
 793 383 793 383 823.5 441 c 128,-1,28
 854 499 854 499 873 559 c 128,-1,29
 892 619 892 619 902.5 674.5 c 128,-1,30
 913 730 913 730 916.5 777.5 c 128,-1,31
 920 825 920 825 920 858 c 0,15,16
EndSplineSet
Substitution2: "'sups' Superscript lookup 15 subtable" D.superior
EndChar

StartChar: E
Encoding: 69 69 8
Width: 1126
GlyphClass: 2
Flags: W
AnchorPoint: "Anchor-11" 0 1700 basechar 0
AnchorPoint: "Anchor-10" 1126 1700 basechar 0
AnchorPoint: "Anchor-9" 890 0 basechar 0
AnchorPoint: "Anchor-8" 563 0 basechar 0
AnchorPoint: "Anchor-7" 840 1300 basechar 0
AnchorPoint: "Anchor-6" 1126 -350 basechar 0
AnchorPoint: "Anchor-5" 1126 1700 basechar 0
AnchorPoint: "Anchor-4" 870 1300 basechar 0
AnchorPoint: "Anchor-2" 563 -180 basechar 0
AnchorPoint: "Anchor-1" 994 1390 basechar 0
AnchorPoint: "Anchor-0" 563 1430 basechar 0
LayerCount: 2
Fore
SplineSet
842 0 m 1,0,-1
 98 0 l 1,1,-1
 360 1307 l 1,2,-1
 1104 1307 l 1,3,-1
 1073 1157 l 1,4,-1
 508 1157 l 1,5,-1
 426 752 l 1,6,-1
 969 752 l 1,7,-1
 940 602 l 1,8,-1
 397 602 l 1,9,-1
 307 152 l 1,10,-1
 872 152 l 1,11,-1
 842 0 l 1,0,-1
EndSplineSet
Substitution2: "'sups' Superscript lookup 15 subtable" E.superior
EndChar

StartChar: F
Encoding: 70 70 9
Width: 1126
GlyphClass: 2
Flags: W
AnchorPoint: "Anchor-11" 0 1700 basechar 0
AnchorPoint: "Anchor-10" 1126 1700 basechar 0
AnchorPoint: "Anchor-9" 320 0 basechar 0
AnchorPoint: "Anchor-7" 840 1300 basechar 0
AnchorPoint: "Anchor-6" 1126 -350 basechar 0
AnchorPoint: "Anchor-5" 1126 1700 basechar 0
AnchorPoint: "Anchor-4" 870 1300 basechar 0
AnchorPoint: "Anchor-2" 563 -180 basechar 0
AnchorPoint: "Anchor-1" 992 1390 basechar 0
AnchorPoint: "Anchor-0" 563 1430 basechar 0
LayerCount: 2
Fore
SplineSet
1071 1155 m 1,0,-1
 516 1155 l 1,1,-1
 430 731 l 1,2,-1
 956 731 l 1,3,-1
 928 582 l 1,4,-1
 401 582 l 1,5,-1
 285 0 l 1,6,-1
 102 0 l 1,7,-1
 365 1307 l 1,8,-1
 1102 1307 l 1,9,-1
 1071 1155 l 1,0,-1
EndSplineSet
Substitution2: "'sups' Superscript lookup 15 subtable" F.superior
EndChar

StartChar: G
Encoding: 71 71 10
Width: 1126
GlyphClass: 2
Flags: W
AnchorPoint: "Anchor-11" 0 1700 basechar 0
AnchorPoint: "Anchor-10" 1126 1700 basechar 0
AnchorPoint: "Anchor-9" 750 0 basechar 0
AnchorPoint: "Anchor-8" 640 0 basechar 0
AnchorPoint: "Anchor-7" 900 1250 basechar 0
AnchorPoint: "Anchor-6" 1126 -350 basechar 0
AnchorPoint: "Anchor-5" 1126 1700 basechar 0
AnchorPoint: "Anchor-4" 920 1270 basechar 0
AnchorPoint: "Anchor-2" 623 -180 basechar 0
AnchorPoint: "Anchor-1" 1062 1390 basechar 0
AnchorPoint: "Anchor-0" 623 1430 basechar 0
LayerCount: 2
Fore
SplineSet
1120 1083 m 1,0,1
 1088 1102 1088 1102 1055.5 1117.5 c 128,-1,2
 1023 1133 1023 1133 987.5 1143.5 c 128,-1,3
 952 1154 952 1154 913 1159.5 c 128,-1,4
 874 1165 874 1165 829 1165 c 0,5,6
 728 1165 728 1165 646 1133.5 c 128,-1,7
 564 1102 564 1102 501 1048.5 c 128,-1,8
 438 995 438 995 392 924.5 c 128,-1,9
 346 854 346 854 316 775.5 c 128,-1,10
 286 697 286 697 272 616 c 128,-1,11
 258 535 258 535 258 461 c 0,12,13
 258 385 258 385 277 325 c 128,-1,14
 296 265 296 265 336 224 c 128,-1,15
 376 183 376 183 438.5 161 c 128,-1,16
 501 139 501 139 588 139 c 0,17,18
 607 139 607 139 631 141 c 128,-1,19
 655 143 655 143 679.5 146.5 c 128,-1,20
 704 150 704 150 726.5 155 c 128,-1,21
 749 160 749 160 766 166 c 1,22,-1
 850 582 l 1,23,-1
 584 582 l 1,24,-1
 612 729 l 1,25,-1
 1055 729 l 1,26,-1
 922 61 l 1,27,28
 832 23 832 23 735.5 2.5 c 128,-1,29
 639 -18 639 -18 551 -18 c 0,30,31
 439 -18 439 -18 350 11 c 128,-1,32
 261 40 261 40 199.5 98.5 c 128,-1,33
 138 157 138 157 105 245 c 128,-1,34
 72 333 72 333 72 451 c 0,35,36
 72 556 72 556 93.5 662 c 128,-1,37
 115 768 115 768 158.5 865 c 128,-1,38
 202 962 202 962 266 1046 c 128,-1,39
 330 1130 330 1130 415.5 1192 c 128,-1,40
 501 1254 501 1254 606.5 1289.5 c 128,-1,41
 712 1325 712 1325 838 1325 c 0,42,43
 926 1325 926 1325 1007.5 1309.5 c 128,-1,44
 1089 1294 1089 1294 1155 1260 c 1,45,-1
 1120 1083 l 1,0,1
EndSplineSet
Substitution2: "'sups' Superscript lookup 15 subtable" G.superior
EndChar

StartChar: H
Encoding: 72 72 11
Width: 1126
GlyphClass: 2
Flags: W
AnchorPoint: "Anchor-11" 0 1700 basechar 0
AnchorPoint: "Anchor-10" 1126 1700 basechar 0
AnchorPoint: "Anchor-9" 950 0 basechar 0
AnchorPoint: "Anchor-7" 940 1300 basechar 0
AnchorPoint: "Anchor-6" 1126 -350 basechar 0
AnchorPoint: "Anchor-5" 1126 1700 basechar 0
AnchorPoint: "Anchor-4" 940 1300 basechar 0
AnchorPoint: "Anchor-2" 563 -180 basechar 0
AnchorPoint: "Anchor-1" 1066 1390 basechar 0
AnchorPoint: "Anchor-0" 563 1430 basechar 0
LayerCount: 2
Fore
SplineSet
913 0 m 1,0,-1
 735 0 l 1,1,-1
 856 600 l 1,2,-1
 307 600 l 1,3,-1
 186 0 l 1,4,-1
 8 0 l 1,5,-1
 270 1307 l 1,6,-1
 449 1307 l 1,7,-1
 338 754 l 1,8,-1
 887 754 l 1,9,-1
 997 1307 l 1,10,-1
 1176 1307 l 1,11,-1
 913 0 l 1,0,-1
EndSplineSet
Substitution2: "'sups' Superscript lookup 15 subtable" H.superior
EndChar

StartChar: I
Encoding: 73 73 12
Width: 1126
GlyphClass: 2
Flags: W
AnchorPoint: "Anchor-11" 0 1700 basechar 0
AnchorPoint: "Anchor-10" 1126 1700 basechar 0
AnchorPoint: "Anchor-9" 890 0 basechar 0
AnchorPoint: "Anchor-8" 563 0 basechar 0
AnchorPoint: "Anchor-7" 840 1300 basechar 0
AnchorPoint: "Anchor-6" 1126 -350 basechar 0
AnchorPoint: "Anchor-5" 1126 1700 basechar 0
AnchorPoint: "Anchor-4" 880 1300 basechar 0
AnchorPoint: "Anchor-2" 563 -180 basechar 0
AnchorPoint: "Anchor-1" 1004 1390 basechar 0
AnchorPoint: "Anchor-0" 563 1430 basechar 0
LayerCount: 2
Fore
SplineSet
602 1157 m 1,0,-1
 301 1157 l 1,1,-1
 332 1307 l 1,2,-1
 1114 1307 l 1,3,-1
 1083 1157 l 1,4,-1
 782 1157 l 1,5,-1
 582 152 l 1,6,-1
 883 152 l 1,7,-1
 852 0 l 1,8,-1
 70 0 l 1,9,-1
 100 152 l 1,10,-1
 401 152 l 1,11,-1
 602 1157 l 1,0,-1
EndSplineSet
Substitution2: "'sups' Superscript lookup 15 subtable" I.superior
EndChar

StartChar: J
Encoding: 74 74 13
Width: 1126
GlyphClass: 2
Flags: W
AnchorPoint: "Anchor-11" 0 1700 basechar 0
AnchorPoint: "Anchor-10" 1126 1700 basechar 0
AnchorPoint: "Anchor-9" 550 0 basechar 0
AnchorPoint: "Anchor-7" 790 1300 basechar 0
AnchorPoint: "Anchor-6" 1126 -350 basechar 0
AnchorPoint: "Anchor-5" 1126 1700 basechar 0
AnchorPoint: "Anchor-4" 800 1300 basechar 0
AnchorPoint: "Anchor-2" 563 -180 basechar 0
AnchorPoint: "Anchor-1" 927 1390 basechar 0
AnchorPoint: "Anchor-0" 563 1430 basechar 0
LayerCount: 2
Fore
SplineSet
1036 1307 m 1,0,-1
 850 379 l 2,1,2
 835 301 835 301 799 231 c 128,-1,3
 763 161 763 161 703 107 c 128,-1,4
 643 53 643 53 558.5 19.5 c 128,-1,5
 474 -14 474 -14 369 -14 c 0,6,7
 272 -14 272 -14 189.5 17 c 128,-1,8
 107 48 107 48 35 111 c 1,9,-1
 139 238 l 1,10,11
 189 195 189 195 250 167.5 c 128,-1,12
 311 140 311 140 389 140 c 0,13,14
 443 140 443 140 489.5 156.5 c 128,-1,15
 536 173 536 173 573 207 c 128,-1,16
 610 241 610 241 636 292.5 c 128,-1,17
 662 344 662 344 675 410 c 2,18,-1
 824 1153 l 1,19,-1
 327 1153 l 1,20,-1
 358 1307 l 1,21,-1
 1036 1307 l 1,0,-1
EndSplineSet
Substitution2: "'sups' Superscript lookup 15 subtable" J.superior
EndChar

StartChar: K
Encoding: 75 75 14
Width: 1126
GlyphClass: 2
Flags: W
AnchorPoint: "Anchor-11" 0 1700 basechar 0
AnchorPoint: "Anchor-10" 1126 1700 basechar 0
AnchorPoint: "Anchor-9" 980 0 basechar 0
AnchorPoint: "Anchor-8" 563 -50 basechar 0
AnchorPoint: "Anchor-7" 840 1300 basechar 0
AnchorPoint: "Anchor-6" 1126 -350 basechar 0
AnchorPoint: "Anchor-5" 1126 1700 basechar 0
AnchorPoint: "Anchor-4" 860 1300 basechar 0
AnchorPoint: "Anchor-2" 563 -180 basechar 0
AnchorPoint: "Anchor-1" 1077 1390 basechar 0
AnchorPoint: "Anchor-0" 563 1430 basechar 0
LayerCount: 2
Fore
SplineSet
936 0 m 1,0,-1
 725 0 l 1,1,-1
 362 649 l 1,2,-1
 231 0 l 1,3,-1
 53 0 l 1,4,-1
 315 1307 l 1,5,-1
 494 1307 l 1,6,-1
 373 707 l 1,7,-1
 969 1307 l 1,8,-1
 1194 1307 l 1,9,-1
 541 676 l 1,10,-1
 936 0 l 1,0,-1
EndSplineSet
Substitution2: "'sups' Superscript lookup 15 subtable" K.superior
EndChar

StartChar: L
Encoding: 76 76 15
Width: 1126
GlyphClass: 2
Flags: W
AnchorPoint: "Anchor-11" 0 1700 basechar 0
AnchorPoint: "Anchor-10" 1126 1700 basechar 0
AnchorPoint: "Anchor-9" 920 0 basechar 0
AnchorPoint: "Anchor-8" 640 0 basechar 0
AnchorPoint: "Anchor-7" 320 1300 basechar 0
AnchorPoint: "Anchor-6" 1126 -350 basechar 0
AnchorPoint: "Anchor-5" 1126 1700 basechar 0
AnchorPoint: "Anchor-4" 340 1300 basechar 0
AnchorPoint: "Anchor-2" 563 -180 basechar 0
AnchorPoint: "Anchor-1" 985 1390 basechar 0
AnchorPoint: "Anchor-0" 563 1430 basechar 0
LayerCount: 2
Fore
SplineSet
883 0 m 1,0,-1
 131 0 l 1,1,-1
 393 1307 l 1,2,-1
 573 1307 l 1,3,-1
 341 152 l 1,4,-1
 913 152 l 1,5,-1
 883 0 l 1,0,-1
EndSplineSet
Substitution2: "'sups' Superscript lookup 15 subtable" L.superior
EndChar

StartChar: M
Encoding: 77 77 16
Width: 1126
GlyphClass: 2
Flags: W
AnchorPoint: "Anchor-11" 0 1700 basechar 0
AnchorPoint: "Anchor-10" 1126 1700 basechar 0
AnchorPoint: "Anchor-9" 1010 0 basechar 0
AnchorPoint: "Anchor-7" 940 1300 basechar 0
AnchorPoint: "Anchor-6" 1126 -350 basechar 0
AnchorPoint: "Anchor-5" 1126 1700 basechar 0
AnchorPoint: "Anchor-4" 935 1300 basechar 0
AnchorPoint: "Anchor-2" 563 -180 basechar 0
AnchorPoint: "Anchor-1" 1077 1390 basechar 0
AnchorPoint: "Anchor-0" 563 1430 basechar 0
LayerCount: 2
Fore
SplineSet
975 0 m 1,0,-1
 801 0 l 1,1,-1
 938 815 l 1,2,-1
 989 1128 l 1,3,-1
 891 946 l 1,4,-1
 596 426 l 1,5,-1
 473 426 l 1,6,-1
 387 926 l 1,7,-1
 367 1128 l 1,8,-1
 297 801 l 1,9,-1
 115 0 l 1,10,-1
 -53 0 l 1,11,-1
 272 1307 l 1,12,-1
 475 1307 l 1,13,-1
 553 815 l 1,14,-1
 575 649 l 1,15,-1
 666 815 l 1,16,-1
 948 1307 l 1,17,-1
 1174 1307 l 1,18,-1
 975 0 l 1,0,-1
EndSplineSet
Substitution2: "'sups' Superscript lookup 15 subtable" M.superior
EndChar

StartChar: N
Encoding: 78 78 17
Width: 1126
GlyphClass: 2
Flags: W
AnchorPoint: "Anchor-11" 0 1700 basechar 0
AnchorPoint: "Anchor-10" 1126 1700 basechar 0
AnchorPoint: "Anchor-9" 940 0 basechar 0
AnchorPoint: "Anchor-8" 563 -50 basechar 0
AnchorPoint: "Anchor-7" 930 1300 basechar 0
AnchorPoint: "Anchor-6" 1126 -350 basechar 0
AnchorPoint: "Anchor-5" 1126 1700 basechar 0
AnchorPoint: "Anchor-4" 930 1300 basechar 0
AnchorPoint: "Anchor-2" 563 -180 basechar 0
AnchorPoint: "Anchor-1" 1058 1390 basechar 0
AnchorPoint: "Anchor-0" 563 1430 basechar 0
LayerCount: 2
Fore
SplineSet
900 0 m 1,0,-1
 677 0 l 1,1,-1
 460 815 l 1,2,-1
 400 1077 l 1,3,-1
 269 418 l 1,4,-1
 185 0 l 1,5,-1
 19 0 l 1,6,-1
 282 1307 l 1,7,-1
 503 1307 l 1,8,-1
 710 535 l 1,9,-1
 781 236 l 1,10,-1
 921 936 l 1,11,-1
 996 1307 l 1,12,-1
 1162 1307 l 1,13,-1
 900 0 l 1,0,-1
EndSplineSet
Substitution2: "'sups' Superscript lookup 15 subtable" N.superior
EndChar

StartChar: O
Encoding: 79 79 18
Width: 1126
GlyphClass: 2
Flags: W
AnchorPoint: "Anchor-11" 0 1700 basechar 0
AnchorPoint: "Anchor-10" 1126 1700 basechar 0
AnchorPoint: "Anchor-9" 650 0 basechar 0
AnchorPoint: "Anchor-8" 563 0 basechar 0
AnchorPoint: "Anchor-7" 880 1170 basechar 0
AnchorPoint: "Anchor-6" 1126 -350 basechar 0
AnchorPoint: "Anchor-5" 1126 1700 basechar 0
AnchorPoint: "Anchor-4" 905 1170 basechar 0
AnchorPoint: "Anchor-2" 563 -180 basechar 0
AnchorPoint: "Anchor-1" 1026 1390 basechar 0
AnchorPoint: "Anchor-0" 563 1430 basechar 0
LayerCount: 2
Fore
SplineSet
461 -18 m 0,0,1
 261 -18 261 -18 161 96.5 c 128,-1,2
 61 211 61 211 61 422 c 0,3,4
 61 523 61 523 79 629.5 c 128,-1,5
 97 736 97 736 133.5 836 c 128,-1,6
 170 936 170 936 225 1025 c 128,-1,7
 280 1114 280 1114 353.5 1180.5 c 128,-1,8
 427 1247 427 1247 520 1286 c 128,-1,9
 613 1325 613 1325 725 1325 c 0,10,11
 924 1325 924 1325 1024 1210 c 128,-1,12
 1124 1095 1124 1095 1124 885 c 0,13,14
 1124 784 1124 784 1106 677.5 c 128,-1,15
 1088 571 1088 571 1051.5 470.5 c 128,-1,16
 1015 370 1015 370 960.5 281 c 128,-1,17
 906 192 906 192 832 125.5 c 128,-1,18
 758 59 758 59 665.5 20.5 c 128,-1,19
 573 -18 573 -18 461 -18 c 0,0,1
942 872 m 0,20,21
 942 940 942 940 928.5 995 c 128,-1,22
 915 1050 915 1050 886 1088.5 c 128,-1,23
 857 1127 857 1127 812.5 1148.5 c 128,-1,24
 768 1170 768 1170 705 1170 c 0,25,26
 624 1170 624 1170 558 1133 c 128,-1,27
 492 1096 492 1096 440.5 1035.5 c 128,-1,28
 389 975 389 975 352 897.5 c 128,-1,29
 315 820 315 820 291 738.5 c 128,-1,30
 267 657 267 657 255.5 577.5 c 128,-1,31
 244 498 244 498 244 434 c 0,32,33
 244 366 244 366 257.5 311.5 c 128,-1,34
 271 257 271 257 299.5 218 c 128,-1,35
 328 179 328 179 373 158 c 128,-1,36
 418 137 418 137 481 137 c 0,37,38
 562 137 562 137 628 173.5 c 128,-1,39
 694 210 694 210 745.5 270.5 c 128,-1,40
 797 331 797 331 834 408.5 c 128,-1,41
 871 486 871 486 895 567.5 c 128,-1,42
 919 649 919 649 930.5 728.5 c 128,-1,43
 942 808 942 808 942 872 c 0,20,21
EndSplineSet
Substitution2: "'sups' Superscript lookup 15 subtable" O.superior
EndChar

StartChar: P
Encoding: 80 80 19
Width: 1126
GlyphClass: 2
Flags: W
AnchorPoint: "Anchor-11" 0 1700 basechar 0
AnchorPoint: "Anchor-10" 1126 1700 basechar 0
AnchorPoint: "Anchor-9" 270 0 basechar 0
AnchorPoint: "Anchor-7" 770 1250 basechar 0
AnchorPoint: "Anchor-6" 1126 -350 basechar 0
AnchorPoint: "Anchor-5" 1126 1700 basechar 0
AnchorPoint: "Anchor-4" 880 1210 basechar 0
AnchorPoint: "Anchor-2" 563 -180 basechar 0
AnchorPoint: "Anchor-1" 1016 1390 basechar 0
AnchorPoint: "Anchor-0" 563 1430 basechar 0
LayerCount: 2
Fore
SplineSet
328 469 m 1,0,-1
 233 0 l 1,1,-1
 55 0 l 1,2,-1
 317 1307 l 1,3,-1
 676 1307 l 2,4,5
 765 1307 765 1307 842.5 1288.5 c 128,-1,6
 920 1270 920 1270 978 1231 c 128,-1,7
 1036 1192 1036 1192 1069 1131 c 128,-1,8
 1102 1070 1102 1070 1102 985 c 0,9,10
 1102 923 1102 923 1085 860.5 c 128,-1,11
 1068 798 1068 798 1034 741 c 128,-1,12
 1000 684 1000 684 949.5 634 c 128,-1,13
 899 584 899 584 832.5 547.5 c 128,-1,14
 766 511 766 511 682.5 490 c 128,-1,15
 599 469 599 469 500 469 c 2,16,-1
 328 469 l 1,0,-1
915 969 m 0,17,18
 915 1059 915 1059 850 1108 c 128,-1,19
 785 1157 785 1157 655 1157 c 2,20,-1
 465 1157 l 1,21,-1
 358 619 l 1,22,-1
 516 619 l 2,23,24
 595 619 595 619 655.5 635.5 c 128,-1,25
 716 652 716 652 760.5 679.5 c 128,-1,26
 805 707 805 707 834.5 742.5 c 128,-1,27
 864 778 864 778 882 817 c 128,-1,28
 900 856 900 856 907.5 895.5 c 128,-1,29
 915 935 915 935 915 969 c 0,17,18
EndSplineSet
Substitution2: "'sups' Superscript lookup 15 subtable" P.superior
EndChar

StartChar: Q
Encoding: 81 81 20
Width: 1126
GlyphClass: 2
Flags: W
AnchorPoint: "Anchor-11" 0 1700 basechar 0
AnchorPoint: "Anchor-10" 1126 1700 basechar 0
AnchorPoint: "Anchor-9" 700 -300 basechar 0
AnchorPoint: "Anchor-7" 880 1170 basechar 0
AnchorPoint: "Anchor-6" 1126 -350 basechar 0
AnchorPoint: "Anchor-5" 1126 1700 basechar 0
AnchorPoint: "Anchor-4" 905 1170 basechar 0
AnchorPoint: "Anchor-2" 563 -500 basechar 0
AnchorPoint: "Anchor-1" 1026 1390 basechar 0
AnchorPoint: "Anchor-0" 563 1430 basechar 0
LayerCount: 2
Fore
SplineSet
528 -14 m 1,0,1
 526 -57 526 -57 535 -92.5 c 128,-1,2
 544 -128 544 -128 565.5 -153.5 c 128,-1,3
 587 -179 587 -179 622 -193 c 128,-1,4
 657 -207 657 -207 707 -207 c 0,5,6
 755 -207 755 -207 804.5 -191 c 128,-1,7
 854 -175 854 -175 909 -137 c 1,8,-1
 981 -260 l 1,9,10
 904 -314 904 -314 830 -337 c 128,-1,11
 756 -360 756 -360 682 -360 c 0,12,13
 602 -360 602 -360 538 -338 c 128,-1,14
 474 -316 474 -316 431 -272 c 128,-1,15
 388 -228 388 -228 369.5 -162.5 c 128,-1,16
 351 -97 351 -97 362 -10 c 1,17,18
 212 16 212 16 136.5 127.5 c 128,-1,19
 61 239 61 239 61 422 c 0,20,21
 61 523 61 523 79 629.5 c 128,-1,22
 97 736 97 736 133.5 836 c 128,-1,23
 170 936 170 936 225 1025 c 128,-1,24
 280 1114 280 1114 353.5 1180.5 c 128,-1,25
 427 1247 427 1247 520 1286 c 128,-1,26
 613 1325 613 1325 725 1325 c 0,27,28
 924 1325 924 1325 1024 1210 c 128,-1,29
 1124 1095 1124 1095 1124 885 c 0,30,31
 1124 789 1124 789 1108 688.5 c 128,-1,32
 1092 588 1092 588 1059.5 492.5 c 128,-1,33
 1027 397 1027 397 977.5 310.5 c 128,-1,34
 928 224 928 224 862 156 c 128,-1,35
 796 88 796 88 712.5 43 c 128,-1,36
 629 -2 629 -2 528 -14 c 1,0,1
942 872 m 0,37,38
 942 940 942 940 928.5 995 c 128,-1,39
 915 1050 915 1050 886 1089 c 128,-1,40
 857 1128 857 1128 812.5 1149 c 128,-1,41
 768 1170 768 1170 705 1170 c 0,42,43
 624 1170 624 1170 558 1133 c 128,-1,44
 492 1096 492 1096 440.5 1035.5 c 128,-1,45
 389 975 389 975 352 897.5 c 128,-1,46
 315 820 315 820 291 738.5 c 128,-1,47
 267 657 267 657 255.5 577.5 c 128,-1,48
 244 498 244 498 244 434 c 0,49,50
 244 366 244 366 257.5 311.5 c 128,-1,51
 271 257 271 257 299.5 218 c 128,-1,52
 328 179 328 179 373 158 c 128,-1,53
 418 137 418 137 481 137 c 0,54,55
 562 137 562 137 628 173.5 c 128,-1,56
 694 210 694 210 745.5 270.5 c 128,-1,57
 797 331 797 331 834 408.5 c 128,-1,58
 871 486 871 486 895 567.5 c 128,-1,59
 919 649 919 649 930.5 728.5 c 128,-1,60
 942 808 942 808 942 872 c 0,37,38
EndSplineSet
Substitution2: "'sups' Superscript lookup 15 subtable" Q.superior
EndChar

StartChar: R
Encoding: 82 82 21
Width: 1126
GlyphClass: 2
Flags: W
AnchorPoint: "Anchor-11" 0 1700 basechar 0
AnchorPoint: "Anchor-10" 1126 1700 basechar 0
AnchorPoint: "Anchor-9" 990 0 basechar 0
AnchorPoint: "Anchor-8" 563 -50 basechar 0
AnchorPoint: "Anchor-7" 770 1250 basechar 0
AnchorPoint: "Anchor-6" 1126 -350 basechar 0
AnchorPoint: "Anchor-5" 1126 1700 basechar 0
AnchorPoint: "Anchor-4" 830 1210 basechar 0
AnchorPoint: "Anchor-2" 563 -180 basechar 0
AnchorPoint: "Anchor-1" 951 1390 basechar 0
AnchorPoint: "Anchor-0" 523 1430 basechar 0
LayerCount: 2
Fore
SplineSet
944 0 m 1,0,-1
 752 0 l 1,1,-1
 641 418 l 2,2,3
 628 466 628 466 610.5 497.5 c 128,-1,4
 593 529 593 529 569.5 547.5 c 128,-1,5
 546 566 546 566 515.5 574 c 128,-1,6
 485 582 485 582 446 582 c 2,7,-1
 362 582 l 1,8,-1
 246 0 l 1,9,-1
 68 0 l 1,10,-1
 330 1307 l 1,11,-1
 668 1307 l 2,12,13
 765 1307 765 1307 836.5 1288 c 128,-1,14
 908 1269 908 1269 955 1233.5 c 128,-1,15
 1002 1198 1002 1198 1024.5 1146.5 c 128,-1,16
 1047 1095 1047 1095 1047 1030 c 0,17,18
 1047 953 1047 953 1022 887 c 128,-1,19
 997 821 997 821 951.5 768.5 c 128,-1,20
 906 716 906 716 841 678.5 c 128,-1,21
 776 641 776 641 696 621 c 1,22,23
 747 602 747 602 775.5 550 c 128,-1,24
 804 498 804 498 825 420 c 2,25,-1
 944 0 l 1,0,-1
860 1001 m 0,26,27
 860 1157 860 1157 649 1157 c 2,28,-1
 477 1157 l 1,29,-1
 391 725 l 1,30,-1
 524 725 l 2,31,32
 605 725 605 725 667.5 747 c 128,-1,33
 730 769 730 769 772.5 806.5 c 128,-1,34
 815 844 815 844 837.5 894 c 128,-1,35
 860 944 860 944 860 1001 c 0,26,27
EndSplineSet
Substitution2: "'sups' Superscript lookup 15 subtable" R.superior
EndChar

StartChar: S
Encoding: 83 83 22
Width: 1126
GlyphClass: 2
Flags: W
AnchorPoint: "Anchor-11" 0 1700 basechar 0
AnchorPoint: "Anchor-10" 1126 1700 basechar 0
AnchorPoint: "Anchor-9" 630 0 basechar 0
AnchorPoint: "Anchor-8" 563 0 basechar 0
AnchorPoint: "Anchor-7" 840 1275 basechar 0
AnchorPoint: "Anchor-6" 1126 -350 basechar 0
AnchorPoint: "Anchor-5" 1126 1700 basechar 0
AnchorPoint: "Anchor-4" 830 1280 basechar 0
AnchorPoint: "Anchor-2" 563 -180 basechar 0
AnchorPoint: "Anchor-1" 967 1390 basechar 0
AnchorPoint: "Anchor-0" 563 1430 basechar 0
LayerCount: 2
Fore
SplineSet
385 -18 m 0,0,1
 333 -18 333 -18 280.5 -14 c 128,-1,2
 228 -10 228 -10 179 -4 c 128,-1,3
 130 2 130 2 87.5 10 c 128,-1,4
 45 18 45 18 14 27 c 1,5,-1
 47 199 l 1,6,7
 118 171 118 171 208.5 155 c 128,-1,8
 299 139 299 139 418 139 c 0,9,10
 515 139 515 139 583 157 c 128,-1,11
 651 175 651 175 694 206 c 128,-1,12
 737 237 737 237 756.5 279 c 128,-1,13
 776 321 776 321 776 369 c 0,14,15
 776 415 776 415 752 448.5 c 128,-1,16
 728 482 728 482 689 510 c 128,-1,17
 650 538 650 538 600 561.5 c 128,-1,18
 550 585 550 585 497.5 610 c 128,-1,19
 445 635 445 635 395 664 c 128,-1,20
 345 693 345 693 306 730.5 c 128,-1,21
 267 768 267 768 243 818 c 128,-1,22
 219 868 219 868 219 934 c 0,23,24
 219 1010 219 1010 254.5 1080.5 c 128,-1,25
 290 1151 290 1151 359.5 1205.5 c 128,-1,26
 429 1260 429 1260 530.5 1292.5 c 128,-1,27
 632 1325 632 1325 764 1325 c 0,28,29
 797 1325 797 1325 837 1322 c 128,-1,30
 877 1319 877 1319 918 1313.5 c 128,-1,31
 959 1308 959 1308 998 1301 c 128,-1,32
 1037 1294 1037 1294 1069 1286 c 1,33,-1
 1036 1126 l 1,34,35
 964 1148 964 1148 888.5 1159.5 c 128,-1,36
 813 1171 813 1171 741 1171 c 0,37,38
 654 1171 654 1171 591 1154.5 c 128,-1,39
 528 1138 528 1138 487 1109 c 128,-1,40
 446 1080 446 1080 426 1040.5 c 128,-1,41
 406 1001 406 1001 406 956 c 256,42,43
 406 911 406 911 430 877.5 c 128,-1,44
 454 844 454 844 493.5 817 c 128,-1,45
 533 790 533 790 583 766.5 c 128,-1,46
 633 743 633 743 685.5 718 c 128,-1,47
 738 693 738 693 788 664 c 128,-1,48
 838 635 838 635 877.5 596.5 c 128,-1,49
 917 558 917 558 941 507.5 c 128,-1,50
 965 457 965 457 965 389 c 0,51,52
 965 303 965 303 927.5 228.5 c 128,-1,53
 890 154 890 154 817 99.5 c 128,-1,54
 744 45 744 45 635.5 13.5 c 128,-1,55
 527 -18 527 -18 385 -18 c 0,0,1
EndSplineSet
Substitution2: "'sups' Superscript lookup 15 subtable" S.superior
EndChar

StartChar: T
Encoding: 84 84 23
Width: 1126
GlyphClass: 2
Flags: W
AnchorPoint: "Anchor-11" 0 1700 basechar 0
AnchorPoint: "Anchor-10" 1126 1700 basechar 0
AnchorPoint: "Anchor-9" 580 0 basechar 0
AnchorPoint: "Anchor-8" 563 0 basechar 0
AnchorPoint: "Anchor-7" 900 1300 basechar 0
AnchorPoint: "Anchor-6" 1126 -350 basechar 0
AnchorPoint: "Anchor-5" 1126 1700 basechar 0
AnchorPoint: "Anchor-4" 965 1300 basechar 0
AnchorPoint: "Anchor-2" 563 -180 basechar 0
AnchorPoint: "Anchor-1" 1090 1390 basechar 0
AnchorPoint: "Anchor-0" 563 1430 basechar 0
LayerCount: 2
Fore
SplineSet
1169 1155 m 1,0,-1
 782 1155 l 1,1,-1
 551 0 l 1,2,-1
 371 0 l 1,3,-1
 602 1155 l 1,4,-1
 215 1155 l 1,5,-1
 246 1307 l 1,6,-1
 1200 1307 l 1,7,-1
 1169 1155 l 1,0,-1
EndSplineSet
Substitution2: "'sups' Superscript lookup 15 subtable" T.superior
EndChar

StartChar: U
Encoding: 85 85 24
Width: 1126
GlyphClass: 2
Flags: W
AnchorPoint: "Anchor-11" 0 1700 basechar 0
AnchorPoint: "Anchor-10" 1126 1700 basechar 0
AnchorPoint: "Anchor-9" 670 0 basechar 0
AnchorPoint: "Anchor-8" 563 0 basechar 0
AnchorPoint: "Anchor-7" 930 1300 basechar 0
AnchorPoint: "Anchor-6" 1126 -350 basechar 0
AnchorPoint: "Anchor-5" 1126 1700 basechar 0
AnchorPoint: "Anchor-4" 940 1300 basechar 0
AnchorPoint: "Anchor-2" 563 -180 basechar 0
AnchorPoint: "Anchor-1" 1068 1390 basechar 0
AnchorPoint: "Anchor-0" 563 1430 basechar 0
LayerCount: 2
Fore
SplineSet
1006 455 m 2,0,1
 984 347 984 347 938.5 259.5 c 128,-1,2
 893 172 893 172 824.5 110.5 c 128,-1,3
 756 49 756 49 666 15.5 c 128,-1,4
 576 -18 576 -18 465 -18 c 0,5,6
 343 -18 343 -18 262.5 14 c 128,-1,7
 182 46 182 46 137.5 104.5 c 128,-1,8
 93 163 93 163 82.5 245 c 128,-1,9
 72 327 72 327 92 428 c 2,10,-1
 268 1307 l 1,11,-1
 446 1307 l 1,12,-1
 272 442 l 2,13,14
 257 365 257 365 259 307 c 128,-1,15
 261 249 261 249 285 210 c 128,-1,16
 309 171 309 171 357 151 c 128,-1,17
 405 131 405 131 481 131 c 0,18,19
 623 131 623 131 709.5 213 c 128,-1,20
 796 295 796 295 825 444 c 2,21,-1
 999 1307 l 1,22,-1
 1178 1307 l 1,23,-1
 1006 455 l 2,0,1
EndSplineSet
Substitution2: "'sups' Superscript lookup 15 subtable" U.superior
EndChar

StartChar: V
Encoding: 86 86 25
Width: 1126
GlyphClass: 2
Flags: W
AnchorPoint: "Anchor-11" 0 1700 basechar 0
AnchorPoint: "Anchor-10" 1126 1700 basechar 0
AnchorPoint: "Anchor-9" 610 0 basechar 0
AnchorPoint: "Anchor-7" 990 1300 basechar 0
AnchorPoint: "Anchor-6" 1126 -350 basechar 0
AnchorPoint: "Anchor-5" 1126 1700 basechar 0
AnchorPoint: "Anchor-4" 1000 1300 basechar 0
AnchorPoint: "Anchor-2" 563 -180 basechar 0
AnchorPoint: "Anchor-1" 1172 1390 basechar 0
AnchorPoint: "Anchor-0" 563 1430 basechar 0
LayerCount: 2
Fore
SplineSet
1282 1307 m 1,0,-1
 575 0 l 1,1,-1
 336 0 l 1,2,-1
 164 1307 l 1,3,-1
 356 1307 l 1,4,-1
 463 426 l 1,5,-1
 489 168 l 1,6,-1
 625 426 l 1,7,-1
 1083 1307 l 1,8,-1
 1282 1307 l 1,0,-1
EndSplineSet
Substitution2: "'sups' Superscript lookup 15 subtable" V.superior
EndChar

StartChar: W
Encoding: 87 87 26
Width: 1126
GlyphClass: 2
Flags: W
AnchorPoint: "Anchor-11" 0 1700 basechar 0
AnchorPoint: "Anchor-10" 1126 1700 basechar 0
AnchorPoint: "Anchor-9" 920 0 basechar 0
AnchorPoint: "Anchor-7" 990 1300 basechar 0
AnchorPoint: "Anchor-6" 1126 -350 basechar 0
AnchorPoint: "Anchor-5" 1126 1700 basechar 0
AnchorPoint: "Anchor-4" 990 1300 basechar 0
AnchorPoint: "Anchor-2" 563 -180 basechar 0
AnchorPoint: "Anchor-1" 1131 1390 basechar 0
AnchorPoint: "Anchor-0" 563 1430 basechar 0
LayerCount: 2
Fore
SplineSet
1241 1307 m 1,0,-1
 891 0 l 1,1,-1
 664 0 l 1,2,-1
 594 465 l 1,3,-1
 580 614 l 1,4,-1
 500 453 l 1,5,-1
 260 0 l 1,6,-1
 33 0 l 1,7,-1
 205 1307 l 1,8,-1
 371 1307 l 1,9,-1
 244 418 l 1,10,-1
 209 174 l 1,11,-1
 313 381 l 1,12,-1
 569 866 l 1,13,-1
 692 866 l 1,14,-1
 770 346 l 1,15,-1
 797 174 l 1,16,-1
 838 354 l 1,17,-1
 1079 1307 l 1,18,-1
 1241 1307 l 1,0,-1
EndSplineSet
Substitution2: "'sups' Superscript lookup 15 subtable" W.superior
EndChar

StartChar: X
Encoding: 88 88 27
Width: 1126
GlyphClass: 2
Flags: W
AnchorPoint: "Anchor-11" 0 1700 basechar 0
AnchorPoint: "Anchor-10" 1126 1700 basechar 0
AnchorPoint: "Anchor-9" 1030 0 basechar 0
AnchorPoint: "Anchor-7" 900 1300 basechar 0
AnchorPoint: "Anchor-6" 1126 -350 basechar 0
AnchorPoint: "Anchor-5" 1126 1700 basechar 0
AnchorPoint: "Anchor-4" 920 1300 basechar 0
AnchorPoint: "Anchor-2" 563 -180 basechar 0
AnchorPoint: "Anchor-1" 1122 1390 basechar 0
AnchorPoint: "Anchor-0" 563 1430 basechar 0
LayerCount: 2
Fore
SplineSet
999 0 m 1,0,-1
 782 0 l 1,1,-1
 571 528 l 1,2,-1
 145 0 l 1,3,-1
 -84 0 l 1,4,-1
 483 668 l 1,5,-1
 213 1307 l 1,6,-1
 416 1307 l 1,7,-1
 616 815 l 1,8,-1
 1016 1307 l 1,9,-1
 1229 1307 l 1,10,-1
 700 676 l 1,11,-1
 999 0 l 1,0,-1
EndSplineSet
Substitution2: "'sups' Superscript lookup 15 subtable" X.superior
EndChar

StartChar: Y
Encoding: 89 89 28
Width: 1126
GlyphClass: 2
Flags: W
AnchorPoint: "Anchor-11" 0 1700 basechar 0
AnchorPoint: "Anchor-10" 1126 1700 basechar 0
AnchorPoint: "Anchor-9" 580 0 basechar 0
AnchorPoint: "Anchor-7" 960 1300 basechar 0
AnchorPoint: "Anchor-6" 1126 -350 basechar 0
AnchorPoint: "Anchor-5" 1126 1700 basechar 0
AnchorPoint: "Anchor-4" 980 1300 basechar 0
AnchorPoint: "Anchor-2" 563 -180 basechar 0
AnchorPoint: "Anchor-1" 1176 1390 basechar 0
AnchorPoint: "Anchor-0" 563 1430 basechar 0
LayerCount: 2
Fore
SplineSet
1286 1307 m 1,0,-1
 645 467 l 1,1,-1
 551 0 l 1,2,-1
 371 0 l 1,3,-1
 465 471 l 1,4,-1
 160 1307 l 1,5,-1
 367 1307 l 1,6,-1
 530 829 l 1,7,-1
 588 637 l 1,8,-1
 711 811 l 1,9,-1
 1073 1307 l 1,10,-1
 1286 1307 l 1,0,-1
EndSplineSet
Substitution2: "'sups' Superscript lookup 15 subtable" Y.superior
EndChar

StartChar: Z
Encoding: 90 90 29
Width: 1126
GlyphClass: 2
Flags: W
AnchorPoint: "Anchor-11" 0 1700 basechar 0
AnchorPoint: "Anchor-10" 1126 1700 basechar 0
AnchorPoint: "Anchor-9" 950 0 basechar 0
AnchorPoint: "Anchor-7" 900 1300 basechar 0
AnchorPoint: "Anchor-6" 1126 -350 basechar 0
AnchorPoint: "Anchor-5" 1126 1700 basechar 0
AnchorPoint: "Anchor-4" 920 1300 basechar 0
AnchorPoint: "Anchor-2" 563 -180 basechar 0
AnchorPoint: "Anchor-1" 1064 1390 basechar 0
AnchorPoint: "Anchor-0" 563 1430 basechar 0
LayerCount: 2
Fore
SplineSet
1133 1167 m 1,0,-1
 270 166 l 1,1,-1
 944 166 l 1,2,-1
 911 0 l 1,3,-1
 8 0 l 1,4,-1
 35 133 l 1,5,-1
 903 1145 l 1,6,-1
 256 1145 l 1,7,-1
 289 1307 l 1,8,-1
 1161 1307 l 1,9,-1
 1133 1167 l 1,0,-1
EndSplineSet
Substitution2: "'sups' Superscript lookup 15 subtable" Z.superior
EndChar

StartChar: Aogonek
Encoding: 260 260 39
Width: 1126
GlyphClass: 2
Flags: W
AnchorPoint: "Anchor-11" 0 1700 basechar 0
AnchorPoint: "Anchor-10" 1126 1700 basechar 0
AnchorPoint: "Anchor-9" 1020 -385 basechar 0
AnchorPoint: "Anchor-6" 1126 -350 basechar 0
AnchorPoint: "Anchor-5" 1126 1700 basechar 0
AnchorPoint: "Anchor-2" 563 -475 basechar 0
AnchorPoint: "Anchor-1" 916 1390 basechar 0
AnchorPoint: "Anchor-0" 563 1430 basechar 0
LayerCount: 2
Fore
SplineSet
981 -375 m 1,0,1
 956 -380 956 -380 924.5 -382.5 c 128,-1,2
 893 -385 893 -385 868 -385 c 0,3,4
 814 -385 814 -385 775.5 -373.5 c 128,-1,5
 737 -362 737 -362 712.5 -342.5 c 128,-1,6
 688 -323 688 -323 676 -297 c 128,-1,7
 664 -271 664 -271 664 -242 c 0,8,9
 664 -217 664 -217 670.5 -192 c 128,-1,10
 677 -167 677 -167 694.5 -138 c 128,-1,11
 712 -109 712 -109 743.5 -75.5 c 128,-1,12
 775 -42 775 -42 825 0 c 1,13,-1
 793 285 l 1,14,-1
 248 285 l 1,15,-1
 98 0 l 1,16,-1
 -92 0 l 1,17,-1
 604 1307 l 1,18,-1
 848 1307 l 1,19,-1
 1014 0 l 1,20,-1
 991 0 l 1,21,22
 941 -43 941 -43 910 -74.5 c 128,-1,23
 879 -106 879 -106 861.5 -130.5 c 128,-1,24
 844 -155 844 -155 838 -175 c 128,-1,25
 832 -195 832 -195 832 -215 c 256,26,27
 832 -235 832 -235 848.5 -250.5 c 128,-1,28
 865 -266 865 -266 911 -266 c 0,29,30
 925 -266 925 -266 944.5 -265 c 128,-1,31
 964 -264 964 -264 981 -262 c 1,32,-1
 981 -375 l 1,0,1
772 444 m 1,33,-1
 692 1143 l 1,34,-1
 330 444 l 1,35,-1
 772 444 l 1,33,-1
EndSplineSet
EndChar

StartChar: AE
Encoding: 198 198 40
Width: 1126
GlyphClass: 2
Flags: W
AnchorPoint: "Anchor-11" 0 1700 basechar 0
AnchorPoint: "Anchor-10" 1126 1700 basechar 0
AnchorPoint: "Anchor-9" 1030 0 basechar 0
AnchorPoint: "Anchor-6" 1126 -350 basechar 0
AnchorPoint: "Anchor-5" 1126 1700 basechar 0
AnchorPoint: "Anchor-2" 663 -180 basechar 0
AnchorPoint: "Anchor-1" 1151 1390 basechar 0
AnchorPoint: "Anchor-0" 663 1430 basechar 0
LayerCount: 2
Fore
SplineSet
983 0 m 1,0,-1
 481 0 l 1,1,-1
 537 281 l 1,2,-1
 195 281 l 1,3,-1
 31 0 l 1,4,-1
 -145 0 l 1,5,-1
 649 1307 l 1,6,-1
 1231 1307 l 1,7,-1
 1202 1165 l 1,8,-1
 881 1165 l 1,9,-1
 797 748 l 1,10,-1
 1104 748 l 1,11,-1
 1075 606 l 1,12,-1
 768 606 l 1,13,-1
 676 143 l 1,14,-1
 1012 143 l 1,15,-1
 983 0 l 1,0,-1
565 424 m 1,16,-1
 715 1167 l 1,17,-1
 279 424 l 1,18,-1
 565 424 l 1,16,-1
EndSplineSet
EndChar

StartChar: Ccedilla
Encoding: 199 199 46
Width: 1126
GlyphClass: 2
Flags: W
AnchorPoint: "Anchor-11" 0 1700 basechar 0
AnchorPoint: "Anchor-10" 1126 1700 basechar 0
AnchorPoint: "Anchor-9" 500 -295 basechar 0
AnchorPoint: "Anchor-6" 1126 -350 basechar 0
AnchorPoint: "Anchor-5" 1126 1700 basechar 0
AnchorPoint: "Anchor-2" 623 -385 basechar 0
AnchorPoint: "Anchor-1" 1045 1390 basechar 0
AnchorPoint: "Anchor-0" 623 1430 basechar 0
LayerCount: 2
Fore
SplineSet
577 -16 m 1,0,-1
 440 -295 l 1,1,-1
 288 -295 l 1,2,-1
 413 0 l 1,3,4
 254 37 254 37 175 147.5 c 128,-1,5
 96 258 96 258 96 442 c 0,6,7
 96 538 96 538 115 640.5 c 128,-1,8
 134 743 134 743 173.5 841 c 128,-1,9
 213 939 213 939 273 1026.5 c 128,-1,10
 333 1114 333 1114 414 1180 c 128,-1,11
 495 1246 495 1246 598 1284.5 c 128,-1,12
 701 1323 701 1323 827 1323 c 0,13,14
 918 1323 918 1323 998.5 1307.5 c 128,-1,15
 1079 1292 1079 1292 1145 1260 c 1,16,-1
 1110 1085 l 1,17,18
 1047 1124 1047 1124 977 1144.5 c 128,-1,19
 907 1165 907 1165 817 1165 c 0,20,21
 723 1165 723 1165 647 1133 c 128,-1,22
 571 1101 571 1101 512.5 1047.5 c 128,-1,23
 454 994 454 994 411.5 923.5 c 128,-1,24
 369 853 369 853 342 775.5 c 128,-1,25
 315 698 315 698 302 618.5 c 128,-1,26
 289 539 289 539 289 467 c 0,27,28
 289 143 289 143 602 143 c 0,29,30
 686 143 686 143 772.5 162.5 c 128,-1,31
 859 182 859 182 936 217 c 1,32,-1
 903 49 l 1,33,34
 818 17 818 17 740 1 c 128,-1,35
 662 -15 662 -15 577 -16 c 1,0,-1
EndSplineSet
EndChar

StartChar: Eth
Encoding: 208 208 48
Width: 1126
GlyphClass: 2
Flags: W
AnchorPoint: "Anchor-11" 0 1700 basechar 0
AnchorPoint: "Anchor-10" 1126 1700 basechar 0
AnchorPoint: "Anchor-9" 570 25 basechar 0
AnchorPoint: "Anchor-6" 1126 -350 basechar 0
AnchorPoint: "Anchor-5" 1126 1700 basechar 0
AnchorPoint: "Anchor-2" 563 -180 basechar 0
AnchorPoint: "Anchor-1" 1003 1390 basechar 0
AnchorPoint: "Anchor-0" 563 1430 basechar 0
LayerCount: 2
Fore
SplineSet
47 752 m 1,0,-1
 186 752 l 1,1,-1
 299 1307 l 1,2,-1
 612 1307 l 2,3,4
 856 1307 856 1307 980 1199.5 c 128,-1,5
 1104 1092 1104 1092 1104 866 c 0,6,7
 1104 826 1104 826 1099.5 767 c 128,-1,8
 1095 708 1095 708 1081 640 c 128,-1,9
 1067 572 1067 572 1042.5 497.5 c 128,-1,10
 1018 423 1018 423 978 352 c 128,-1,11
 938 281 938 281 880.5 217 c 128,-1,12
 823 153 823 153 744.5 105 c 128,-1,13
 666 57 666 57 563 28.5 c 128,-1,14
 460 0 460 0 330 0 c 2,15,-1
 37 0 l 1,16,-1
 158 602 l 1,17,-1
 18 602 l 1,18,-1
 47 752 l 1,0,-1
920 858 m 0,19,20
 920 939 920 939 899.5 995.5 c 128,-1,21
 879 1052 879 1052 838 1088 c 128,-1,22
 797 1124 797 1124 735.5 1140.5 c 128,-1,23
 674 1157 674 1157 592 1157 c 2,24,-1
 446 1157 l 1,25,-1
 365 752 l 1,26,-1
 590 752 l 1,27,-1
 561 602 l 1,28,-1
 336 602 l 1,29,-1
 246 154 l 1,30,-1
 352 154 l 2,31,32
 448 154 448 154 523.5 177 c 128,-1,33
 599 200 599 200 657 239.5 c 128,-1,34
 715 279 715 279 757 331 c 128,-1,35
 799 383 799 383 828 441 c 128,-1,36
 857 499 857 499 875 559 c 128,-1,37
 893 619 893 619 903 674.5 c 128,-1,38
 913 730 913 730 916.5 777.5 c 128,-1,39
 920 825 920 825 920 858 c 0,19,20
EndSplineSet
EndChar

StartChar: Eogonek
Encoding: 280 280 58
Width: 1126
GlyphClass: 2
Flags: W
AnchorPoint: "Anchor-11" 0 1700 basechar 0
AnchorPoint: "Anchor-10" 1126 1700 basechar 0
AnchorPoint: "Anchor-9" 880 -385 basechar 0
AnchorPoint: "Anchor-6" 1126 -350 basechar 0
AnchorPoint: "Anchor-5" 1126 1700 basechar 0
AnchorPoint: "Anchor-2" 563 -475 basechar 0
AnchorPoint: "Anchor-1" 994 1390 basechar 0
AnchorPoint: "Anchor-0" 563 1430 basechar 0
LayerCount: 2
Fore
SplineSet
831 -375 m 1,0,1
 806 -380 806 -380 774.5 -382.5 c 128,-1,2
 743 -385 743 -385 718 -385 c 0,3,4
 664 -385 664 -385 625.5 -373.5 c 128,-1,5
 587 -362 587 -362 562.5 -342.5 c 128,-1,6
 538 -323 538 -323 526 -297 c 128,-1,7
 514 -271 514 -271 514 -242 c 0,8,9
 514 -217 514 -217 520.5 -192 c 128,-1,10
 527 -167 527 -167 544.5 -138 c 128,-1,11
 562 -109 562 -109 593.5 -75.5 c 128,-1,12
 625 -42 625 -42 675 0 c 1,13,-1
 98 0 l 1,14,-1
 360 1307 l 1,15,-1
 1104 1307 l 1,16,-1
 1073 1157 l 1,17,-1
 508 1157 l 1,18,-1
 426 752 l 1,19,-1
 969 752 l 1,20,-1
 940 602 l 1,21,-1
 397 602 l 1,22,-1
 307 152 l 1,23,-1
 872 152 l 1,24,-1
 842 0 l 1,25,-1
 841 0 l 1,26,27
 791 -43 791 -43 760 -74.5 c 128,-1,28
 729 -106 729 -106 711.5 -130.5 c 128,-1,29
 694 -155 694 -155 688 -175 c 128,-1,30
 682 -195 682 -195 682 -215 c 256,31,32
 682 -235 682 -235 698.5 -250.5 c 128,-1,33
 715 -266 715 -266 761 -266 c 0,34,35
 775 -266 775 -266 794.5 -265 c 128,-1,36
 814 -264 814 -264 831 -262 c 1,37,-1
 831 -375 l 1,0,1
EndSplineSet
EndChar

StartChar: Hbar
Encoding: 294 294 64
Width: 1126
GlyphClass: 2
Flags: W
AnchorPoint: "Anchor-11" 0 1700 basechar 0
AnchorPoint: "Anchor-10" 1126 1700 basechar 0
AnchorPoint: "Anchor-9" 920 0 basechar 0
AnchorPoint: "Anchor-6" 1126 -350 basechar 0
AnchorPoint: "Anchor-5" 1126 1700 basechar 0
AnchorPoint: "Anchor-2" 563 -180 basechar 0
AnchorPoint: "Anchor-1" 1162 1397 basechar 0
AnchorPoint: "Anchor-0" 563 1397 basechar 0
LayerCount: 2
Fore
SplineSet
1069 940 m 1,0,-1
 883 0 l 1,1,-1
 705 0 l 1,2,-1
 817 571 l 1,3,-1
 330 571 l 1,4,-1
 217 0 l 1,5,-1
 39 0 l 1,6,-1
 225 940 l 1,7,-1
 115 940 l 1,8,-1
 145 1090 l 1,9,-1
 256 1090 l 1,10,-1
 299 1307 l 1,11,-1
 477 1307 l 1,12,-1
 434 1090 l 1,13,-1
 922 1090 l 1,14,-1
 965 1307 l 1,15,-1
 1143 1307 l 1,16,-1
 1100 1090 l 1,17,-1
 1210 1090 l 1,18,-1
 1180 940 l 1,19,-1
 1069 940 l 1,0,-1
848 721 m 1,20,-1
 891 940 l 1,21,-1
 403 940 l 1,22,-1
 360 721 l 1,23,-1
 848 721 l 1,20,-1
EndSplineSet
EndChar

StartChar: Iogonek
Encoding: 302 302 73
Width: 1126
GlyphClass: 2
Flags: W
AnchorPoint: "Anchor-11" 0 1700 basechar 0
AnchorPoint: "Anchor-10" 1126 1700 basechar 0
AnchorPoint: "Anchor-9" 890 -385 basechar 0
AnchorPoint: "Anchor-6" 1126 -350 basechar 0
AnchorPoint: "Anchor-5" 1126 1700 basechar 0
AnchorPoint: "Anchor-2" 563 -475 basechar 0
AnchorPoint: "Anchor-1" 1004 1390 basechar 0
AnchorPoint: "Anchor-0" 563 1430 basechar 0
LayerCount: 2
Fore
SplineSet
842 -375 m 1,0,1
 817 -380 817 -380 785.5 -382.5 c 128,-1,2
 754 -385 754 -385 729 -385 c 0,3,4
 675 -385 675 -385 636.5 -373.5 c 128,-1,5
 598 -362 598 -362 573.5 -342.5 c 128,-1,6
 549 -323 549 -323 537 -297 c 128,-1,7
 525 -271 525 -271 525 -242 c 0,8,9
 525 -217 525 -217 531.5 -192 c 128,-1,10
 538 -167 538 -167 555.5 -138 c 128,-1,11
 573 -109 573 -109 604.5 -75.5 c 128,-1,12
 636 -42 636 -42 686 0 c 1,13,-1
 70 0 l 1,14,-1
 100 152 l 1,15,-1
 401 152 l 1,16,-1
 602 1157 l 1,17,-1
 301 1157 l 1,18,-1
 332 1307 l 1,19,-1
 1114 1307 l 1,20,-1
 1083 1157 l 1,21,-1
 782 1157 l 1,22,-1
 582 152 l 1,23,-1
 883 152 l 1,24,-1
 852 0 l 1,25,26
 802 -43 802 -43 771 -74.5 c 128,-1,27
 740 -106 740 -106 722.5 -130.5 c 128,-1,28
 705 -155 705 -155 699 -175 c 128,-1,29
 693 -195 693 -195 693 -215 c 256,30,31
 693 -235 693 -235 709.5 -250.5 c 128,-1,32
 726 -266 726 -266 772 -266 c 0,33,34
 786 -266 786 -266 805.5 -265 c 128,-1,35
 825 -264 825 -264 842 -262 c 1,36,-1
 842 -375 l 1,0,1
EndSplineSet
EndChar

StartChar: IJ
Encoding: 306 306 74
Width: 1126
GlyphClass: 2
Flags: W
AnchorPoint: "Anchor-11" 0 1700 basechar 0
AnchorPoint: "Anchor-10" 1126 1700 basechar 0
AnchorPoint: "Anchor-9" 730 0 basechar 0
AnchorPoint: "Anchor-6" 1126 -350 basechar 0
AnchorPoint: "Anchor-5" 1126 1700 basechar 0
AnchorPoint: "Anchor-2" 563 -180 basechar 0
AnchorPoint: "Anchor-1" 1082 1397 basechar 0
AnchorPoint: "Anchor-0" 563 1397 basechar 0
LayerCount: 2
Fore
SplineSet
428 168 m 1,0,1
 457 152 457 152 491 143.5 c 128,-1,2
 525 135 525 135 563 135 c 0,3,4
 609 135 609 135 648.5 148.5 c 128,-1,5
 688 162 688 162 720 191.5 c 128,-1,6
 752 221 752 221 775 267.5 c 128,-1,7
 798 314 798 314 811 379 c 2,8,-1
 995 1307 l 1,9,-1
 1174 1307 l 1,10,-1
 983 354 l 2,11,12
 949 180 949 180 842 84 c 128,-1,13
 735 -12 735 -12 563 -12 c 0,14,15
 497 -12 497 -12 446.5 -1.5 c 128,-1,16
 396 9 396 9 352 31 c 1,17,-1
 428 168 l 1,0,1
186 0 m 1,18,-1
 8 0 l 1,19,-1
 268 1307 l 1,20,-1
 446 1307 l 1,21,-1
 186 0 l 1,18,-1
EndSplineSet
EndChar

StartChar: Lslash
Encoding: 321 321 80
Width: 1126
GlyphClass: 2
Flags: W
AnchorPoint: "Anchor-11" 0 1700 basechar 0
AnchorPoint: "Anchor-10" 1126 1700 basechar 0
AnchorPoint: "Anchor-9" 920 0 basechar 0
AnchorPoint: "Anchor-6" 1126 -350 basechar 0
AnchorPoint: "Anchor-5" 1126 1700 basechar 0
AnchorPoint: "Anchor-2" 583 -180 basechar 0
AnchorPoint: "Anchor-1" 985 1390 basechar 0
AnchorPoint: "Anchor-0" 583 1430 basechar 0
LayerCount: 2
Fore
SplineSet
361 152 m 1,0,-1
 913 152 l 1,1,-1
 883 0 l 1,2,-1
 152 0 l 1,3,-1
 272 602 l 1,4,-1
 57 502 l 1,5,-1
 57 649 l 1,6,-1
 305 764 l 1,7,-1
 414 1307 l 1,8,-1
 592 1307 l 1,9,-1
 502 854 l 1,10,-1
 881 1028 l 1,11,-1
 881 881 l 1,12,-1
 469 692 l 1,13,-1
 361 152 l 1,0,-1
EndSplineSet
EndChar

StartChar: Eng
Encoding: 330 330 86
Width: 1126
GlyphClass: 2
Flags: W
AnchorPoint: "Anchor-11" 0 1700 basechar 0
AnchorPoint: "Anchor-10" 1126 1700 basechar 0
AnchorPoint: "Anchor-9" 750 -350 basechar 0
AnchorPoint: "Anchor-6" 1126 -350 basechar 0
AnchorPoint: "Anchor-5" 1126 1700 basechar 0
AnchorPoint: "Anchor-2" 563 -510 basechar 0
AnchorPoint: "Anchor-1" 1058 1390 basechar 0
AnchorPoint: "Anchor-0" 563 1430 basechar 0
LayerCount: 2
Fore
SplineSet
473 821 m 1,0,-1
 397 1077 l 1,1,-1
 182 0 l 1,2,-1
 16 0 l 1,3,-1
 276 1307 l 1,4,-1
 494 1307 l 1,5,-1
 741 555 l 1,6,-1
 807 336 l 1,7,-1
 999 1307 l 1,8,-1
 1165 1307 l 1,9,-1
 905 8 l 2,10,11
 863 -203 863 -203 737.5 -311.5 c 128,-1,12
 612 -420 612 -420 416 -420 c 1,13,-1
 449 -270 l 1,14,15
 557 -270 557 -270 630.5 -199 c 128,-1,16
 704 -128 704 -128 733 12 c 1,17,-1
 473 821 l 1,0,-1
EndSplineSet
Substitution2: "'ss03' Style Set 3 lookup 27 subtable" Eng.ss03
Substitution2: "'ss02' Style Set 2 lookup 25 subtable" Eng.ss02
Substitution2: "'ss01' Style Set 1 lookup 23 subtable" Eng.ss01
EndChar

StartChar: Oslash
Encoding: 216 216 95
Width: 1126
GlyphClass: 2
Flags: W
AnchorPoint: "Anchor-11" 0 1700 basechar 0
AnchorPoint: "Anchor-10" 1126 1700 basechar 0
AnchorPoint: "Anchor-9" 690 0 basechar 0
AnchorPoint: "Anchor-6" 1126 -350 basechar 0
AnchorPoint: "Anchor-5" 1126 1700 basechar 0
AnchorPoint: "Anchor-2" 563 -305 basechar 0
AnchorPoint: "Anchor-1" 1135 1612 basechar 0
AnchorPoint: "Anchor-0" 563 1612 basechar 0
LayerCount: 2
Fore
SplineSet
465 -18 m 0,0,1
 430 -18 430 -18 398.5 -14 c 128,-1,2
 367 -10 367 -10 338 -4 c 1,3,-1
 233 -215 l 1,4,-1
 80 -215 l 1,5,-1
 213 51 l 1,6,7
 61 163 61 163 61 422 c 0,8,9
 61 523 61 523 78.5 629.5 c 128,-1,10
 96 736 96 736 132 836 c 128,-1,11
 168 936 168 936 222.5 1025 c 128,-1,12
 277 1114 277 1114 350.5 1180.5 c 128,-1,13
 424 1247 424 1247 516.5 1286 c 128,-1,14
 609 1325 609 1325 721 1325 c 0,15,16
 755 1325 755 1325 785.5 1322 c 128,-1,17
 816 1319 816 1319 844 1311 c 1,18,-1
 948 1522 l 1,19,-1
 1102 1522 l 1,20,-1
 969 1255 l 1,21,22
 1046 1201 1046 1201 1085 1108 c 128,-1,23
 1124 1015 1124 1015 1124 885 c 0,24,25
 1124 784 1124 784 1106.5 677.5 c 128,-1,26
 1089 571 1089 571 1053 470.5 c 128,-1,27
 1017 370 1017 370 962.5 281 c 128,-1,28
 908 192 908 192 835 125.5 c 128,-1,29
 762 59 762 59 669.5 20.5 c 128,-1,30
 577 -18 577 -18 465 -18 c 0,0,1
942 872 m 0,31,32
 942 941 942 941 929 996 c 128,-1,33
 916 1051 916 1051 887 1090 c 1,34,-1
 414 143 l 1,35,36
 444 137 444 137 485 137 c 0,37,38
 566 137 566 137 632 173.5 c 128,-1,39
 698 210 698 210 748.5 270.5 c 128,-1,40
 799 331 799 331 835.5 408.5 c 128,-1,41
 872 486 872 486 896 567.5 c 128,-1,42
 920 649 920 649 931 728.5 c 128,-1,43
 942 808 942 808 942 872 c 0,31,32
244 434 m 0,44,45
 244 366 244 366 255.5 311.5 c 128,-1,46
 267 257 267 257 295 219 c 1,47,-1
 768 1163 l 1,48,49
 738 1169 738 1169 700 1169 c 0,50,51
 619 1169 619 1169 553.5 1132.5 c 128,-1,52
 488 1096 488 1096 437.5 1035.5 c 128,-1,53
 387 975 387 975 350.5 897.5 c 128,-1,54
 314 820 314 820 290 738.5 c 128,-1,55
 266 657 266 657 255 577.5 c 128,-1,56
 244 498 244 498 244 434 c 0,44,45
EndSplineSet
EndChar

StartChar: OE
Encoding: 338 338 97
Width: 1126
GlyphClass: 2
Flags: W
AnchorPoint: "Anchor-11" 0 1700 basechar 0
AnchorPoint: "Anchor-10" 1126 1700 basechar 0
AnchorPoint: "Anchor-9" 1040 0 basechar 0
AnchorPoint: "Anchor-6" 1126 -350 basechar 0
AnchorPoint: "Anchor-5" 1126 1700 basechar 0
AnchorPoint: "Anchor-2" 683 -180 basechar 0
AnchorPoint: "Anchor-1" 1160 1390 basechar 0
AnchorPoint: "Anchor-0" 683 1430 basechar 0
LayerCount: 2
Fore
SplineSet
991 0 m 1,0,-1
 627 0 l 2,1,2
 590 0 590 0 560.5 -2 c 128,-1,3
 531 -4 531 -4 506 -7 c 128,-1,4
 481 -10 481 -10 459 -12 c 128,-1,5
 437 -14 437 -14 416 -14 c 0,6,7
 222 -14 222 -14 127.5 97 c 128,-1,8
 33 208 33 208 33 414 c 0,9,10
 33 497 33 497 47.5 597 c 128,-1,11
 62 697 62 697 93 797.5 c 128,-1,12
 124 898 124 898 173.5 992.5 c 128,-1,13
 223 1087 223 1087 293 1160 c 128,-1,14
 363 1233 363 1233 454.5 1277 c 128,-1,15
 546 1321 546 1321 662 1321 c 0,16,17
 686 1321 686 1321 716.5 1319 c 128,-1,18
 747 1317 747 1317 777 1314 c 128,-1,19
 807 1311 807 1311 833 1309 c 128,-1,20
 859 1307 859 1307 874 1307 c 2,21,-1
 1253 1307 l 1,22,-1
 1223 1161 l 1,23,-1
 893 1161 l 1,24,-1
 811 750 l 1,25,-1
 1120 750 l 1,26,-1
 1092 604 l 1,27,-1
 782 604 l 1,28,-1
 690 147 l 1,29,-1
 1020 147 l 1,30,-1
 991 0 l 1,0,-1
723 1165 m 1,31,32
 709 1168 709 1168 688.5 1171 c 128,-1,33
 668 1174 668 1174 643 1174 c 0,34,35
 561 1174 561 1174 497 1133 c 128,-1,36
 433 1092 433 1092 385 1025.5 c 128,-1,37
 337 959 337 959 304 876.5 c 128,-1,38
 271 794 271 794 250 710.5 c 128,-1,39
 229 627 229 627 220 551.5 c 128,-1,40
 211 476 211 476 211 424 c 0,41,42
 211 133 211 133 440 133 c 0,43,44
 460 133 460 133 478 135.5 c 128,-1,45
 496 138 496 138 518 143 c 1,46,-1
 723 1165 l 1,31,32
EndSplineSet
EndChar

StartChar: Thorn
Encoding: 222 222 98
Width: 1126
GlyphClass: 2
Flags: W
AnchorPoint: "Anchor-11" 0 1700 basechar 0
AnchorPoint: "Anchor-10" 1126 1700 basechar 0
AnchorPoint: "Anchor-9" 270 0 basechar 0
AnchorPoint: "Anchor-6" 1126 -350 basechar 0
AnchorPoint: "Anchor-5" 1126 1700 basechar 0
AnchorPoint: "Anchor-2" 563 -180 basechar 0
AnchorPoint: "Anchor-1" 1016 1307 basechar 0
AnchorPoint: "Anchor-0" 563 1397 basechar 0
LayerCount: 2
Fore
SplineSet
494 1307 m 1,0,-1
 455 1112 l 1,1,-1
 629 1112 l 2,2,3
 720 1112 720 1112 799 1092.5 c 128,-1,4
 878 1073 878 1073 936 1032.5 c 128,-1,5
 994 992 994 992 1027.5 929.5 c 128,-1,6
 1061 867 1061 867 1061 782 c 0,7,8
 1061 733 1061 733 1047 675.5 c 128,-1,9
 1033 618 1033 618 1003.5 559 c 128,-1,10
 974 500 974 500 926.5 445 c 128,-1,11
 879 390 879 390 812 347.5 c 128,-1,12
 745 305 745 305 656.5 279.5 c 128,-1,13
 568 254 568 254 457 254 c 2,14,-1
 283 254 l 1,15,-1
 233 0 l 1,16,-1
 55 0 l 1,17,-1
 315 1307 l 1,18,-1
 494 1307 l 1,0,-1
874 758 m 0,19,20
 874 858 874 858 810.5 910.5 c 128,-1,21
 747 963 747 963 612 963 c 2,22,-1
 426 963 l 1,23,-1
 313 403 l 1,24,-1
 473 403 l 2,25,26
 553 403 553 403 614 421 c 128,-1,27
 675 439 675 439 719.5 468 c 128,-1,28
 764 497 764 497 793.5 534.5 c 128,-1,29
 823 572 823 572 841 611.5 c 128,-1,30
 859 651 859 651 866.5 689 c 128,-1,31
 874 727 874 727 874 758 c 0,19,20
EndSplineSet
EndChar

StartChar: Scedilla
Encoding: 350 350 105
Width: 1126
GlyphClass: 2
Flags: W
AnchorPoint: "Anchor-11" 0 1700 basechar 0
AnchorPoint: "Anchor-10" 1126 1700 basechar 0
AnchorPoint: "Anchor-9" 440 -295 basechar 0
AnchorPoint: "Anchor-6" 1126 -350 basechar 0
AnchorPoint: "Anchor-5" 1126 1700 basechar 0
AnchorPoint: "Anchor-2" 563 -385 basechar 0
AnchorPoint: "Anchor-1" 967 1390 basechar 0
AnchorPoint: "Anchor-0" 563 1430 basechar 0
LayerCount: 2
Fore
SplineSet
525 -9 m 1,0,-1
 385 -295 l 1,1,-1
 233 -295 l 1,2,-1
 351 -17 l 1,3,4
 314 -17 314 -17 270.5 -14 c 128,-1,5
 227 -11 227 -11 178.5 -4.5 c 128,-1,6
 130 2 130 2 87.5 10 c 128,-1,7
 45 18 45 18 14 27 c 1,8,-1
 47 199 l 1,9,10
 118 171 118 171 208.5 155 c 128,-1,11
 299 139 299 139 418 139 c 0,12,13
 515 139 515 139 583 157 c 128,-1,14
 651 175 651 175 694 206 c 128,-1,15
 737 237 737 237 756.5 279 c 128,-1,16
 776 321 776 321 776 369 c 0,17,18
 776 415 776 415 752 448.5 c 128,-1,19
 728 482 728 482 689 510 c 128,-1,20
 650 538 650 538 600 561.5 c 128,-1,21
 550 585 550 585 497.5 610 c 128,-1,22
 445 635 445 635 395 664 c 128,-1,23
 345 693 345 693 306 730.5 c 128,-1,24
 267 768 267 768 243 818 c 128,-1,25
 219 868 219 868 219 934 c 0,26,27
 219 1010 219 1010 254.5 1080.5 c 128,-1,28
 290 1151 290 1151 359.5 1205.5 c 128,-1,29
 429 1260 429 1260 530.5 1292.5 c 128,-1,30
 632 1325 632 1325 764 1325 c 0,31,32
 797 1325 797 1325 837 1322 c 128,-1,33
 877 1319 877 1319 918 1313.5 c 128,-1,34
 959 1308 959 1308 998 1301 c 128,-1,35
 1037 1294 1037 1294 1069 1286 c 1,36,-1
 1036 1126 l 1,37,38
 964 1148 964 1148 888.5 1159.5 c 128,-1,39
 813 1171 813 1171 741 1171 c 0,40,41
 654 1171 654 1171 591 1154.5 c 128,-1,42
 528 1138 528 1138 487 1109 c 128,-1,43
 446 1080 446 1080 426 1040.5 c 128,-1,44
 406 1001 406 1001 406 956 c 256,45,46
 406 911 406 911 430 877.5 c 128,-1,47
 454 844 454 844 493.5 817 c 128,-1,48
 533 790 533 790 583 766.5 c 128,-1,49
 633 743 633 743 685.5 718 c 128,-1,50
 738 693 738 693 788 664 c 128,-1,51
 838 635 838 635 877.5 596.5 c 128,-1,52
 917 558 917 558 941 507.5 c 128,-1,53
 965 457 965 457 965 389 c 0,54,55
 965 303 965 303 924 221 c 128,-1,56
 883 139 883 139 779.5 75.5 c 128,-1,57
 676 12 676 12 525 -9 c 1,0,-1
EndSplineSet
Substitution2: "'salt' Stylistic Alternatives in Latin lookup 0 subtable" uni0218
EndChar

StartChar: Tbar
Encoding: 358 358 109
Width: 1126
GlyphClass: 2
Flags: W
AnchorPoint: "Anchor-11" 0 1700 basechar 0
AnchorPoint: "Anchor-10" 1126 1700 basechar 0
AnchorPoint: "Anchor-9" 590 0 basechar 0
AnchorPoint: "Anchor-6" 1126 -350 basechar 0
AnchorPoint: "Anchor-5" 1126 1700 basechar 0
AnchorPoint: "Anchor-2" 563 -180 basechar 0
AnchorPoint: "Anchor-1" 1106 1397 basechar 0
AnchorPoint: "Anchor-0" 563 1430 basechar 0
LayerCount: 2
Fore
SplineSet
666 582 m 1,0,-1
 551 0 l 1,1,-1
 371 0 l 1,2,-1
 487 582 l 1,3,-1
 219 582 l 1,4,-1
 250 731 l 1,5,-1
 516 731 l 1,6,-1
 602 1155 l 1,7,-1
 214 1155 l 1,8,-1
 245 1307 l 1,9,-1
 1199 1307 l 1,10,-1
 1169 1155 l 1,11,-1
 782 1155 l 1,12,-1
 697 731 l 1,13,-1
 964 731 l 1,14,-1
 933 582 l 1,15,-1
 666 582 l 1,0,-1
EndSplineSet
EndChar

StartChar: Uogonek
Encoding: 370 370 119
Width: 1126
GlyphClass: 2
Flags: W
AnchorPoint: "Anchor-11" 0 1700 basechar 0
AnchorPoint: "Anchor-10" 1126 1700 basechar 0
AnchorPoint: "Anchor-9" 640 -385 basechar 0
AnchorPoint: "Anchor-6" 1126 -350 basechar 0
AnchorPoint: "Anchor-5" 1126 1700 basechar 0
AnchorPoint: "Anchor-2" 563 -475 basechar 0
AnchorPoint: "Anchor-1" 1068 1390 basechar 0
AnchorPoint: "Anchor-0" 563 1430 basechar 0
LayerCount: 2
Fore
SplineSet
605 -375 m 1,0,1
 580 -380 580 -380 548.5 -382.5 c 128,-1,2
 517 -385 517 -385 493 -385 c 0,3,4
 439 -385 439 -385 400 -373.5 c 128,-1,5
 361 -362 361 -362 336.5 -342.5 c 128,-1,6
 312 -323 312 -323 300 -297 c 128,-1,7
 288 -271 288 -271 288 -242 c 0,8,9
 288 -218 288 -218 293.5 -194 c 128,-1,10
 299 -170 299 -170 315 -143 c 128,-1,11
 331 -116 331 -116 358 -85.5 c 128,-1,12
 385 -55 385 -55 429 -17 c 1,13,14
 318 -12 318 -12 244.5 22 c 128,-1,15
 171 56 171 56 130.5 114 c 128,-1,16
 90 172 90 172 81.5 251.5 c 128,-1,17
 73 331 73 331 92 428 c 2,18,-1
 268 1307 l 1,19,-1
 446 1307 l 1,20,-1
 272 442 l 2,21,22
 257 365 257 365 259 307 c 128,-1,23
 261 249 261 249 285 210 c 128,-1,24
 309 171 309 171 357 151 c 128,-1,25
 405 131 405 131 481 131 c 0,26,27
 623 131 623 131 709.5 213 c 128,-1,28
 796 295 796 295 825 444 c 2,29,-1
 999 1307 l 1,30,-1
 1178 1307 l 1,31,-1
 1006 455 l 2,32,33
 988 366 988 366 954 291 c 128,-1,34
 920 216 920 216 870.5 158 c 128,-1,35
 821 100 821 100 757 59.5 c 128,-1,36
 693 19 693 19 614 0 c 1,37,38
 564 -43 564 -43 533.5 -74.5 c 128,-1,39
 503 -106 503 -106 485.5 -130.5 c 128,-1,40
 468 -155 468 -155 462 -175 c 128,-1,41
 456 -195 456 -195 456 -215 c 256,42,43
 456 -235 456 -235 472.5 -250.5 c 128,-1,44
 489 -266 489 -266 536 -266 c 0,45,46
 550 -266 550 -266 569 -265 c 128,-1,47
 588 -264 588 -264 605 -262 c 1,48,-1
 605 -375 l 1,0,1
EndSplineSet
EndChar

StartChar: a
Encoding: 97 97 131
Width: 1126
GlyphClass: 2
Flags: W
AnchorPoint: "Anchor-11" 0 1700 basechar 0
AnchorPoint: "Anchor-10" 1126 1700 basechar 0
AnchorPoint: "Anchor-9" 950 0 basechar 0
AnchorPoint: "Anchor-8" 500 0 basechar 0
AnchorPoint: "Anchor-7" 800 990 basechar 0
AnchorPoint: "Anchor-6" 1126 -350 basechar 0
AnchorPoint: "Anchor-5" 1126 1700 basechar 0
AnchorPoint: "Anchor-4" 820 990 basechar 0
AnchorPoint: "Anchor-2" 563 -180 basechar 0
AnchorPoint: "Anchor-1" 961 1160 basechar 0
AnchorPoint: "Anchor-0" 563 1200 basechar 0
LayerCount: 2
Fore
SplineSet
668 1016 m 0,0,1
 733 1016 733 1016 792 1007.5 c 128,-1,2
 851 999 851 999 905 983 c 1,3,-1
 1063 1022 l 1,4,-1
 950 461 l 2,5,6
 946 442 946 442 941.5 411 c 128,-1,7
 937 380 937 380 931 327.5 c 128,-1,8
 925 275 925 275 916 195.5 c 128,-1,9
 907 116 907 116 895 0 c 1,10,-1
 731 0 l 1,11,-1
 756 231 l 1,12,13
 687 111 687 111 588.5 46.5 c 128,-1,14
 490 -18 490 -18 375 -18 c 0,15,16
 303 -18 303 -18 249.5 6 c 128,-1,17
 196 30 196 30 161 74.5 c 128,-1,18
 126 119 126 119 109 181 c 128,-1,19
 92 243 92 243 92 319 c 0,20,21
 92 463 92 463 129.5 589.5 c 128,-1,22
 167 716 167 716 240 811 c 128,-1,23
 313 906 313 906 420.5 961 c 128,-1,24
 528 1016 528 1016 668 1016 c 0,0,1
268 336 m 0,25,26
 268 241 268 241 301 187 c 128,-1,27
 334 133 334 133 408 133 c 0,28,29
 451 133 451 133 494 153 c 128,-1,30
 537 173 537 173 578 208 c 128,-1,31
 619 243 619 243 655.5 290.5 c 128,-1,32
 692 338 692 338 722.5 392.5 c 128,-1,33
 753 447 753 447 775 506.5 c 128,-1,34
 797 566 797 566 809 625 c 2,35,-1
 850 831 l 1,36,37
 803 851 803 851 753.5 862.5 c 128,-1,38
 704 874 704 874 662 874 c 0,39,40
 580 874 580 874 519 846 c 128,-1,41
 458 818 458 818 414 773 c 128,-1,42
 370 728 370 728 342 670.5 c 128,-1,43
 314 613 314 613 297.5 553 c 128,-1,44
 281 493 281 493 274.5 436 c 128,-1,45
 268 379 268 379 268 336 c 0,25,26
EndSplineSet
Substitution2: "'ordn' Ordinals in Latin lookup 20 subtable" uni1D43
Substitution2: "'sups' Superscript lookup 15 subtable" a.superior
Substitution2: "'locl' Localized Forms in Latin lookup 1 subtable" a.locl
EndChar

StartChar: b
Encoding: 98 98 132
Width: 1126
GlyphClass: 2
Flags: W
AnchorPoint: "Anchor-11" 0 1700 basechar 0
AnchorPoint: "Anchor-10" 1126 1700 basechar 0
AnchorPoint: "Anchor-9" 620 0 basechar 0
AnchorPoint: "Anchor-7" 750 970 basechar 0
AnchorPoint: "Anchor-6" 1126 -350 basechar 0
AnchorPoint: "Anchor-5" 1126 1700 basechar 0
AnchorPoint: "Anchor-4" 800 950 basechar 0
AnchorPoint: "Anchor-2" 563 -180 basechar 0
AnchorPoint: "Anchor-1" 938 1400 basechar 0
AnchorPoint: "Anchor-0" 563 1500 basechar 0
LayerCount: 2
Fore
SplineSet
449 -12 m 0,0,1
 339 -12 339 -12 247 10 c 128,-1,2
 155 32 155 32 72 70 c 1,3,-1
 340 1413 l 1,4,-1
 514 1413 l 1,5,-1
 436 1024 l 1,6,-1
 371 782 l 1,7,8
 402 838 402 838 442 882.5 c 128,-1,9
 482 927 482 927 529.5 958 c 128,-1,10
 577 989 577 989 630.5 1005.5 c 128,-1,11
 684 1022 684 1022 741 1022 c 0,12,13
 813 1022 813 1022 866.5 997.5 c 128,-1,14
 920 973 920 973 955 929 c 128,-1,15
 990 885 990 885 1007 822.5 c 128,-1,16
 1024 760 1024 760 1024 684 c 0,17,18
 1024 540 1024 540 986.5 413.5 c 128,-1,19
 949 287 949 287 876 192.5 c 128,-1,20
 803 98 803 98 695.5 43 c 128,-1,21
 588 -12 588 -12 449 -12 c 0,0,1
848 668 m 0,22,23
 848 764 848 764 815.5 817 c 128,-1,24
 783 870 783 870 709 870 c 0,25,26
 666 870 666 870 623 850 c 128,-1,27
 580 830 580 830 539 795 c 128,-1,28
 498 760 498 760 461.5 713 c 128,-1,29
 425 666 425 666 394.5 612.5 c 128,-1,30
 364 559 364 559 342 502 c 128,-1,31
 320 445 320 445 309 389 c 2,32,-1
 266 172 l 1,33,34
 313 152 313 152 363 140.5 c 128,-1,35
 413 129 413 129 455 129 c 0,36,37
 537 129 537 129 598 157 c 128,-1,38
 659 185 659 185 702.5 230 c 128,-1,39
 746 275 746 275 774 333 c 128,-1,40
 802 391 802 391 818.5 451 c 128,-1,41
 835 511 835 511 841.5 567.5 c 128,-1,42
 848 624 848 624 848 668 c 0,22,23
EndSplineSet
Substitution2: "'ordn' Ordinals in Latin lookup 20 subtable" uni1D47
Substitution2: "'sups' Superscript lookup 15 subtable" b.superior
EndChar

StartChar: c
Encoding: 99 99 133
Width: 1126
GlyphClass: 2
Flags: W
AnchorPoint: "Anchor-11" 0 1700 basechar 0
AnchorPoint: "Anchor-10" 1126 1700 basechar 0
AnchorPoint: "Anchor-9" 780 0 basechar 0
AnchorPoint: "Anchor-8" 640 0 basechar 0
AnchorPoint: "Anchor-7" 800 970 basechar 0
AnchorPoint: "Anchor-6" 1126 -350 basechar 0
AnchorPoint: "Anchor-5" 1126 1700 basechar 0
AnchorPoint: "Anchor-4" 800 970 basechar 0
AnchorPoint: "Anchor-2" 623 -180 basechar 0
AnchorPoint: "Anchor-1" 990 1160 basechar 0
AnchorPoint: "Anchor-0" 623 1200 basechar 0
LayerCount: 2
Fore
SplineSet
860 41 m 1,0,1
 776 12 776 12 704 -1 c 128,-1,2
 632 -14 632 -14 557 -14 c 0,3,4
 357 -14 357 -14 249 78.5 c 128,-1,5
 141 171 141 171 141 356 c 0,6,7
 141 508 141 508 189 630.5 c 128,-1,8
 237 753 237 753 320 839 c 128,-1,9
 403 925 403 925 514 971.5 c 128,-1,10
 625 1018 625 1018 750 1018 c 0,11,12
 822 1018 822 1018 894.5 1007 c 128,-1,13
 967 996 967 996 1032 971 c 1,14,-1
 1001 813 l 1,15,16
 946 839 946 839 876 854.5 c 128,-1,17
 806 870 806 870 741 870 c 0,18,19
 640 870 640 870 562.5 828 c 128,-1,20
 485 786 485 786 432 716.5 c 128,-1,21
 379 647 379 647 351.5 558.5 c 128,-1,22
 324 470 324 470 324 377 c 0,23,24
 324 255 324 255 390 194 c 128,-1,25
 456 133 456 133 584 133 c 0,26,27
 650 133 650 133 722.5 147 c 128,-1,28
 795 161 795 161 860 188 c 1,29,-1
 860 41 l 1,0,1
EndSplineSet
Substitution2: "'ordn' Ordinals in Latin lookup 20 subtable" uni1D9C
Substitution2: "'sups' Superscript lookup 15 subtable" c.superior
EndChar

StartChar: d
Encoding: 100 100 134
Width: 1126
GlyphClass: 2
Flags: W
AnchorPoint: "Anchor-11" 0 1700 basechar 0
AnchorPoint: "Anchor-10" 1126 1700 basechar 0
AnchorPoint: "Anchor-9" 950 0 basechar 0
AnchorPoint: "Anchor-7" 880 1413 basechar 0
AnchorPoint: "Anchor-6" 1126 -350 basechar 0
AnchorPoint: "Anchor-5" 1126 1700 basechar 0
AnchorPoint: "Anchor-4" 900 1413 basechar 0
AnchorPoint: "Anchor-2" 563 -180 basechar 0
AnchorPoint: "Anchor-1" 1011 1500 basechar 0
AnchorPoint: "Anchor-0" 563 1500 basechar 0
LayerCount: 2
Fore
SplineSet
668 1016 m 0,0,1
 740 1016 740 1016 789.5 1010 c 128,-1,2
 839 1004 839 1004 883 991 c 1,3,-1
 967 1413 l 1,4,-1
 1141 1413 l 1,5,-1
 950 461 l 2,6,7
 946 442 946 442 941.5 411 c 128,-1,8
 937 380 937 380 931 327.5 c 128,-1,9
 925 275 925 275 916 195.5 c 128,-1,10
 907 116 907 116 895 0 c 1,11,-1
 731 0 l 1,12,-1
 756 231 l 1,13,14
 687 111 687 111 588.5 46.5 c 128,-1,15
 490 -18 490 -18 375 -18 c 0,16,17
 303 -18 303 -18 249.5 6 c 128,-1,18
 196 30 196 30 161 74.5 c 128,-1,19
 126 119 126 119 109 181 c 128,-1,20
 92 243 92 243 92 319 c 0,21,22
 92 463 92 463 129.5 589.5 c 128,-1,23
 167 716 167 716 240 811 c 128,-1,24
 313 906 313 906 420.5 961 c 128,-1,25
 528 1016 528 1016 668 1016 c 0,0,1
268 336 m 0,26,27
 268 241 268 241 301 187 c 128,-1,28
 334 133 334 133 408 133 c 0,29,30
 451 133 451 133 494 153 c 128,-1,31
 537 173 537 173 578 208 c 128,-1,32
 619 243 619 243 655.5 290.5 c 128,-1,33
 692 338 692 338 722.5 392.5 c 128,-1,34
 753 447 753 447 775 506.5 c 128,-1,35
 797 566 797 566 809 625 c 2,36,-1
 850 831 l 1,37,38
 803 851 803 851 753.5 862.5 c 128,-1,39
 704 874 704 874 662 874 c 0,40,41
 580 874 580 874 519 846 c 128,-1,42
 458 818 458 818 414 773 c 128,-1,43
 370 728 370 728 342 670.5 c 128,-1,44
 314 613 314 613 297.5 553 c 128,-1,45
 281 493 281 493 274.5 436 c 128,-1,46
 268 379 268 379 268 336 c 0,26,27
EndSplineSet
Substitution2: "'ordn' Ordinals in Latin lookup 20 subtable" uni1D48
Substitution2: "'sups' Superscript lookup 15 subtable" d.superior
EndChar

StartChar: e
Encoding: 101 101 135
Width: 1126
GlyphClass: 2
Flags: W
AnchorPoint: "Anchor-11" 0 1700 basechar 0
AnchorPoint: "Anchor-10" 1126 1700 basechar 0
AnchorPoint: "Anchor-9" 780 0 basechar 0
AnchorPoint: "Anchor-8" 640 0 basechar 0
AnchorPoint: "Anchor-7" 740 970 basechar 0
AnchorPoint: "Anchor-6" 1126 -350 basechar 0
AnchorPoint: "Anchor-5" 1126 1700 basechar 0
AnchorPoint: "Anchor-4" 810 930 basechar 0
AnchorPoint: "Anchor-2" 563 -180 basechar 0
AnchorPoint: "Anchor-1" 1008 1160 basechar 0
AnchorPoint: "Anchor-0" 563 1200 basechar 0
LayerCount: 2
Fore
SplineSet
289 446 m 1,0,1
 284 420 284 420 281.5 397 c 128,-1,2
 279 374 279 374 279 352 c 0,3,4
 279 243 279 243 344 185 c 128,-1,5
 409 127 409 127 545 127 c 0,6,7
 633 127 633 127 719.5 140 c 128,-1,8
 806 153 806 153 874 170 c 1,9,-1
 874 27 l 1,10,11
 799 7 799 7 705.5 -5.5 c 128,-1,12
 612 -18 612 -18 516 -18 c 0,13,14
 304 -18 304 -18 203 76.5 c 128,-1,15
 102 171 102 171 102 350 c 0,16,17
 102 488 102 488 145 610 c 128,-1,18
 188 732 188 732 264 823.5 c 128,-1,19
 340 915 340 915 444.5 968.5 c 128,-1,20
 549 1022 549 1022 672 1022 c 0,21,22
 757 1022 757 1022 823.5 1002 c 128,-1,23
 890 982 890 982 936 947 c 128,-1,24
 982 912 982 912 1006 864.5 c 128,-1,25
 1030 817 1030 817 1030 762 c 0,26,27
 1030 690 1030 690 999.5 632 c 128,-1,28
 969 574 969 574 902.5 532.5 c 128,-1,29
 836 491 836 491 731 468.5 c 128,-1,30
 626 446 626 446 477 446 c 2,31,-1
 289 446 l 1,0,1
475 580 m 2,32,33
 586 580 586 580 658.5 593.5 c 128,-1,34
 731 607 731 607 773.5 630 c 128,-1,35
 816 653 816 653 833 683 c 128,-1,36
 850 713 850 713 850 745 c 0,37,38
 850 773 850 773 839 798 c 128,-1,39
 828 823 828 823 804.5 842 c 128,-1,40
 781 861 781 861 745.5 872 c 128,-1,41
 710 883 710 883 662 883 c 0,42,43
 597 883 597 883 543.5 861.5 c 128,-1,44
 490 840 490 840 447 800.5 c 128,-1,45
 404 761 404 761 371 705 c 128,-1,46
 338 649 338 649 315 580 c 1,47,-1
 475 580 l 2,32,33
EndSplineSet
Substitution2: "'ordn' Ordinals in Latin lookup 20 subtable" uni1D49
Substitution2: "'sups' Superscript lookup 15 subtable" e.superior
EndChar

StartChar: f
Encoding: 102 102 136
Width: 1126
GlyphClass: 2
Flags: W
AnchorPoint: "Anchor-11" 0 1700 basechar 0
AnchorPoint: "Anchor-10" 1126 1700 basechar 0
AnchorPoint: "Anchor-9" 400 -300 basechar 0
AnchorPoint: "Anchor-7" 950 1413 basechar 0
AnchorPoint: "Anchor-6" 1126 -350 basechar 0
AnchorPoint: "Anchor-5" 1126 1700 basechar 0
AnchorPoint: "Anchor-4" 990 1413 basechar 0
AnchorPoint: "Anchor-2" 493 -480 basechar 0
AnchorPoint: "Anchor-1" 1101 1500 basechar 0
AnchorPoint: "Anchor-0" 663 1500 basechar 0
LayerCount: 2
Fore
SplineSet
473 -18 m 2,0,1
 452 -122 452 -122 414 -197.5 c 128,-1,2
 376 -273 376 -273 317.5 -322.5 c 128,-1,3
 259 -372 259 -372 178.5 -396 c 128,-1,4
 98 -420 98 -420 -8 -420 c 0,5,6
 -28 -420 -28 -420 -56 -419 c 128,-1,7
 -84 -418 -84 -418 -104 -416 c 1,8,-1
 -76 -266 l 1,9,10
 -30 -272 -30 -272 10 -272 c 0,11,12
 129 -272 129 -272 200 -211 c 128,-1,13
 271 -150 271 -150 297 -18 c 2,14,-1
 444 713 l 1,15,-1
 121 713 l 1,16,-1
 150 858 l 1,17,-1
 473 858 l 1,18,-1
 506 1024 l 2,19,20
 546 1223 546 1223 662 1324 c 128,-1,21
 778 1425 778 1425 987 1425 c 0,22,23
 1040 1425 1040 1425 1103.5 1419 c 128,-1,24
 1167 1413 1167 1413 1229 1401 c 1,25,-1
 1198 1253 l 1,26,27
 1141 1266 1141 1266 1083.5 1273 c 128,-1,28
 1026 1280 1026 1280 969 1280 c 0,29,30
 850 1280 850 1280 779 1216 c 128,-1,31
 708 1152 708 1152 682 1024 c 2,32,-1
 649 858 l 1,33,-1
 1090 858 l 1,34,-1
 1061 713 l 1,35,-1
 621 713 l 1,36,-1
 473 -18 l 2,0,1
0 1004 m 1024,37,-1
EndSplineSet
AlternateSubs2: "'ss06' Style Set 6 lookup 30 subtable" f.ss05
Substitution2: "'ss05' Style Set 5 lookup 29 subtable" f.ss05
Substitution2: "'ss04' Style Set 4 lookup 28 subtable" f.ss04
AlternateSubs2: "'salt' Stylistic Alternatives lookup 22 subtable" f.ss04 f.ss05
Substitution2: "'ordn' Ordinals in Latin lookup 20 subtable" uni1DA0
Substitution2: "'sups' Superscript lookup 15 subtable" f.superior
EndChar

StartChar: g
Encoding: 103 103 137
Width: 1126
GlyphClass: 2
Flags: W
AnchorPoint: "Anchor-11" 0 1700 basechar 0
AnchorPoint: "Anchor-10" 1126 1700 basechar 0
AnchorPoint: "Anchor-9" 650 -385 basechar 0
AnchorPoint: "Anchor-8" 563 -400 basechar 0
AnchorPoint: "Anchor-7" 800 990 basechar 0
AnchorPoint: "Anchor-6" 1126 -350 basechar 0
AnchorPoint: "Anchor-5" 1126 1700 basechar 0
AnchorPoint: "Anchor-4" 820 1000 basechar 0
AnchorPoint: "Anchor-2" 563 -550 basechar 0
AnchorPoint: "Anchor-1" 1094 1160 basechar 0
AnchorPoint: "Anchor-0" 563 1200 basechar 0
LayerCount: 2
Fore
SplineSet
680 -20 m 0,0,1
 695 45 695 45 711.5 106 c 128,-1,2
 728 167 728 167 745 221 c 1,3,4
 715 165 715 165 674.5 120.5 c 128,-1,5
 634 76 634 76 587 45.5 c 128,-1,6
 540 15 540 15 486 -1.5 c 128,-1,7
 432 -18 432 -18 375 -18 c 0,8,9
 303 -18 303 -18 249.5 6 c 128,-1,10
 196 30 196 30 161 74.5 c 128,-1,11
 126 119 126 119 109 181 c 128,-1,12
 92 243 92 243 92 319 c 0,13,14
 92 463 92 463 129.5 589.5 c 128,-1,15
 167 716 167 716 240 811 c 128,-1,16
 313 906 313 906 420.5 961 c 128,-1,17
 528 1016 528 1016 668 1016 c 0,18,19
 733 1016 733 1016 792 1007.5 c 128,-1,20
 851 999 851 999 905 983 c 1,21,-1
 1063 1022 l 1,22,-1
 848 -53 l 2,23,24
 832 -134 832 -134 798.5 -201 c 128,-1,25
 765 -268 765 -268 708 -317 c 128,-1,26
 651 -366 651 -366 568 -393 c 128,-1,27
 485 -420 485 -420 376 -420 c 0,28,29
 259 -420 259 -420 173 -389 c 128,-1,30
 87 -358 87 -358 37 -322 c 1,31,-1
 125 -194 l 1,32,33
 182 -233 182 -233 247.5 -257 c 128,-1,34
 313 -281 313 -281 391 -281 c 256,35,36
 469 -281 469 -281 519 -259.5 c 128,-1,37
 569 -238 569 -238 600.5 -202 c 128,-1,38
 632 -166 632 -166 650 -119 c 128,-1,39
 668 -72 668 -72 680 -20 c 0,0,1
268 336 m 0,40,41
 268 241 268 241 301 187 c 128,-1,42
 334 133 334 133 408 133 c 0,43,44
 451 133 451 133 494 153 c 128,-1,45
 537 173 537 173 577.5 208 c 128,-1,46
 618 243 618 243 655 290 c 128,-1,47
 692 337 692 337 722 390.5 c 128,-1,48
 752 444 752 444 774 501 c 128,-1,49
 796 558 796 558 807 614 c 2,50,-1
 850 831 l 1,51,52
 803 851 803 851 753.5 862.5 c 128,-1,53
 704 874 704 874 662 874 c 0,54,55
 580 874 580 874 519 846 c 128,-1,56
 458 818 458 818 414 773 c 128,-1,57
 370 728 370 728 342 670.5 c 128,-1,58
 314 613 314 613 297.5 553 c 128,-1,59
 281 493 281 493 274.5 436 c 128,-1,60
 268 379 268 379 268 336 c 0,40,41
EndSplineSet
Substitution2: "'ordn' Ordinals in Latin lookup 20 subtable" uni1D4D
Substitution2: "'sups' Superscript lookup 15 subtable" g.superior
Substitution2: "'locl' Localized Forms in Latin lookup 1 subtable" g.locl
EndChar

StartChar: h
Encoding: 104 104 138
Width: 1126
GlyphClass: 2
Flags: W
AnchorPoint: "Anchor-11" 0 1700 basechar 0
AnchorPoint: "Anchor-10" 1126 1700 basechar 0
AnchorPoint: "Anchor-9" 900 0 basechar 0
AnchorPoint: "Anchor-7" 750 970 basechar 0
AnchorPoint: "Anchor-6" 1126 -350 basechar 0
AnchorPoint: "Anchor-5" 1126 1700 basechar 0
AnchorPoint: "Anchor-4" 790 950 basechar 0
AnchorPoint: "Anchor-2" 563 -180 basechar 0
AnchorPoint: "Anchor-1" 938 1400 basechar 0
AnchorPoint: "Anchor-0" 563 1500 basechar 0
LayerCount: 2
Fore
SplineSet
864 0 m 1,0,-1
 690 0 l 1,1,-1
 819 641 l 2,2,3
 844 763 844 763 815.5 817.5 c 128,-1,4
 787 872 787 872 707 872 c 0,5,6
 643 872 643 872 579.5 828 c 128,-1,7
 516 784 516 784 461 713.5 c 128,-1,8
 406 643 406 643 365.5 555 c 128,-1,9
 325 467 325 467 307 379 c 2,10,-1
 231 0 l 1,11,-1
 57 0 l 1,12,-1
 340 1413 l 1,13,-1
 514 1413 l 1,14,-1
 432 1004 l 1,15,-1
 377 791 l 1,16,17
 405 843 405 843 444 885.5 c 128,-1,18
 483 928 483 928 529.5 958.5 c 128,-1,19
 576 989 576 989 629 1005.5 c 128,-1,20
 682 1022 682 1022 739 1022 c 0,21,22
 898 1022 898 1022 964 926 c 128,-1,23
 1030 830 1030 830 993 643 c 2,24,-1
 864 0 l 1,0,-1
EndSplineSet
Substitution2: "'ordn' Ordinals in Latin lookup 20 subtable" uni02B0
Substitution2: "'sups' Superscript lookup 15 subtable" h.superior
EndChar

StartChar: i
Encoding: 105 105 139
Width: 1126
GlyphClass: 2
Flags: W
AnchorPoint: "Anchor-11" 0 1700 basechar 0
AnchorPoint: "Anchor-10" 1126 1700 basechar 0
AnchorPoint: "Anchor-9" 870 0 basechar 0
AnchorPoint: "Anchor-8" 693 0 basechar 0
AnchorPoint: "Anchor-7" 530 900 basechar 0
AnchorPoint: "Anchor-6" 1126 -350 basechar 0
AnchorPoint: "Anchor-5" 1126 1700 basechar 0
AnchorPoint: "Anchor-4" 480 1000 basechar 0
AnchorPoint: "Anchor-2" 563 -180 basechar 0
AnchorPoint: "Anchor-1" 777 1500 basechar 0
AnchorPoint: "Anchor-0" 563 1500 basechar 0
LayerCount: 2
Fore
SplineSet
543 1282 m 0,0,1
 543 1313 543 1313 554 1339 c 128,-1,2
 565 1365 565 1365 584.5 1384 c 128,-1,3
 604 1403 604 1403 630 1414 c 128,-1,4
 656 1425 656 1425 686 1425 c 0,5,6
 715 1425 715 1425 739 1414.5 c 128,-1,7
 763 1404 763 1404 780.5 1386.5 c 128,-1,8
 798 1369 798 1369 807.5 1345 c 128,-1,9
 817 1321 817 1321 817 1294 c 0,10,11
 817 1263 817 1263 806 1237 c 128,-1,12
 795 1211 795 1211 775.5 1192 c 128,-1,13
 756 1173 756 1173 730 1162 c 128,-1,14
 704 1151 704 1151 674 1151 c 0,15,16
 645 1151 645 1151 620.5 1161.5 c 128,-1,17
 596 1172 596 1172 579 1189.5 c 128,-1,18
 562 1207 562 1207 552.5 1231 c 128,-1,19
 543 1255 543 1255 543 1282 c 0,0,1
956 63 m 1,20,21
 887 25 887 25 810.5 3.5 c 128,-1,22
 734 -18 734 -18 647 -18 c 0,23,24
 576 -18 576 -18 528 2 c 128,-1,25
 480 22 480 22 454.5 65.5 c 128,-1,26
 429 109 429 109 426 177 c 128,-1,27
 423 245 423 245 442 342 c 2,28,-1
 510 678 l 2,29,30
 522 735 522 735 521.5 773.5 c 128,-1,31
 521 812 521 812 511 835 c 128,-1,32
 501 858 501 858 481.5 867.5 c 128,-1,33
 462 877 462 877 436 877 c 0,34,35
 368 877 368 877 302 850.5 c 128,-1,36
 236 824 236 824 168 786 c 1,37,-1
 168 940 l 1,38,39
 237 978 237 978 313.5 1000 c 128,-1,40
 390 1022 390 1022 477 1022 c 0,41,42
 548 1022 548 1022 596 1002 c 128,-1,43
 644 982 644 982 669.5 938.5 c 128,-1,44
 695 895 695 895 698 827 c 128,-1,45
 701 759 701 759 682 662 c 2,46,-1
 614 326 l 2,47,48
 603 268 603 268 603 230 c 128,-1,49
 603 192 603 192 613.5 169 c 128,-1,50
 624 146 624 146 643 136.5 c 128,-1,51
 662 127 662 127 688 127 c 0,52,53
 756 127 756 127 822 153.5 c 128,-1,54
 888 180 888 180 956 217 c 1,55,-1
 956 63 l 1,20,21
EndSplineSet
Substitution2: "Single Substitution lookup 34 subtable" dotlessi
Substitution2: "'ss05' Style Set 5 lookup 29 subtable" i.ss05
Substitution2: "'ss04' Style Set 4 lookup 28 subtable" i.ss04
AlternateSubs2: "'salt' Stylistic Alternatives lookup 22 subtable" i.ss05 i.ss04
Substitution2: "'sups' Superscript lookup 15 subtable" i.superior
EndChar

StartChar: j
Encoding: 106 106 140
Width: 1126
GlyphClass: 2
Flags: W
AnchorPoint: "Anchor-11" 0 1700 basechar 0
AnchorPoint: "Anchor-10" 1126 1700 basechar 0
AnchorPoint: "Anchor-9" 580 -350 basechar 0
AnchorPoint: "Anchor-7" 710 900 basechar 0
AnchorPoint: "Anchor-6" 1126 -350 basechar 0
AnchorPoint: "Anchor-5" 1126 1700 basechar 0
AnchorPoint: "Anchor-4" 670 1000 basechar 0
AnchorPoint: "Anchor-2" 563 -550 basechar 0
AnchorPoint: "Anchor-1" 937 1500 basechar 0
AnchorPoint: "Anchor-0" 733 1500 basechar 0
LayerCount: 2
Fore
SplineSet
250 934 m 1,0,1
 339 975 339 975 431.5 998.5 c 128,-1,2
 524 1022 524 1022 635 1022 c 0,3,4
 719 1022 719 1022 773.5 1001 c 128,-1,5
 828 980 828 980 855.5 936.5 c 128,-1,6
 883 893 883 893 886 826 c 128,-1,7
 889 759 889 759 870 666 c 2,8,-1
 737 2 l 2,9,10
 716 -106 716 -106 669.5 -185 c 128,-1,11
 623 -264 623 -264 559.5 -316.5 c 128,-1,12
 496 -369 496 -369 419 -394.5 c 128,-1,13
 342 -420 342 -420 258 -420 c 0,14,15
 199 -420 199 -420 147.5 -409 c 128,-1,16
 96 -398 96 -398 52.5 -379 c 128,-1,17
 9 -360 9 -360 -27 -334.5 c 128,-1,18
 -63 -309 -63 -309 -92 -279 c 1,19,-1
 20 -166 l 1,20,21
 64 -214 64 -214 128.5 -244 c 128,-1,22
 193 -274 193 -274 268 -274 c 0,23,24
 379 -274 379 -274 457 -199 c 128,-1,25
 535 -124 535 -124 569 43 c 2,26,-1
 694 666 l 2,27,28
 707 730 707 730 706.5 771.5 c 128,-1,29
 706 813 706 813 693.5 836 c 128,-1,30
 681 859 681 859 656 868 c 128,-1,31
 631 877 631 877 596 877 c 0,32,33
 509 877 509 877 425 850 c 128,-1,34
 341 823 341 823 250 782 c 1,35,-1
 250 934 l 1,0,1
715 1282 m 0,36,37
 715 1313 715 1313 726 1339 c 128,-1,38
 737 1365 737 1365 756.5 1384 c 128,-1,39
 776 1403 776 1403 802 1414 c 128,-1,40
 828 1425 828 1425 858 1425 c 0,41,42
 887 1425 887 1425 911 1414.5 c 128,-1,43
 935 1404 935 1404 952.5 1386.5 c 128,-1,44
 970 1369 970 1369 979.5 1345 c 128,-1,45
 989 1321 989 1321 989 1294 c 0,46,47
 989 1263 989 1263 978 1237 c 128,-1,48
 967 1211 967 1211 947.5 1192 c 128,-1,49
 928 1173 928 1173 902 1162 c 128,-1,50
 876 1151 876 1151 846 1151 c 0,51,52
 817 1151 817 1151 792.5 1161.5 c 128,-1,53
 768 1172 768 1172 751 1189.5 c 128,-1,54
 734 1207 734 1207 724.5 1231 c 128,-1,55
 715 1255 715 1255 715 1282 c 0,36,37
EndSplineSet
Substitution2: "Single Substitution lookup 35 subtable" uni0237
Substitution2: "'ss05' Style Set 5 lookup 29 subtable" j.ss04
Substitution2: "'ss04' Style Set 4 lookup 28 subtable" j.ss04
AlternateSubs2: "'salt' Stylistic Alternatives lookup 22 subtable" j.ss04
Substitution2: "'ordn' Ordinals in Latin lookup 20 subtable" uni02B2
Substitution2: "'sups' Superscript lookup 15 subtable" j.superior
EndChar

StartChar: k
Encoding: 107 107 141
Width: 1126
GlyphClass: 2
Flags: W
AnchorPoint: "Anchor-11" 0 1700 basechar 0
AnchorPoint: "Anchor-10" 1126 1700 basechar 0
AnchorPoint: "Anchor-9" 980 0 basechar 0
AnchorPoint: "Anchor-8" 563 -50 basechar 0
AnchorPoint: "Anchor-7" 750 970 basechar 0
AnchorPoint: "Anchor-6" 1126 -350 basechar 0
AnchorPoint: "Anchor-5" 1126 1700 basechar 0
AnchorPoint: "Anchor-4" 790 1000 basechar 0
AnchorPoint: "Anchor-2" 563 -180 basechar 0
AnchorPoint: "Anchor-1" 1063 1400 basechar 0
AnchorPoint: "Anchor-0" 563 1500 basechar 0
LayerCount: 2
Fore
SplineSet
946 0 m 1,0,-1
 727 0 l 1,1,-1
 387 518 l 1,2,3
 518 527 518 527 606.5 548.5 c 128,-1,4
 695 570 695 570 748.5 601.5 c 128,-1,5
 802 633 802 633 825 672.5 c 128,-1,6
 848 712 848 712 848 756 c 0,7,8
 848 780 848 780 840.5 801 c 128,-1,9
 833 822 833 822 817.5 837.5 c 128,-1,10
 802 853 802 853 778.5 862.5 c 128,-1,11
 755 872 755 872 723 872 c 0,12,13
 659 872 659 872 595.5 828 c 128,-1,14
 532 784 532 784 477.5 713.5 c 128,-1,15
 423 643 423 643 382.5 555 c 128,-1,16
 342 467 342 467 324 379 c 2,17,-1
 248 0 l 1,18,-1
 74 0 l 1,19,-1
 356 1413 l 1,20,-1
 530 1413 l 1,21,-1
 449 1004 l 1,22,-1
 393 791 l 1,23,24
 421 843 421 843 460 885.5 c 128,-1,25
 499 928 499 928 546 958.5 c 128,-1,26
 593 989 593 989 646 1005.5 c 128,-1,27
 699 1022 699 1022 756 1022 c 0,28,29
 820 1022 820 1022 869.5 1003.5 c 128,-1,30
 919 985 919 985 953 951 c 128,-1,31
 987 917 987 917 1004.5 870 c 128,-1,32
 1022 823 1022 823 1022 766 c 0,33,34
 1022 691 1022 691 987.5 634 c 128,-1,35
 953 577 953 577 898.5 535.5 c 128,-1,36
 844 494 844 494 775.5 468 c 128,-1,37
 707 442 707 442 639 430 c 1,38,-1
 946 0 l 1,0,-1
EndSplineSet
Substitution2: "'ordn' Ordinals in Latin lookup 20 subtable" uni1D4F
Substitution2: "'sups' Superscript lookup 15 subtable" k.superior
EndChar

StartChar: l
Encoding: 108 108 142
Width: 1126
GlyphClass: 2
Flags: W
AnchorPoint: "Anchor-11" 0 1700 basechar 0
AnchorPoint: "Anchor-10" 1126 1700 basechar 0
AnchorPoint: "Anchor-9" 950 60 basechar 0
AnchorPoint: "Anchor-8" 563 0 basechar 0
AnchorPoint: "Anchor-7" 400 1413 basechar 0
AnchorPoint: "Anchor-6" 1126 -350 basechar 0
AnchorPoint: "Anchor-5" 1126 1700 basechar 0
AnchorPoint: "Anchor-4" 410 1413 basechar 0
AnchorPoint: "Anchor-2" 563 -180 basechar 0
AnchorPoint: "Anchor-1" 733 1500 basechar 0
AnchorPoint: "Anchor-0" 563 1500 basechar 0
LayerCount: 2
Fore
SplineSet
909 68 m 1,0,1
 813 29 813 29 717.5 7.5 c 128,-1,2
 622 -14 622 -14 522 -14 c 0,3,4
 428 -14 428 -14 368 9 c 128,-1,5
 308 32 308 32 278 84.5 c 128,-1,6
 248 137 248 137 247 222 c 128,-1,7
 246 307 246 307 270 430 c 2,8,-1
 469 1413 l 1,9,-1
 647 1413 l 1,10,-1
 451 430 l 2,11,12
 433 341 433 341 428.5 284 c 128,-1,13
 424 227 424 227 435 194 c 128,-1,14
 446 161 446 161 472.5 148 c 128,-1,15
 499 135 499 135 543 135 c 0,16,17
 617 135 617 135 707.5 156 c 128,-1,18
 798 177 798 177 909 223 c 1,19,-1
 909 68 l 1,0,1
EndSplineSet
AlternateSubs2: "'ss06' Style Set 6 lookup 30 subtable" glyph296
Substitution2: "'ss04' Style Set 4 lookup 28 subtable" l.ss04
AlternateSubs2: "'salt' Stylistic Alternatives lookup 22 subtable" l.ss04 glyph296
Substitution2: "'sups' Superscript lookup 15 subtable" l.superior
EndChar

StartChar: m
Encoding: 109 109 143
Width: 1126
GlyphClass: 2
Flags: W
AnchorPoint: "Anchor-11" 0 1700 basechar 0
AnchorPoint: "Anchor-10" 1126 1700 basechar 0
AnchorPoint: "Anchor-9" 980 0 basechar 0
AnchorPoint: "Anchor-7" 870 970 basechar 0
AnchorPoint: "Anchor-6" 1126 -350 basechar 0
AnchorPoint: "Anchor-5" 1126 1700 basechar 0
AnchorPoint: "Anchor-4" 880 970 basechar 0
AnchorPoint: "Anchor-2" 563 -180 basechar 0
AnchorPoint: "Anchor-1" 1086 1160 basechar 0
AnchorPoint: "Anchor-0" 563 1200 basechar 0
LayerCount: 2
Fore
SplineSet
774 0 m 1,0,-1
 915 702 l 2,1,2
 926 757 926 757 930 791 c 128,-1,3
 934 825 934 825 932.5 844 c 128,-1,4
 931 863 931 863 924.5 870 c 128,-1,5
 918 877 918 877 907 877 c 0,6,7
 887 877 887 877 860.5 854 c 128,-1,8
 834 831 834 831 805 793 c 128,-1,9
 776 755 776 755 747 705.5 c 128,-1,10
 718 656 718 656 692.5 602.5 c 128,-1,11
 667 549 667 549 648 496.5 c 128,-1,12
 629 444 629 444 621 399 c 2,13,-1
 541 0 l 1,14,-1
 381 0 l 1,15,-1
 522 702 l 2,16,17
 533 757 533 757 537 791 c 128,-1,18
 541 825 541 825 539.5 844 c 128,-1,19
 538 863 538 863 531.5 870 c 128,-1,20
 525 877 525 877 514 877 c 0,21,22
 494 877 494 877 467.5 854 c 128,-1,23
 441 831 441 831 412 793 c 128,-1,24
 383 755 383 755 353.5 705.5 c 128,-1,25
 324 656 324 656 299 602.5 c 128,-1,26
 274 549 274 549 255 496.5 c 128,-1,27
 236 444 236 444 227 399 c 2,28,-1
 147 0 l 1,29,-1
 -12 0 l 1,30,-1
 96 543 l 2,31,32
 100 562 100 562 104.5 593 c 128,-1,33
 109 624 109 624 115.5 676.5 c 128,-1,34
 122 729 122 729 131 808.5 c 128,-1,35
 140 888 140 888 152 1004 c 1,36,-1
 301 1004 l 1,37,-1
 276 772 l 1,38,39
 304 823 304 823 334 868 c 128,-1,40
 364 913 364 913 396.5 947.5 c 128,-1,41
 429 982 429 982 466 1002 c 128,-1,42
 503 1022 503 1022 545 1022 c 0,43,44
 596 1022 596 1022 629.5 1002 c 128,-1,45
 663 982 663 982 678.5 948 c 128,-1,46
 694 914 694 914 692 868.5 c 128,-1,47
 690 823 690 823 670 772 c 1,48,49
 698 823 698 823 727.5 868 c 128,-1,50
 757 913 757 913 789.5 947.5 c 128,-1,51
 822 982 822 982 859 1002 c 128,-1,52
 896 1022 896 1022 938 1022 c 0,53,54
 1038 1022 1038 1022 1072.5 946.5 c 128,-1,55
 1107 871 1107 871 1075 711 c 2,56,-1
 934 0 l 1,57,-1
 774 0 l 1,0,-1
EndSplineSet
Substitution2: "'ordn' Ordinals in Latin lookup 20 subtable" uni1D50
Substitution2: "'sups' Superscript lookup 15 subtable" m.superior
EndChar

StartChar: n
Encoding: 110 110 144
Width: 1126
GlyphClass: 2
Flags: W
AnchorPoint: "Anchor-11" 0 1700 basechar 0
AnchorPoint: "Anchor-10" 1126 1700 basechar 0
AnchorPoint: "Anchor-9" 910 0 basechar 0
AnchorPoint: "Anchor-8" 563 -50 basechar 0
AnchorPoint: "Anchor-7" 740 970 basechar 0
AnchorPoint: "Anchor-6" 1126 -350 basechar 0
AnchorPoint: "Anchor-5" 1126 1700 basechar 0
AnchorPoint: "Anchor-4" 790 970 basechar 0
AnchorPoint: "Anchor-2" 563 -180 basechar 0
AnchorPoint: "Anchor-1" 1017 1160 basechar 0
AnchorPoint: "Anchor-0" 563 1200 basechar 0
LayerCount: 2
Fore
SplineSet
166 543 m 2,0,1
 170 562 170 562 174.5 593 c 128,-1,2
 179 624 179 624 185 676.5 c 128,-1,3
 191 729 191 729 200 808.5 c 128,-1,4
 209 888 209 888 221 1004 c 1,5,-1
 385 1004 l 1,6,-1
 360 772 l 1,7,8
 430 893 430 893 527.5 957.5 c 128,-1,9
 625 1022 625 1022 739 1022 c 0,10,11
 898 1022 898 1022 964.5 926 c 128,-1,12
 1031 830 1031 830 993 643 c 2,13,-1
 864 0 l 1,14,-1
 690 0 l 1,15,-1
 819 641 l 2,16,17
 844 763 844 763 815.5 817.5 c 128,-1,18
 787 872 787 872 707 872 c 0,19,20
 643 872 643 872 579.5 828 c 128,-1,21
 516 784 516 784 461 713.5 c 128,-1,22
 406 643 406 643 365.5 555 c 128,-1,23
 325 467 325 467 307 379 c 2,24,-1
 231 0 l 1,25,-1
 57 0 l 1,26,-1
 166 543 l 2,0,1
EndSplineSet
Substitution2: "'ordn' Ordinals in Latin lookup 20 subtable" uni207F
Substitution2: "'sups' Superscript lookup 15 subtable" n.superior
EndChar

StartChar: o
Encoding: 111 111 145
Width: 1126
GlyphClass: 2
Flags: W
AnchorPoint: "Anchor-11" 0 1700 basechar 0
AnchorPoint: "Anchor-10" 1126 1700 basechar 0
AnchorPoint: "Anchor-9" 660 0 basechar 0
AnchorPoint: "Anchor-8" 563 0 basechar 0
AnchorPoint: "Anchor-7" 750 950 basechar 0
AnchorPoint: "Anchor-6" 1126 -350 basechar 0
AnchorPoint: "Anchor-5" 1126 1700 basechar 0
AnchorPoint: "Anchor-4" 810 930 basechar 0
AnchorPoint: "Anchor-2" 563 -180 basechar 0
AnchorPoint: "Anchor-1" 994 1160 basechar 0
AnchorPoint: "Anchor-0" 563 1200 basechar 0
LayerCount: 2
Fore
SplineSet
461 -18 m 0,0,1
 281 -18 281 -18 180.5 74.5 c 128,-1,2
 80 167 80 167 80 352 c 0,3,4
 80 435 80 435 97.5 516.5 c 128,-1,5
 115 598 115 598 149 672.5 c 128,-1,6
 183 747 183 747 233 811 c 128,-1,7
 283 875 283 875 348 922 c 128,-1,8
 413 969 413 969 491.5 995.5 c 128,-1,9
 570 1022 570 1022 662 1022 c 0,10,11
 752 1022 752 1022 822.5 998.5 c 128,-1,12
 893 975 893 975 941.5 928.5 c 128,-1,13
 990 882 990 882 1016 812.5 c 128,-1,14
 1042 743 1042 743 1042 651 c 0,15,16
 1042 569 1042 569 1024.5 487.5 c 128,-1,17
 1007 406 1007 406 973 331.5 c 128,-1,18
 939 257 939 257 889 193 c 128,-1,19
 839 129 839 129 774.5 82 c 128,-1,20
 710 35 710 35 631 8.5 c 128,-1,21
 552 -18 552 -18 461 -18 c 0,0,1
864 633 m 0,22,23
 864 754 864 754 807 814 c 128,-1,24
 750 874 750 874 641 874 c 0,25,26
 579 874 579 874 526 852.5 c 128,-1,27
 473 831 473 831 430.5 793.5 c 128,-1,28
 388 756 388 756 355.5 706.5 c 128,-1,29
 323 657 323 657 301.5 601.5 c 128,-1,30
 280 546 280 546 269 486.5 c 128,-1,31
 258 427 258 427 258 371 c 0,32,33
 258 250 258 250 315 189.5 c 128,-1,34
 372 129 372 129 481 129 c 0,35,36
 544 129 544 129 596.5 150.5 c 128,-1,37
 649 172 649 172 691.5 209.5 c 128,-1,38
 734 247 734 247 766.5 296.5 c 128,-1,39
 799 346 799 346 820.5 402 c 128,-1,40
 842 458 842 458 853 517.5 c 128,-1,41
 864 577 864 577 864 633 c 0,22,23
EndSplineSet
Substitution2: "'ordn' Ordinals in Latin lookup 20 subtable" uni1D52
Substitution2: "'sups' Superscript lookup 15 subtable" o.superior
EndChar

StartChar: p
Encoding: 112 112 146
Width: 1126
GlyphClass: 2
Flags: W
AnchorPoint: "Anchor-11" 0 1700 basechar 0
AnchorPoint: "Anchor-10" 1126 1700 basechar 0
AnchorPoint: "Anchor-9" 200 -400 basechar 0
AnchorPoint: "Anchor-7" 740 970 basechar 0
AnchorPoint: "Anchor-6" 1126 -350 basechar 0
AnchorPoint: "Anchor-5" 1126 1700 basechar 0
AnchorPoint: "Anchor-4" 810 930 basechar 0
AnchorPoint: "Anchor-2" 563 -510 basechar 0
AnchorPoint: "Anchor-1" 988 1160 basechar 0
AnchorPoint: "Anchor-0" 563 1200 basechar 0
LayerCount: 2
Fore
SplineSet
455 -12 m 0,0,1
 382 -12 382 -12 332.5 -6 c 128,-1,2
 283 0 283 0 240 12 c 1,3,-1
 156 -410 l 1,4,-1
 -18 -410 l 1,5,-1
 172 543 l 2,6,7
 176 562 176 562 180.5 593 c 128,-1,8
 185 624 185 624 191.5 676.5 c 128,-1,9
 198 729 198 729 206.5 808.5 c 128,-1,10
 215 888 215 888 227 1004 c 1,11,-1
 391 1004 l 1,12,-1
 367 772 l 1,13,14
 436 893 436 893 534 957.5 c 128,-1,15
 632 1022 632 1022 748 1022 c 0,16,17
 820 1022 820 1022 873 997.5 c 128,-1,18
 926 973 926 973 961 929 c 128,-1,19
 996 885 996 885 1013 822.5 c 128,-1,20
 1030 760 1030 760 1030 684 c 0,21,22
 1030 540 1030 540 992.5 413.5 c 128,-1,23
 955 287 955 287 882 192.5 c 128,-1,24
 809 98 809 98 701.5 43 c 128,-1,25
 594 -12 594 -12 455 -12 c 0,0,1
854 668 m 0,26,27
 854 764 854 764 821.5 817 c 128,-1,28
 789 870 789 870 715 870 c 0,29,30
 672 870 672 870 629 850 c 128,-1,31
 586 830 586 830 545 795 c 128,-1,32
 504 760 504 760 467 712.5 c 128,-1,33
 430 665 430 665 400 610.5 c 128,-1,34
 370 556 370 556 347.5 497 c 128,-1,35
 325 438 325 438 313 379 c 2,36,-1
 272 172 l 1,37,38
 319 152 319 152 369 140.5 c 128,-1,39
 419 129 419 129 461 129 c 0,40,41
 543 129 543 129 604 157 c 128,-1,42
 665 185 665 185 708.5 230 c 128,-1,43
 752 275 752 275 780 333 c 128,-1,44
 808 391 808 391 824.5 451 c 128,-1,45
 841 511 841 511 847.5 567.5 c 128,-1,46
 854 624 854 624 854 668 c 0,26,27
EndSplineSet
Substitution2: "'ordn' Ordinals in Latin lookup 20 subtable" uni1D56
Substitution2: "'sups' Superscript lookup 15 subtable" p.superior
EndChar

StartChar: q
Encoding: 113 113 147
Width: 1126
GlyphClass: 2
Flags: W
AnchorPoint: "Anchor-11" 0 1700 basechar 0
AnchorPoint: "Anchor-10" 1126 1700 basechar 0
AnchorPoint: "Anchor-9" 820 -400 basechar 0
AnchorPoint: "Anchor-7" 800 990 basechar 0
AnchorPoint: "Anchor-6" 1126 -350 basechar 0
AnchorPoint: "Anchor-5" 1126 1700 basechar 0
AnchorPoint: "Anchor-4" 820 990 basechar 0
AnchorPoint: "Anchor-2" 563 -500 basechar 0
AnchorPoint: "Anchor-1" 1011 1160 basechar 0
AnchorPoint: "Anchor-0" 563 1200 basechar 0
LayerCount: 2
Fore
SplineSet
1063 1022 m 1,0,-1
 776 -410 l 1,1,-1
 602 -410 l 1,2,-1
 680 -20 l 1,3,-1
 745 221 l 1,4,5
 715 165 715 165 674.5 120.5 c 128,-1,6
 634 76 634 76 587 45.5 c 128,-1,7
 540 15 540 15 486 -1.5 c 128,-1,8
 432 -18 432 -18 375 -18 c 0,9,10
 303 -18 303 -18 249.5 6 c 128,-1,11
 196 30 196 30 161 74.5 c 128,-1,12
 126 119 126 119 109 181 c 128,-1,13
 92 243 92 243 92 319 c 0,14,15
 92 463 92 463 129.5 589.5 c 128,-1,16
 167 716 167 716 240 811 c 128,-1,17
 313 906 313 906 420.5 961 c 128,-1,18
 528 1016 528 1016 668 1016 c 0,19,20
 733 1016 733 1016 792 1007.5 c 128,-1,21
 851 999 851 999 905 983 c 1,22,-1
 1063 1022 l 1,0,-1
268 336 m 0,23,24
 268 241 268 241 301 187 c 128,-1,25
 334 133 334 133 408 133 c 0,26,27
 451 133 451 133 494 153 c 128,-1,28
 537 173 537 173 577.5 208 c 128,-1,29
 618 243 618 243 655 290 c 128,-1,30
 692 337 692 337 722 390.5 c 128,-1,31
 752 444 752 444 774 501 c 128,-1,32
 796 558 796 558 807 614 c 2,33,-1
 850 831 l 1,34,35
 803 851 803 851 753.5 862.5 c 128,-1,36
 704 874 704 874 662 874 c 0,37,38
 580 874 580 874 519 846 c 128,-1,39
 458 818 458 818 414 773 c 128,-1,40
 370 728 370 728 342 670.5 c 128,-1,41
 314 613 314 613 297.5 553 c 128,-1,42
 281 493 281 493 274.5 436 c 128,-1,43
 268 379 268 379 268 336 c 0,23,24
EndSplineSet
Substitution2: "'sups' Superscript lookup 15 subtable" q.superior
EndChar

StartChar: r
Encoding: 114 114 148
Width: 1126
GlyphClass: 2
Flags: W
AnchorPoint: "Anchor-11" 0 1700 basechar 0
AnchorPoint: "Anchor-10" 1126 1700 basechar 0
AnchorPoint: "Anchor-9" 310 0 basechar 0
AnchorPoint: "Anchor-8" 280 0 basechar 0
AnchorPoint: "Anchor-7" 800 970 basechar 0
AnchorPoint: "Anchor-6" 1126 -350 basechar 0
AnchorPoint: "Anchor-5" 1126 1700 basechar 0
AnchorPoint: "Anchor-4" 850 950 basechar 0
AnchorPoint: "Anchor-2" 563 -180 basechar 0
AnchorPoint: "Anchor-1" 1052 1160 basechar 0
AnchorPoint: "Anchor-0" 563 1200 basechar 0
LayerCount: 2
Fore
SplineSet
207 543 m 2,0,1
 211 562 211 562 215.5 593 c 128,-1,2
 220 624 220 624 226 676.5 c 128,-1,3
 232 729 232 729 241 808.5 c 128,-1,4
 250 888 250 888 262 1004 c 1,5,-1
 426 1004 l 1,6,-1
 401 772 l 1,7,8
 436 823 436 823 477 868.5 c 128,-1,9
 518 914 518 914 567 948 c 128,-1,10
 616 982 616 982 674 1002 c 128,-1,11
 732 1022 732 1022 801 1022 c 0,12,13
 966 1022 966 1022 1029 919 c 128,-1,14
 1092 816 1092 816 1049 621 c 1,15,-1
 872 621 l 1,16,17
 887 690 887 690 887 738 c 128,-1,18
 887 786 887 786 873.5 815.5 c 128,-1,19
 860 845 860 845 833.5 858.5 c 128,-1,20
 807 872 807 872 770 872 c 0,21,22
 698 872 698 872 630 828.5 c 128,-1,23
 562 785 562 785 505.5 714.5 c 128,-1,24
 449 644 449 644 408.5 556 c 128,-1,25
 368 468 368 468 350 379 c 2,26,-1
 274 0 l 1,27,-1
 98 0 l 1,28,-1
 207 543 l 2,0,1
EndSplineSet
AlternateSubs2: "'ss06' Style Set 6 lookup 30 subtable" glyph310
Substitution2: "'ss05' Style Set 5 lookup 29 subtable" r.ss05
Substitution2: "'ss04' Style Set 4 lookup 28 subtable" r.ss04
AlternateSubs2: "'salt' Stylistic Alternatives lookup 22 subtable" r.ss04 r.ss05 glyph310
Substitution2: "'ordn' Ordinals in Latin lookup 20 subtable" uni02B3
Substitution2: "'sups' Superscript lookup 15 subtable" r.superior
EndChar

StartChar: s
Encoding: 115 115 149
Width: 1126
GlyphClass: 2
Flags: W
AnchorPoint: "Anchor-11" 0 1700 basechar 0
AnchorPoint: "Anchor-10" 1126 1700 basechar 0
AnchorPoint: "Anchor-9" 640 0 basechar 0
AnchorPoint: "Anchor-8" 563 0 basechar 0
AnchorPoint: "Anchor-7" 750 970 basechar 0
AnchorPoint: "Anchor-6" 1126 -350 basechar 0
AnchorPoint: "Anchor-5" 1126 1700 basechar 0
AnchorPoint: "Anchor-4" 770 980 basechar 0
AnchorPoint: "Anchor-2" 563 -180 basechar 0
AnchorPoint: "Anchor-1" 935 1160 basechar 0
AnchorPoint: "Anchor-0" 563 1200 basechar 0
LayerCount: 2
Fore
SplineSet
971 836 m 1,0,1
 880 857 880 857 808 867 c 128,-1,2
 736 877 736 877 680 877 c 0,3,4
 611 877 611 877 561.5 866 c 128,-1,5
 512 855 512 855 480 835 c 128,-1,6
 448 815 448 815 433 786.5 c 128,-1,7
 418 758 418 758 418 723 c 0,8,9
 418 698 418 698 429.5 678.5 c 128,-1,10
 441 659 441 659 466 641.5 c 128,-1,11
 491 624 491 624 532.5 607 c 128,-1,12
 574 590 574 590 635 571 c 0,13,14
 708 547 708 547 759.5 521.5 c 128,-1,15
 811 496 811 496 844 464 c 128,-1,16
 877 432 877 432 892 393 c 128,-1,17
 907 354 907 354 907 303 c 0,18,19
 907 225 907 225 873 165 c 128,-1,20
 839 105 839 105 778 64.5 c 128,-1,21
 717 24 717 24 631.5 3 c 128,-1,22
 546 -18 546 -18 444 -18 c 0,23,24
 348 -18 348 -18 261.5 -10 c 128,-1,25
 175 -2 175 -2 100 16 c 1,26,-1
 100 186 l 1,27,28
 190 157 190 157 279 143 c 128,-1,29
 368 129 368 129 455 129 c 0,30,31
 597 129 597 129 662 169 c 128,-1,32
 727 209 727 209 727 293 c 0,33,34
 727 315 727 315 717 333.5 c 128,-1,35
 707 352 707 352 683 368.5 c 128,-1,36
 659 385 659 385 617 402 c 128,-1,37
 575 419 575 419 510 438 c 0,38,39
 450 456 450 456 400.5 478.5 c 128,-1,40
 351 501 351 501 315 532.5 c 128,-1,41
 279 564 279 564 259.5 606.5 c 128,-1,42
 240 649 240 649 240 705 c 0,43,44
 240 772 240 772 267 829.5 c 128,-1,45
 294 887 294 887 350.5 930 c 128,-1,46
 407 973 407 973 493 997.5 c 128,-1,47
 579 1022 579 1022 696 1022 c 0,48,49
 724 1022 724 1022 757.5 1020 c 128,-1,50
 791 1018 791 1018 827 1013.5 c 128,-1,51
 863 1009 863 1009 899.5 1003 c 128,-1,52
 936 997 936 997 971 989 c 1,53,-1
 971 836 l 1,0,1
EndSplineSet
Substitution2: "'sups' Superscript lookup 15 subtable" s.superior
EndChar

StartChar: t
Encoding: 116 116 150
Width: 1126
GlyphClass: 2
Flags: W
AnchorPoint: "Anchor-11" 0 1700 basechar 0
AnchorPoint: "Anchor-10" 1126 1700 basechar 0
AnchorPoint: "Anchor-9" 780 0 basechar 0
AnchorPoint: "Anchor-8" 680 0 basechar 0
AnchorPoint: "Anchor-7" 800 1000 basechar 0
AnchorPoint: "Anchor-6" 1126 -350 basechar 0
AnchorPoint: "Anchor-5" 1126 1700 basechar 0
AnchorPoint: "Anchor-4" 830 1000 basechar 0
AnchorPoint: "Anchor-2" 563 -180 basechar 0
AnchorPoint: "Anchor-1" 969 1400 basechar 0
AnchorPoint: "Anchor-0" 433 1450 basechar 0
LayerCount: 2
Fore
SplineSet
885 14 m 1,0,1
 822 -1 822 -1 760.5 -7.5 c 128,-1,2
 699 -14 699 -14 651 -14 c 0,3,4
 549 -14 549 -14 476.5 8.5 c 128,-1,5
 404 31 404 31 362 80 c 128,-1,6
 320 129 320 129 309.5 206.5 c 128,-1,7
 299 284 299 284 322 395 c 2,8,-1
 414 858 l 1,9,-1
 133 858 l 1,10,-1
 162 1004 l 1,11,-1
 442 1004 l 1,12,-1
 498 1280 l 1,13,-1
 682 1325 l 1,14,-1
 616 1004 l 1,15,-1
 1067 1004 l 1,16,-1
 1038 858 l 1,17,-1
 588 858 l 1,18,-1
 494 389 l 2,19,20
 480 320 480 320 483 271.5 c 128,-1,21
 486 223 486 223 507 192 c 128,-1,22
 528 161 528 161 568 147 c 128,-1,23
 608 133 608 133 670 133 c 0,24,25
 707 133 707 133 763 140.5 c 128,-1,26
 819 148 819 148 885 164 c 1,27,-1
 885 14 l 1,0,1
EndSplineSet
Substitution2: "'ordn' Ordinals in Latin lookup 20 subtable" uni1D57
Substitution2: "'sups' Superscript lookup 15 subtable" t.superior
EndChar

StartChar: u
Encoding: 117 117 151
Width: 1126
GlyphClass: 2
Flags: W
AnchorPoint: "Anchor-11" 0 1700 basechar 0
AnchorPoint: "Anchor-10" 1126 1700 basechar 0
AnchorPoint: "Anchor-9" 950 0 basechar 0
AnchorPoint: "Anchor-8" 500 0 basechar 0
AnchorPoint: "Anchor-7" 830 1000 basechar 0
AnchorPoint: "Anchor-6" 1126 -350 basechar 0
AnchorPoint: "Anchor-5" 1126 1700 basechar 0
AnchorPoint: "Anchor-4" 830 1000 basechar 0
AnchorPoint: "Anchor-2" 563 -180 basechar 0
AnchorPoint: "Anchor-1" 1017 1160 basechar 0
AnchorPoint: "Anchor-0" 563 1200 basechar 0
LayerCount: 2
Fore
SplineSet
956 461 m 2,0,1
 952 442 952 442 947.5 411 c 128,-1,2
 943 380 943 380 937 327.5 c 128,-1,3
 931 275 931 275 922 195.5 c 128,-1,4
 913 116 913 116 901 0 c 1,5,-1
 737 0 l 1,6,-1
 762 231 l 1,7,8
 693 111 693 111 595.5 46.5 c 128,-1,9
 498 -18 498 -18 383 -18 c 0,10,11
 224 -18 224 -18 157.5 78 c 128,-1,12
 91 174 91 174 129 360 c 2,13,-1
 258 1004 l 1,14,-1
 432 1004 l 1,15,-1
 303 362 l 2,16,17
 278 241 278 241 306.5 186 c 128,-1,18
 335 131 335 131 416 131 c 0,19,20
 459 131 459 131 501.5 151 c 128,-1,21
 544 171 544 171 584.5 206.5 c 128,-1,22
 625 242 625 242 661.5 289.5 c 128,-1,23
 698 337 698 337 728.5 392 c 128,-1,24
 759 447 759 447 781 506.5 c 128,-1,25
 803 566 803 566 815 625 c 2,26,-1
 891 1004 l 1,27,-1
 1065 1004 l 1,28,-1
 956 461 l 2,0,1
EndSplineSet
Substitution2: "'ordn' Ordinals in Latin lookup 20 subtable" uni1D58
Substitution2: "'sups' Superscript lookup 15 subtable" u.superior
EndChar

StartChar: v
Encoding: 118 118 152
Width: 1126
GlyphClass: 2
Flags: W
AnchorPoint: "Anchor-11" 0 1700 basechar 0
AnchorPoint: "Anchor-10" 1126 1700 basechar 0
AnchorPoint: "Anchor-9" 580 0 basechar 0
AnchorPoint: "Anchor-7" 810 1000 basechar 0
AnchorPoint: "Anchor-6" 1126 -350 basechar 0
AnchorPoint: "Anchor-5" 1126 1700 basechar 0
AnchorPoint: "Anchor-4" 840 1000 basechar 0
AnchorPoint: "Anchor-2" 563 -180 basechar 0
AnchorPoint: "Anchor-1" 1103 1160 basechar 0
AnchorPoint: "Anchor-0" 563 1200 basechar 0
LayerCount: 2
Fore
SplineSet
164 1004 m 1,0,-1
 352 1004 l 1,1,-1
 463 340 l 1,2,-1
 487 170 l 1,3,4
 575 250 575 250 641.5 347 c 128,-1,5
 708 444 708 444 755.5 551.5 c 128,-1,6
 803 659 803 659 831 773.5 c 128,-1,7
 859 888 859 888 870 1004 c 1,8,-1
 1067 1004 l 1,9,10
 1051 864 1051 864 1005 725 c 128,-1,11
 959 586 959 586 888.5 456 c 128,-1,12
 818 326 818 326 724.5 210 c 128,-1,13
 631 94 631 94 520 0 c 1,14,-1
 352 0 l 1,15,-1
 164 1004 l 1,0,-1
EndSplineSet
Substitution2: "'ordn' Ordinals in Latin lookup 20 subtable" uni1D5B
Substitution2: "'sups' Superscript lookup 15 subtable" v.superior
EndChar

StartChar: w
Encoding: 119 119 153
Width: 1126
GlyphClass: 2
Flags: W
AnchorPoint: "Anchor-11" 0 1700 basechar 0
AnchorPoint: "Anchor-10" 1126 1700 basechar 0
AnchorPoint: "Anchor-9" 840 0 basechar 0
AnchorPoint: "Anchor-7" 920 1000 basechar 0
AnchorPoint: "Anchor-6" 1126 -350 basechar 0
AnchorPoint: "Anchor-5" 1126 1700 basechar 0
AnchorPoint: "Anchor-4" 930 1000 basechar 0
AnchorPoint: "Anchor-2" 563 -180 basechar 0
AnchorPoint: "Anchor-1" 1140 1160 basechar 0
AnchorPoint: "Anchor-0" 563 1200 basechar 0
LayerCount: 2
Fore
SplineSet
1151 1004 m 1,0,1
 1142 871 1142 871 1114.5 729.5 c 128,-1,2
 1087 588 1087 588 1040.5 454 c 128,-1,3
 994 320 994 320 930.5 202.5 c 128,-1,4
 867 85 867 85 786 0 c 1,5,-1
 639 0 l 1,6,-1
 573 420 l 1,7,-1
 565 522 l 1,8,-1
 510 414 l 1,9,-1
 285 0 l 1,10,-1
 72 0 l 1,11,-1
 139 1004 l 1,12,-1
 307 1004 l 1,13,-1
 248 322 l 1,14,-1
 233 170 l 1,15,-1
 303 303 l 1,16,-1
 543 754 l 1,17,-1
 668 754 l 1,18,-1
 739 309 l 1,19,-1
 758 176 l 1,20,21
 809 253 809 253 848 349 c 128,-1,22
 887 445 887 445 914 552 c 128,-1,23
 941 659 941 659 957 774 c 128,-1,24
 973 889 973 889 979 1004 c 1,25,-1
 1151 1004 l 1,0,1
EndSplineSet
Substitution2: "'ordn' Ordinals in Latin lookup 20 subtable" uni02B7
Substitution2: "'sups' Superscript lookup 15 subtable" w.superior
EndChar

StartChar: x
Encoding: 120 120 154
Width: 1126
GlyphClass: 2
Flags: W
AnchorPoint: "Anchor-11" 0 1700 basechar 0
AnchorPoint: "Anchor-10" 1126 1700 basechar 0
AnchorPoint: "Anchor-9" 990 0 basechar 0
AnchorPoint: "Anchor-7" 830 1000 basechar 0
AnchorPoint: "Anchor-6" 1126 -350 basechar 0
AnchorPoint: "Anchor-5" 1126 1700 basechar 0
AnchorPoint: "Anchor-4" 830 1000 basechar 0
AnchorPoint: "Anchor-2" 563 -180 basechar 0
AnchorPoint: "Anchor-1" 1085 1160 basechar 0
AnchorPoint: "Anchor-0" 563 1200 basechar 0
LayerCount: 2
Fore
SplineSet
963 0 m 1,0,-1
 739 0 l 1,1,-1
 545 383 l 1,2,-1
 201 0 l 1,3,-1
 -33 0 l 1,4,-1
 457 504 l 1,5,-1
 186 1004 l 1,6,-1
 401 1004 l 1,7,-1
 588 618 l 1,8,-1
 924 1004 l 1,9,-1
 1147 1004 l 1,10,-1
 670 500 l 1,11,-1
 963 0 l 1,0,-1
EndSplineSet
Substitution2: "'sups' Superscript lookup 15 subtable" x.superior
EndChar

StartChar: y
Encoding: 121 121 155
Width: 1126
GlyphClass: 2
Flags: W
AnchorPoint: "Anchor-11" 0 1700 basechar 0
AnchorPoint: "Anchor-10" 1126 1700 basechar 0
AnchorPoint: "Anchor-9" 300 -350 basechar 0
AnchorPoint: "Anchor-7" 810 1000 basechar 0
AnchorPoint: "Anchor-6" 1126 -350 basechar 0
AnchorPoint: "Anchor-5" 1126 1700 basechar 0
AnchorPoint: "Anchor-4" 830 1000 basechar 0
AnchorPoint: "Anchor-2" 563 -500 basechar 0
AnchorPoint: "Anchor-1" 1103 1160 basechar 0
AnchorPoint: "Anchor-0" 563 1200 basechar 0
LayerCount: 2
Fore
SplineSet
719 201 m 0,0,1
 631 75 631 75 558 -19.5 c 128,-1,2
 485 -114 485 -114 422.5 -183 c 128,-1,3
 360 -252 360 -252 305.5 -296.5 c 128,-1,4
 251 -341 251 -341 200 -368 c 128,-1,5
 149 -395 149 -395 99 -405.5 c 128,-1,6
 49 -416 49 -416 -4 -416 c 0,7,8
 -30 -416 -30 -416 -53 -414.5 c 128,-1,9
 -76 -413 -76 -413 -106 -410 c 1,10,-1
 -106 -252 l 1,11,12
 -79 -257 -79 -257 -50 -259.5 c 128,-1,13
 -21 -262 -21 -262 8 -262 c 0,14,15
 56 -262 56 -262 98.5 -248 c 128,-1,16
 141 -234 141 -234 183.5 -202.5 c 128,-1,17
 226 -171 226 -171 270.5 -121 c 128,-1,18
 315 -71 315 -71 367 0 c 1,19,-1
 164 1004 l 1,20,-1
 352 1004 l 1,21,-1
 483 340 l 1,22,-1
 508 168 l 1,23,24
 581 273 581 273 634.5 360.5 c 128,-1,25
 688 448 688 448 726.5 522 c 128,-1,26
 765 596 765 596 789.5 659.5 c 128,-1,27
 814 723 814 723 829.5 780.5 c 128,-1,28
 845 838 845 838 853 892.5 c 128,-1,29
 861 947 861 947 866 1004 c 1,30,-1
 1057 1004 l 1,31,32
 1045 906 1045 906 1024.5 816.5 c 128,-1,33
 1004 727 1004 727 966 633.5 c 128,-1,34
 928 540 928 540 868.5 435 c 128,-1,35
 809 330 809 330 719 201 c 0,0,1
EndSplineSet
Substitution2: "'ordn' Ordinals in Latin lookup 20 subtable" uni02B8
Substitution2: "'sups' Superscript lookup 15 subtable" y.superior
EndChar

StartChar: z
Encoding: 122 122 156
Width: 1126
GlyphClass: 2
Flags: W
AnchorPoint: "Anchor-11" 0 1700 basechar 0
AnchorPoint: "Anchor-10" 1126 1700 basechar 0
AnchorPoint: "Anchor-9" 910 0 basechar 0
AnchorPoint: "Anchor-7" 780 1000 basechar 0
AnchorPoint: "Anchor-6" 1126 -350 basechar 0
AnchorPoint: "Anchor-5" 1126 1700 basechar 0
AnchorPoint: "Anchor-4" 810 1000 basechar 0
AnchorPoint: "Anchor-2" 563 -180 basechar 0
AnchorPoint: "Anchor-1" 983 1160 basechar 0
AnchorPoint: "Anchor-0" 563 1200 basechar 0
LayerCount: 2
Fore
SplineSet
870 0 m 1,0,-1
 61 0 l 1,1,-1
 86 125 l 1,2,-1
 795 858 l 1,3,-1
 248 858 l 1,4,-1
 276 1004 l 1,5,-1
 1038 1004 l 1,6,-1
 1012 868 l 1,7,-1
 315 147 l 1,8,-1
 899 147 l 1,9,-1
 870 0 l 1,0,-1
EndSplineSet
Substitution2: "'ordn' Ordinals in Latin lookup 20 subtable" uni1DBB
Substitution2: "'sups' Superscript lookup 15 subtable" z.superior
EndChar

StartChar: aogonek
Encoding: 261 261 166
Width: 1126
GlyphClass: 2
Flags: W
AnchorPoint: "Anchor-11" 0 1700 basechar 0
AnchorPoint: "Anchor-10" 1126 1700 basechar 0
AnchorPoint: "Anchor-9" 930 -385 basechar 0
AnchorPoint: "Anchor-6" 1126 -350 basechar 0
AnchorPoint: "Anchor-5" 1126 1700 basechar 0
AnchorPoint: "Anchor-2" 563 -475 basechar 0
AnchorPoint: "Anchor-1" 961 1160 basechar 0
AnchorPoint: "Anchor-0" 563 1200 basechar 0
LayerCount: 2
Fore
SplineSet
885 -375 m 1,0,1
 860 -380 860 -380 828.5 -382.5 c 128,-1,2
 797 -385 797 -385 772 -385 c 0,3,4
 718 -385 718 -385 679.5 -373.5 c 128,-1,5
 641 -362 641 -362 616.5 -342.5 c 128,-1,6
 592 -323 592 -323 580 -297 c 128,-1,7
 568 -271 568 -271 568 -242 c 0,8,9
 568 -217 568 -217 574.5 -192 c 128,-1,10
 581 -167 581 -167 598.5 -138 c 128,-1,11
 616 -109 616 -109 647.5 -75.5 c 128,-1,12
 679 -42 679 -42 731 0 c 1,13,-1
 756 231 l 1,14,15
 687 111 687 111 588.5 46.5 c 128,-1,16
 490 -18 490 -18 375 -18 c 0,17,18
 303 -18 303 -18 249.5 6 c 128,-1,19
 196 30 196 30 161 74.5 c 128,-1,20
 126 119 126 119 109 181 c 128,-1,21
 92 243 92 243 92 319 c 0,22,23
 92 463 92 463 129.5 589.5 c 128,-1,24
 167 716 167 716 240 811 c 128,-1,25
 313 906 313 906 420.5 961 c 128,-1,26
 528 1016 528 1016 668 1016 c 0,27,28
 733 1016 733 1016 792 1007.5 c 128,-1,29
 851 999 851 999 905 983 c 1,30,-1
 1063 1022 l 1,31,-1
 950 461 l 2,32,33
 946 442 946 442 941.5 411 c 128,-1,34
 937 380 937 380 931 327.5 c 128,-1,35
 925 275 925 275 916 195.5 c 128,-1,36
 907 116 907 116 895 0 c 1,37,38
 845 -43 845 -43 814 -74.5 c 128,-1,39
 783 -106 783 -106 765.5 -130.5 c 128,-1,40
 748 -155 748 -155 742 -175 c 128,-1,41
 736 -195 736 -195 736 -215 c 256,42,43
 736 -235 736 -235 752.5 -250.5 c 128,-1,44
 769 -266 769 -266 815 -266 c 0,45,46
 829 -266 829 -266 848.5 -265 c 128,-1,47
 868 -264 868 -264 885 -262 c 1,48,-1
 885 -375 l 1,0,1
268 336 m 0,49,50
 268 241 268 241 301 187 c 128,-1,51
 334 133 334 133 408 133 c 0,52,53
 451 133 451 133 494 153 c 128,-1,54
 537 173 537 173 578 208 c 128,-1,55
 619 243 619 243 655.5 290.5 c 128,-1,56
 692 338 692 338 722.5 392.5 c 128,-1,57
 753 447 753 447 775 506.5 c 128,-1,58
 797 566 797 566 809 625 c 2,59,-1
 850 831 l 1,60,61
 803 851 803 851 753.5 862.5 c 128,-1,62
 704 874 704 874 662 874 c 0,63,64
 580 874 580 874 519 846 c 128,-1,65
 458 818 458 818 414 773 c 128,-1,66
 370 728 370 728 342 670.5 c 128,-1,67
 314 613 314 613 297.5 553 c 128,-1,68
 281 493 281 493 274.5 436 c 128,-1,69
 268 379 268 379 268 336 c 0,49,50
EndSplineSet
EndChar

StartChar: ae
Encoding: 230 230 167
Width: 1126
GlyphClass: 2
Flags: W
AnchorPoint: "Anchor-11" 0 1700 basechar 0
AnchorPoint: "Anchor-10" 1126 1700 basechar 0
AnchorPoint: "Anchor-9" 900 0 basechar 0
AnchorPoint: "Anchor-6" 1126 -350 basechar 0
AnchorPoint: "Anchor-5" 1126 1700 basechar 0
AnchorPoint: "Anchor-4" 910 930 basechar 0
AnchorPoint: "Anchor-2" 563 -180 basechar 0
AnchorPoint: "Anchor-1" 1113 1160 basechar 0
AnchorPoint: "Anchor-0" 563 1200 basechar 0
LayerCount: 2
Fore
SplineSet
422 1022 m 0,0,1
 511 1022 511 1022 571.5 993.5 c 128,-1,2
 632 965 632 965 647 901 c 1,3,4
 689 957 689 957 752 989.5 c 128,-1,5
 815 1022 815 1022 883 1022 c 0,6,7
 952 1022 952 1022 999 1000 c 128,-1,8
 1046 978 1046 978 1075 942 c 128,-1,9
 1104 906 1104 906 1116.5 860.5 c 128,-1,10
 1129 815 1129 815 1128 768 c 0,11,12
 1128 703 1128 703 1103 646.5 c 128,-1,13
 1078 590 1078 590 1028 548 c 128,-1,14
 978 506 978 506 903.5 481.5 c 128,-1,15
 829 457 829 457 731 457 c 2,16,-1
 629 457 l 1,17,18
 610 369 610 369 610 301 c 0,19,20
 610 213 610 213 645.5 167.5 c 128,-1,21
 681 122 681 122 762 122 c 0,22,23
 819 122 819 122 870.5 134 c 128,-1,24
 922 146 922 146 967 163 c 1,25,-1
 967 25 l 1,26,27
 916 5 916 5 849 -6.5 c 128,-1,28
 782 -18 782 -18 719 -18 c 0,29,30
 622 -18 622 -18 557.5 26.5 c 128,-1,31
 493 71 493 71 471 156 c 1,32,33
 426 72 426 72 355 27 c 128,-1,34
 284 -18 284 -18 207 -18 c 0,35,36
 97 -18 97 -18 36 38 c 128,-1,37
 -25 94 -25 94 -25 197 c 0,38,39
 -25 225 -25 225 -20 264.5 c 128,-1,40
 -15 304 -15 304 -0.5 347.5 c 128,-1,41
 14 391 14 391 41.5 433.5 c 128,-1,42
 69 476 69 476 113.5 510 c 128,-1,43
 158 544 158 544 222.5 565 c 128,-1,44
 287 586 287 586 377 586 c 2,45,-1
 500 586 l 1,46,-1
 516 670 l 2,47,48
 521 693 521 693 523.5 714 c 128,-1,49
 526 735 526 735 526 754 c 0,50,51
 526 816 526 816 495 849 c 128,-1,52
 464 882 464 882 393 882 c 0,53,54
 336 882 336 882 281 863 c 128,-1,55
 226 844 226 844 158 809 c 1,56,-1
 158 958 l 1,57,58
 184 970 184 970 216 981.5 c 128,-1,59
 248 993 248 993 283 1002 c 128,-1,60
 318 1011 318 1011 353.5 1016.5 c 128,-1,61
 389 1022 389 1022 422 1022 c 0,0,1
356 457 m 2,62,63
 289 457 289 457 247 429.5 c 128,-1,64
 205 402 205 402 181.5 364.5 c 128,-1,65
 158 327 158 327 149.5 286.5 c 128,-1,66
 141 246 141 246 141 221 c 0,67,68
 141 203 141 203 146 185 c 128,-1,69
 151 167 151 167 162 153 c 128,-1,70
 173 139 173 139 192 130.5 c 128,-1,71
 211 122 211 122 240 122 c 0,72,73
 271 122 271 122 305.5 143.5 c 128,-1,74
 340 165 340 165 370.5 202 c 128,-1,75
 401 239 401 239 426 289 c 128,-1,76
 451 339 451 339 463 397 c 2,77,-1
 475 457 l 1,78,-1
 356 457 l 2,62,63
864 882 m 0,79,80
 827 882 827 882 794.5 859.5 c 128,-1,81
 762 837 762 837 735 797.5 c 128,-1,82
 708 758 708 758 687 703.5 c 128,-1,83
 666 649 666 649 653 586 c 1,84,-1
 752 586 l 2,85,86
 796 586 796 586 835 598 c 128,-1,87
 874 610 874 610 903 632.5 c 128,-1,88
 932 655 932 655 948.5 687.5 c 128,-1,89
 965 720 965 720 965 762 c 0,90,91
 965 787 965 787 959 809 c 128,-1,92
 953 831 953 831 940 847.5 c 128,-1,93
 927 864 927 864 908 873 c 128,-1,94
 889 882 889 882 864 882 c 0,79,80
EndSplineSet
EndChar

StartChar: ccedilla
Encoding: 231 231 173
Width: 1126
GlyphClass: 2
Flags: W
AnchorPoint: "Anchor-11" 0 1700 basechar 0
AnchorPoint: "Anchor-10" 1126 1700 basechar 0
AnchorPoint: "Anchor-9" 500 -295 basechar 0
AnchorPoint: "Anchor-6" 1126 -350 basechar 0
AnchorPoint: "Anchor-5" 1126 1700 basechar 0
AnchorPoint: "Anchor-2" 623 -385 basechar 0
AnchorPoint: "Anchor-1" 990 1160 basechar 0
AnchorPoint: "Anchor-0" 623 1200 basechar 0
LayerCount: 2
Fore
SplineSet
580 -14 m 1,0,-1
 442 -295 l 1,1,-1
 290 -295 l 1,2,-1
 415 0 l 1,3,4
 280 30 280 30 210.5 119 c 128,-1,5
 141 208 141 208 141 356 c 0,6,7
 141 508 141 508 189 630.5 c 128,-1,8
 237 753 237 753 320 839 c 128,-1,9
 403 925 403 925 514 971.5 c 128,-1,10
 625 1018 625 1018 750 1018 c 0,11,12
 822 1018 822 1018 894.5 1007 c 128,-1,13
 967 996 967 996 1032 971 c 1,14,-1
 1001 813 l 1,15,16
 946 839 946 839 876 854.5 c 128,-1,17
 806 870 806 870 741 870 c 0,18,19
 640 870 640 870 562.5 828 c 128,-1,20
 485 786 485 786 432 716.5 c 128,-1,21
 379 647 379 647 351.5 558.5 c 128,-1,22
 324 470 324 470 324 377 c 0,23,24
 324 255 324 255 390 194 c 128,-1,25
 456 133 456 133 584 133 c 0,26,27
 650 133 650 133 722.5 147 c 128,-1,28
 795 161 795 161 860 188 c 1,29,-1
 860 41 l 1,30,31
 779 13 779 13 712 0.5 c 128,-1,32
 645 -12 645 -12 580 -14 c 1,0,-1
EndSplineSet
EndChar

StartChar: eth
Encoding: 240 240 175
Width: 1126
GlyphClass: 2
Flags: W
AnchorPoint: "Anchor-11" 0 1700 basechar 0
AnchorPoint: "Anchor-10" 1126 1700 basechar 0
AnchorPoint: "Anchor-9" 700 20 basechar 0
AnchorPoint: "Anchor-6" 1126 -350 basechar 0
AnchorPoint: "Anchor-5" 1126 1700 basechar 0
AnchorPoint: "Anchor-2" 563 -180 basechar 0
AnchorPoint: "Anchor-1" 1072 1503 basechar 0
AnchorPoint: "Anchor-0" 563 1503 basechar 0
LayerCount: 2
Fore
SplineSet
788 852 m 1,0,1
 748 861 748 861 714 864.5 c 128,-1,2
 680 868 680 868 651 868 c 0,3,4
 572 868 572 868 512.5 841 c 128,-1,5
 453 814 453 814 409.5 770.5 c 128,-1,6
 366 727 366 727 337.5 672 c 128,-1,7
 309 617 309 617 291.5 562 c 128,-1,8
 274 507 274 507 267 457 c 128,-1,9
 260 407 260 407 260 373 c 0,10,11
 260 313 260 313 275.5 267.5 c 128,-1,12
 291 222 291 222 319 191 c 128,-1,13
 347 160 347 160 387 144.5 c 128,-1,14
 427 129 427 129 475 129 c 0,15,16
 539 129 539 129 591 151 c 128,-1,17
 643 173 643 173 683 209.5 c 128,-1,18
 723 246 723 246 751.5 294.5 c 128,-1,19
 780 343 780 343 798.5 397 c 128,-1,20
 817 451 817 451 825.5 506 c 128,-1,21
 834 561 834 561 834 612 c 0,22,23
 834 671 834 671 822.5 729 c 128,-1,24
 811 787 811 787 788 852 c 1,0,1
721 1010 m 1,25,26
 707 1039 707 1039 690 1073.5 c 128,-1,27
 673 1108 673 1108 653 1143 c 1,28,-1
 369 1083 l 1,29,-1
 369 1229 l 1,30,-1
 582 1270 l 1,31,-1
 500 1413 l 1,32,-1
 700 1413 l 1,33,-1
 760 1309 l 1,34,-1
 1065 1370 l 1,35,-1
 1065 1225 l 1,36,-1
 831 1178 l 1,37,38
 873 1099 873 1099 906 1025.5 c 128,-1,39
 939 952 939 952 962 882.5 c 128,-1,40
 985 813 985 813 997.5 745.5 c 128,-1,41
 1010 678 1010 678 1010 610 c 0,42,43
 1010 539 1010 539 996 464.5 c 128,-1,44
 982 390 982 390 952.5 320 c 128,-1,45
 923 250 923 250 877.5 188.5 c 128,-1,46
 832 127 832 127 770 81 c 128,-1,47
 708 35 708 35 629 8.5 c 128,-1,48
 550 -18 550 -18 453 -18 c 0,49,50
 364 -18 364 -18 295 7.5 c 128,-1,51
 226 33 226 33 179 81 c 128,-1,52
 132 129 132 129 107 198.5 c 128,-1,53
 82 268 82 268 82 356 c 0,54,55
 82 434 82 434 99 513.5 c 128,-1,56
 116 593 116 593 149.5 666 c 128,-1,57
 183 739 183 739 231.5 802.5 c 128,-1,58
 280 866 280 866 343.5 913 c 128,-1,59
 407 960 407 960 484 987 c 128,-1,60
 561 1014 561 1014 651 1014 c 0,61,62
 654 1014 654 1014 663 1013.5 c 128,-1,63
 672 1013 672 1013 683 1012.5 c 128,-1,64
 694 1012 694 1012 704.5 1011.5 c 128,-1,65
 715 1011 715 1011 721 1010 c 1,25,26
EndSplineSet
EndChar

StartChar: dcroat
Encoding: 273 273 176
Width: 1126
GlyphClass: 2
Flags: W
AnchorPoint: "Anchor-11" 0 1700 basechar 0
AnchorPoint: "Anchor-10" 1126 1700 basechar 0
AnchorPoint: "Anchor-9" 930 0 basechar 0
AnchorPoint: "Anchor-6" 1126 -350 basechar 0
AnchorPoint: "Anchor-5" 1126 1700 basechar 0
AnchorPoint: "Anchor-2" 563 -180 basechar 0
AnchorPoint: "Anchor-1" 1011 1500 basechar 0
AnchorPoint: "Anchor-0" 563 1500 basechar 0
LayerCount: 2
Fore
SplineSet
631 1282 m 1,0,-1
 920 1282 l 1,1,-1
 946 1413 l 1,2,-1
 1120 1413 l 1,3,-1
 1094 1282 l 1,4,-1
 1280 1282 l 1,5,-1
 1251 1137 l 1,6,-1
 1065 1137 l 1,7,-1
 930 461 l 2,8,9
 926 442 926 442 921.5 411 c 128,-1,10
 917 380 917 380 910.5 327.5 c 128,-1,11
 904 275 904 275 895 195.5 c 128,-1,12
 886 116 886 116 874 0 c 1,13,-1
 711 0 l 1,14,-1
 735 231 l 1,15,16
 666 111 666 111 572.5 46.5 c 128,-1,17
 479 -18 479 -18 365 -18 c 0,18,19
 293 -18 293 -18 239.5 6 c 128,-1,20
 186 30 186 30 151 74.5 c 128,-1,21
 116 119 116 119 99 181 c 128,-1,22
 82 243 82 243 82 319 c 0,23,24
 82 463 82 463 119.5 589.5 c 128,-1,25
 157 716 157 716 230 811 c 128,-1,26
 303 906 303 906 410 961 c 128,-1,27
 517 1016 517 1016 657 1016 c 0,28,29
 693 1016 693 1016 721.5 1014.5 c 128,-1,30
 750 1013 750 1013 774 1010 c 128,-1,31
 798 1007 798 1007 819.5 1002 c 128,-1,32
 841 997 841 997 862 991 c 1,33,-1
 891 1137 l 1,34,-1
 602 1137 l 1,35,-1
 631 1282 l 1,0,-1
258 336 m 0,36,37
 258 240 258 240 290.5 186.5 c 128,-1,38
 323 133 323 133 397 133 c 0,39,40
 438 133 438 133 479.5 153 c 128,-1,41
 521 173 521 173 560.5 208 c 128,-1,42
 600 243 600 243 636 290.5 c 128,-1,43
 672 338 672 338 702 392.5 c 128,-1,44
 732 447 732 447 754 506.5 c 128,-1,45
 776 566 776 566 788 625 c 2,46,-1
 829 831 l 1,47,48
 783 851 783 851 738 862.5 c 128,-1,49
 693 874 693 874 651 874 c 0,50,51
 569 874 569 874 508 846 c 128,-1,52
 447 818 447 818 403.5 773 c 128,-1,53
 360 728 360 728 332 670.5 c 128,-1,54
 304 613 304 613 287.5 553 c 128,-1,55
 271 493 271 493 264.5 436 c 128,-1,56
 258 379 258 379 258 336 c 0,36,37
EndSplineSet
EndChar

StartChar: eogonek
Encoding: 281 281 185
Width: 1126
GlyphClass: 2
Flags: W
AnchorPoint: "Anchor-11" 0 1700 basechar 0
AnchorPoint: "Anchor-10" 1126 1700 basechar 0
AnchorPoint: "Anchor-9" 780 -385 basechar 0
AnchorPoint: "Anchor-6" 1126 -350 basechar 0
AnchorPoint: "Anchor-5" 1126 1700 basechar 0
AnchorPoint: "Anchor-2" 563 -475 basechar 0
AnchorPoint: "Anchor-1" 1008 1160 basechar 0
AnchorPoint: "Anchor-0" 563 1200 basechar 0
LayerCount: 2
Fore
SplineSet
735 -375 m 1,0,1
 710 -380 710 -380 678.5 -382.5 c 128,-1,2
 647 -385 647 -385 623 -385 c 0,3,4
 569 -385 569 -385 530 -373.5 c 128,-1,5
 491 -362 491 -362 466.5 -342.5 c 128,-1,6
 442 -323 442 -323 430 -297 c 128,-1,7
 418 -271 418 -271 418 -242 c 0,8,9
 418 -218 418 -218 423.5 -194.5 c 128,-1,10
 429 -171 429 -171 445 -144 c 128,-1,11
 461 -117 461 -117 488 -86 c 128,-1,12
 515 -55 515 -55 559 -17 c 1,13,14
 548 -18 548 -18 537.5 -18 c 128,-1,15
 527 -18 527 -18 516 -18 c 0,16,17
 304 -18 304 -18 203 76.5 c 128,-1,18
 102 171 102 171 102 350 c 0,19,20
 102 488 102 488 145 610 c 128,-1,21
 188 732 188 732 264 823.5 c 128,-1,22
 340 915 340 915 444.5 968.5 c 128,-1,23
 549 1022 549 1022 672 1022 c 0,24,25
 757 1022 757 1022 823.5 1002 c 128,-1,26
 890 982 890 982 936 947 c 128,-1,27
 982 912 982 912 1006 864.5 c 128,-1,28
 1030 817 1030 817 1030 762 c 0,29,30
 1030 690 1030 690 999.5 632 c 128,-1,31
 969 574 969 574 902.5 532.5 c 128,-1,32
 836 491 836 491 731 468.5 c 128,-1,33
 626 446 626 446 477 446 c 2,34,-1
 289 446 l 1,35,36
 284 420 284 420 281.5 397 c 128,-1,37
 279 374 279 374 279 352 c 0,38,39
 279 243 279 243 344 185 c 128,-1,40
 409 127 409 127 545 127 c 0,41,42
 633 127 633 127 719.5 140 c 128,-1,43
 806 153 806 153 874 170 c 1,44,-1
 874 27 l 1,45,46
 845 19 845 19 812.5 12 c 128,-1,47
 780 5 780 5 745 0 c 1,48,49
 695 -43 695 -43 664 -74.5 c 128,-1,50
 633 -106 633 -106 615.5 -130.5 c 128,-1,51
 598 -155 598 -155 592 -175 c 128,-1,52
 586 -195 586 -195 586 -215 c 256,53,54
 586 -235 586 -235 602.5 -250.5 c 128,-1,55
 619 -266 619 -266 666 -266 c 0,56,57
 680 -266 680 -266 699 -265 c 128,-1,58
 718 -264 718 -264 735 -262 c 1,59,-1
 735 -375 l 1,0,1
475 580 m 2,60,61
 586 580 586 580 658.5 593.5 c 128,-1,62
 731 607 731 607 773.5 630 c 128,-1,63
 816 653 816 653 833 683 c 128,-1,64
 850 713 850 713 850 745 c 0,65,66
 850 773 850 773 839 798 c 128,-1,67
 828 823 828 823 804.5 842 c 128,-1,68
 781 861 781 861 745.5 872 c 128,-1,69
 710 883 710 883 662 883 c 0,70,71
 597 883 597 883 543.5 861.5 c 128,-1,72
 490 840 490 840 447 800.5 c 128,-1,73
 404 761 404 761 371 705 c 128,-1,74
 338 649 338 649 315 580 c 1,75,-1
 475 580 l 2,60,61
EndSplineSet
EndChar

StartChar: uniFB01
Encoding: 64257 64257 186
Width: 1126
GlyphClass: 2
Flags: W
LayerCount: 2
Fore
SplineSet
297 0 m 2,0,1
 277 -103 277 -103 242 -204.5 c 128,-1,2
 207 -306 207 -306 156 -410 c 1,3,-1
 -20 -410 l 1,4,5
 32 -306 32 -306 67.5 -204 c 128,-1,6
 103 -102 103 -102 123 0 c 2,7,-1
 274 758 l 1,8,-1
 96 758 l 1,9,-1
 125 903 l 1,10,-1
 303 903 l 1,11,-1
 330 1034 l 2,12,13
 370 1233 370 1233 497 1329 c 128,-1,14
 624 1425 624 1425 848 1425 c 0,15,16
 874 1425 874 1425 906.5 1423 c 128,-1,17
 939 1421 939 1421 973.5 1416.5 c 128,-1,18
 1008 1412 1008 1412 1042 1406 c 128,-1,19
 1076 1400 1076 1400 1106 1393 c 1,20,-1
 1075 1243 l 1,21,22
 1018 1260 1018 1260 952.5 1270 c 128,-1,23
 887 1280 887 1280 827 1280 c 0,24,25
 693 1280 693 1280 610 1214 c 128,-1,26
 527 1148 527 1148 502 1024 c 2,27,-1
 477 903 l 1,28,-1
 1040 903 l 1,29,-1
 860 0 l 1,30,-1
 686 0 l 1,31,-1
 838 758 l 1,32,-1
 449 758 l 1,33,-1
 297 0 l 2,0,1
0 1004 m 1024,34,-1
EndSplineSet
Ligature2: "'dlig' Discretionary Ligatures in Latin lookup 21 subtable" f i
EndChar

StartChar: uniFB02
Encoding: 64258 64258 187
Width: 1126
GlyphClass: 2
Flags: W
LayerCount: 2
Fore
SplineSet
297 0 m 2,0,1
 277 -103 277 -103 242 -204.5 c 128,-1,2
 207 -306 207 -306 156 -410 c 1,3,-1
 -20 -410 l 1,4,5
 32 -306 32 -306 67.5 -204 c 128,-1,6
 103 -102 103 -102 123 0 c 2,7,-1
 274 758 l 1,8,-1
 96 758 l 1,9,-1
 125 903 l 1,10,-1
 303 903 l 1,11,-1
 330 1034 l 2,12,13
 370 1233 370 1233 497 1329 c 128,-1,14
 624 1425 624 1425 844 1425 c 0,15,16
 909 1425 909 1425 986 1418.5 c 128,-1,17
 1063 1412 1063 1412 1139 1395 c 1,18,-1
 860 0 l 1,19,-1
 686 0 l 1,20,-1
 940 1276 l 1,21,22
 911 1281 911 1281 882 1282.5 c 128,-1,23
 853 1284 853 1284 821 1284 c 0,24,25
 685 1284 685 1284 606 1216 c 128,-1,26
 527 1148 527 1148 502 1024 c 2,27,-1
 477 903 l 1,28,-1
 690 903 l 1,29,-1
 662 758 l 1,30,-1
 449 758 l 1,31,-1
 297 0 l 2,0,1
0 1004 m 1024,32,-1
EndSplineSet
Ligature2: "'dlig' Discretionary Ligatures in Latin lookup 21 subtable" f l
EndChar

StartChar: hbar
Encoding: 295 295 193
Width: 1126
GlyphClass: 2
Flags: W
AnchorPoint: "Anchor-11" 0 1700 basechar 0
AnchorPoint: "Anchor-10" 1126 1700 basechar 0
AnchorPoint: "Anchor-9" 900 0 basechar 0
AnchorPoint: "Anchor-6" 1126 -350 basechar 0
AnchorPoint: "Anchor-5" 1126 1700 basechar 0
AnchorPoint: "Anchor-2" 563 -180 basechar 0
AnchorPoint: "Anchor-1" 967 1413 basechar 0
AnchorPoint: "Anchor-0" 563 1503 basechar 0
LayerCount: 2
Fore
SplineSet
864 0 m 1,0,-1
 690 0 l 1,1,-1
 809 592 l 2,2,3
 833 709 833 709 804.5 766 c 128,-1,4
 776 823 776 823 697 823 c 0,5,6
 633 823 633 823 569.5 779.5 c 128,-1,7
 506 736 506 736 451 665 c 128,-1,8
 396 594 396 594 355.5 506 c 128,-1,9
 315 418 315 418 297 330 c 2,10,-1
 231 0 l 1,11,-1
 57 0 l 1,12,-1
 285 1139 l 1,13,-1
 125 1139 l 1,14,-1
 154 1280 l 1,15,-1
 313 1280 l 1,16,-1
 340 1413 l 1,17,-1
 514 1413 l 1,18,-1
 487 1280 l 1,19,-1
 803 1280 l 1,20,-1
 774 1139 l 1,21,-1
 459 1139 l 1,22,-1
 422 954 l 1,23,-1
 367 741 l 1,24,25
 395 793 395 793 434 836 c 128,-1,26
 473 879 473 879 519.5 909.5 c 128,-1,27
 566 940 566 940 619 956.5 c 128,-1,28
 672 973 672 973 729 973 c 0,29,30
 888 973 888 973 954 875 c 128,-1,31
 1020 777 1020 777 983 590 c 2,32,-1
 864 0 l 1,0,-1
0 1004 m 1024,33,-1
EndSplineSet
EndChar

StartChar: iogonek
Encoding: 303 303 201
Width: 1126
GlyphClass: 2
Flags: W
AnchorPoint: "Anchor-11" 0 1700 basechar 0
AnchorPoint: "Anchor-10" 1126 1700 basechar 0
AnchorPoint: "Anchor-9" 830 -385 basechar 0
AnchorPoint: "Anchor-6" 1126 -350 basechar 0
AnchorPoint: "Anchor-5" 1126 1700 basechar 0
AnchorPoint: "Anchor-2" 563 -475 basechar 0
AnchorPoint: "Anchor-1" 777 1500 basechar 0
AnchorPoint: "Anchor-0" 563 1500 basechar 0
LayerCount: 2
Fore
SplineSet
785 -375 m 1,0,1
 761 -380 761 -380 729.5 -382.5 c 128,-1,2
 698 -385 698 -385 673 -385 c 0,3,4
 619 -385 619 -385 580 -373.5 c 128,-1,5
 541 -362 541 -362 516.5 -342.5 c 128,-1,6
 492 -323 492 -323 480 -297 c 128,-1,7
 468 -271 468 -271 468 -242 c 0,8,9
 468 -218 468 -218 474 -194 c 128,-1,10
 480 -170 480 -170 495.5 -143 c 128,-1,11
 511 -116 511 -116 538.5 -85 c 128,-1,12
 566 -54 566 -54 610 -16 c 1,13,14
 550 -11 550 -11 509.5 11.5 c 128,-1,15
 469 34 469 34 448 77.5 c 128,-1,16
 427 121 427 121 425.5 186.5 c 128,-1,17
 424 252 424 252 442 342 c 2,18,-1
 510 678 l 2,19,20
 522 735 522 735 521.5 773.5 c 128,-1,21
 521 812 521 812 511 835 c 128,-1,22
 501 858 501 858 481.5 867.5 c 128,-1,23
 462 877 462 877 436 877 c 0,24,25
 368 877 368 877 302 850.5 c 128,-1,26
 236 824 236 824 168 786 c 1,27,-1
 168 940 l 1,28,29
 237 978 237 978 313.5 1000 c 128,-1,30
 390 1022 390 1022 477 1022 c 0,31,32
 548 1022 548 1022 596 1002 c 128,-1,33
 644 982 644 982 669.5 938.5 c 128,-1,34
 695 895 695 895 698 827 c 128,-1,35
 701 759 701 759 682 662 c 2,36,-1
 614 326 l 2,37,38
 603 268 603 268 603 230 c 128,-1,39
 603 192 603 192 613.5 169 c 128,-1,40
 624 146 624 146 643 136.5 c 128,-1,41
 662 127 662 127 688 127 c 0,42,43
 756 127 756 127 822 153.5 c 128,-1,44
 888 180 888 180 956 217 c 1,45,-1
 956 63 l 1,46,47
 918 42 918 42 878 26 c 128,-1,48
 838 10 838 10 795 0 c 1,49,50
 745 -43 745 -43 714 -74.5 c 128,-1,51
 683 -106 683 -106 666 -130.5 c 128,-1,52
 649 -155 649 -155 642.5 -175 c 128,-1,53
 636 -195 636 -195 636 -215 c 256,54,55
 636 -235 636 -235 652.5 -250.5 c 128,-1,56
 669 -266 669 -266 716 -266 c 0,57,58
 730 -266 730 -266 749 -265 c 128,-1,59
 768 -264 768 -264 785 -262 c 1,60,-1
 785 -375 l 1,0,1
543 1282 m 0,61,62
 543 1313 543 1313 554 1339 c 128,-1,63
 565 1365 565 1365 584.5 1384 c 128,-1,64
 604 1403 604 1403 630 1414 c 128,-1,65
 656 1425 656 1425 686 1425 c 0,66,67
 715 1425 715 1425 739 1414.5 c 128,-1,68
 763 1404 763 1404 780.5 1386.5 c 128,-1,69
 798 1369 798 1369 807.5 1345 c 128,-1,70
 817 1321 817 1321 817 1294 c 0,71,72
 817 1263 817 1263 806 1237 c 128,-1,73
 795 1211 795 1211 775.5 1192 c 128,-1,74
 756 1173 756 1173 730 1162 c 128,-1,75
 704 1151 704 1151 674 1151 c 0,76,77
 645 1151 645 1151 620.5 1161.5 c 128,-1,78
 596 1172 596 1172 579 1189.5 c 128,-1,79
 562 1207 562 1207 552.5 1231 c 128,-1,80
 543 1255 543 1255 543 1282 c 0,61,62
EndSplineSet
Substitution2: "Single Substitution lookup 34 subtable" glyph935
Substitution2: "'ss05' Style Set 5 lookup 29 subtable" iogonek.ss05
Substitution2: "'ss04' Style Set 4 lookup 28 subtable" iogonek.ss04
AlternateSubs2: "'salt' Stylistic Alternatives lookup 22 subtable" iogonek.ss05 iogonek.ss04
EndChar

StartChar: dotlessi
Encoding: 305 305 202
Width: 1126
GlyphClass: 2
Flags: W
AnchorPoint: "Anchor-11" 0 1700 basechar 0
AnchorPoint: "Anchor-10" 1126 1700 basechar 0
AnchorPoint: "Anchor-9" 870 0 basechar 0
AnchorPoint: "Anchor-6" 1126 -350 basechar 0
AnchorPoint: "Anchor-5" 1126 1700 basechar 0
AnchorPoint: "Anchor-4" 480 1000 basechar 0
AnchorPoint: "Anchor-2" 563 -180 basechar 0
AnchorPoint: "Anchor-1" 777 1184 basechar 0
AnchorPoint: "Anchor-0" 563 1184 basechar 0
LayerCount: 2
Fore
SplineSet
956 63 m 1,0,1
 887 25 887 25 810.5 3.5 c 128,-1,2
 734 -18 734 -18 647 -18 c 0,3,4
 576 -18 576 -18 528 2 c 128,-1,5
 480 22 480 22 454.5 65.5 c 128,-1,6
 429 109 429 109 426 177 c 128,-1,7
 423 245 423 245 442 342 c 2,8,-1
 510 678 l 2,9,10
 522 735 522 735 521.5 773.5 c 128,-1,11
 521 812 521 812 511 835 c 128,-1,12
 501 858 501 858 481.5 867.5 c 128,-1,13
 462 877 462 877 436 877 c 0,14,15
 368 877 368 877 302 850.5 c 128,-1,16
 236 824 236 824 168 786 c 1,17,-1
 168 940 l 1,18,19
 237 978 237 978 313.5 1000 c 128,-1,20
 390 1022 390 1022 477 1022 c 0,21,22
 548 1022 548 1022 596 1002 c 128,-1,23
 644 982 644 982 669.5 938.5 c 128,-1,24
 695 895 695 895 698 827 c 128,-1,25
 701 759 701 759 682 662 c 2,26,-1
 614 326 l 2,27,28
 603 268 603 268 603 230 c 128,-1,29
 603 192 603 192 613.5 169 c 128,-1,30
 624 146 624 146 643 136.5 c 128,-1,31
 662 127 662 127 688 127 c 0,32,33
 756 127 756 127 822 153.5 c 128,-1,34
 888 180 888 180 956 217 c 1,35,-1
 956 63 l 1,0,1
EndSplineSet
Substitution2: "'ss05' Style Set 5 lookup 29 subtable" dotlessi.ss05
Substitution2: "'ss04' Style Set 4 lookup 28 subtable" dotlessi.ss04
AlternateSubs2: "'salt' Stylistic Alternatives lookup 22 subtable" dotlessi.ss05 dotlessi.ss04
EndChar

StartChar: ij
Encoding: 307 307 203
Width: 1126
GlyphClass: 2
Flags: W
AnchorPoint: "Anchor-11" 0 1700 basechar 0
AnchorPoint: "Anchor-10" 1126 1700 basechar 0
AnchorPoint: "Anchor-9" 710 -350 basechar 0
AnchorPoint: "Anchor-6" 1126 -350 basechar 0
AnchorPoint: "Anchor-5" 1126 1700 basechar 0
AnchorPoint: "Anchor-2" 563 -550 basechar 0
AnchorPoint: "Anchor-1" 1086 1513 basechar 0
AnchorPoint: "Anchor-0" 563 1500 basechar 0
LayerCount: 2
Fore
SplineSet
223 -211 m 1,0,1
 260 -237 260 -237 306 -253.5 c 128,-1,2
 352 -270 352 -270 401 -270 c 0,3,4
 509 -270 509 -270 587 -197.5 c 128,-1,5
 665 -125 665 -125 694 23 c 2,6,-1
 891 1004 l 1,7,-1
 1065 1004 l 1,8,-1
 864 8 l 2,9,10
 843 -100 843 -100 800.5 -180.5 c 128,-1,11
 758 -261 758 -261 698 -314.5 c 128,-1,12
 638 -368 638 -368 561.5 -394 c 128,-1,13
 485 -420 485 -420 395 -420 c 0,14,15
 312 -420 312 -420 252 -401 c 128,-1,16
 192 -382 192 -382 139 -348 c 1,17,-1
 223 -211 l 1,0,1
432 1004 m 1,18,-1
 231 0 l 1,19,-1
 57 0 l 1,20,-1
 258 1004 l 1,21,-1
 432 1004 l 1,18,-1
261 1282 m 0,22,23
 261 1313 261 1313 272 1339 c 128,-1,24
 283 1365 283 1365 302 1384 c 128,-1,25
 321 1403 321 1403 347 1414 c 128,-1,26
 373 1425 373 1425 403 1425 c 0,27,28
 432 1425 432 1425 456.5 1414.5 c 128,-1,29
 481 1404 481 1404 498.5 1386.5 c 128,-1,30
 516 1369 516 1369 525.5 1345 c 128,-1,31
 535 1321 535 1321 535 1294 c 0,32,33
 535 1263 535 1263 523.5 1237 c 128,-1,34
 512 1211 512 1211 492.5 1192 c 128,-1,35
 473 1173 473 1173 447 1162 c 128,-1,36
 421 1151 421 1151 391 1151 c 0,37,38
 362 1151 362 1151 337.5 1161.5 c 128,-1,39
 313 1172 313 1172 296.5 1189.5 c 128,-1,40
 280 1207 280 1207 270.5 1231 c 128,-1,41
 261 1255 261 1255 261 1282 c 0,22,23
893 1282 m 0,42,43
 893 1313 893 1313 904 1339 c 128,-1,44
 915 1365 915 1365 934.5 1384 c 128,-1,45
 954 1403 954 1403 980 1414 c 128,-1,46
 1006 1425 1006 1425 1036 1425 c 0,47,48
 1065 1425 1065 1425 1089 1414.5 c 128,-1,49
 1113 1404 1113 1404 1130.5 1386.5 c 128,-1,50
 1148 1369 1148 1369 1157.5 1345 c 128,-1,51
 1167 1321 1167 1321 1167 1294 c 0,52,53
 1167 1263 1167 1263 1156 1237 c 128,-1,54
 1145 1211 1145 1211 1125.5 1192 c 128,-1,55
 1106 1173 1106 1173 1080 1162 c 128,-1,56
 1054 1151 1054 1151 1024 1151 c 0,57,58
 995 1151 995 1151 970.5 1161.5 c 128,-1,59
 946 1172 946 1172 929 1189.5 c 128,-1,60
 912 1207 912 1207 902.5 1231 c 128,-1,61
 893 1255 893 1255 893 1282 c 0,42,43
EndSplineSet
EndChar

StartChar: uni0237
Encoding: 567 567 204
Width: 1126
GlyphClass: 2
Flags: W
AnchorPoint: "Anchor-11" 0 1700 basechar 0
AnchorPoint: "Anchor-10" 1126 1700 basechar 0
AnchorPoint: "Anchor-9" 580 -350 basechar 0
AnchorPoint: "Anchor-6" 1126 -350 basechar 0
AnchorPoint: "Anchor-5" 1126 1700 basechar 0
AnchorPoint: "Anchor-2" 563 -550 basechar 0
AnchorPoint: "Anchor-1" 906 1094 basechar 0
AnchorPoint: "Anchor-0" 733 1184 basechar 0
LayerCount: 2
Fore
SplineSet
250 934 m 1,0,1
 339 975 339 975 431.5 998.5 c 128,-1,2
 524 1022 524 1022 635 1022 c 0,3,4
 719 1022 719 1022 773.5 1001 c 128,-1,5
 828 980 828 980 855.5 936.5 c 128,-1,6
 883 893 883 893 886 826 c 128,-1,7
 889 759 889 759 870 666 c 2,8,-1
 737 2 l 2,9,10
 716 -106 716 -106 669.5 -185 c 128,-1,11
 623 -264 623 -264 559.5 -316.5 c 128,-1,12
 496 -369 496 -369 419 -394.5 c 128,-1,13
 342 -420 342 -420 258 -420 c 0,14,15
 199 -420 199 -420 147.5 -409 c 128,-1,16
 96 -398 96 -398 52.5 -379 c 128,-1,17
 9 -360 9 -360 -27 -334.5 c 128,-1,18
 -63 -309 -63 -309 -92 -279 c 1,19,-1
 20 -166 l 1,20,21
 64 -214 64 -214 128.5 -244 c 128,-1,22
 193 -274 193 -274 268 -274 c 0,23,24
 379 -274 379 -274 457 -199 c 128,-1,25
 535 -124 535 -124 569 43 c 2,26,-1
 694 666 l 2,27,28
 707 730 707 730 706.5 771.5 c 128,-1,29
 706 813 706 813 693.5 836 c 128,-1,30
 681 859 681 859 656 868 c 128,-1,31
 631 877 631 877 596 877 c 0,32,33
 509 877 509 877 425 850 c 128,-1,34
 341 823 341 823 250 782 c 1,35,-1
 250 934 l 1,0,1
EndSplineSet
Substitution2: "'ss05' Style Set 5 lookup 29 subtable" uni0237.ss04
Substitution2: "'ss04' Style Set 4 lookup 28 subtable" uni0237.ss04
AlternateSubs2: "'salt' Stylistic Alternatives lookup 22 subtable" uni0237.ss04
EndChar

StartChar: lslash
Encoding: 322 322 211
Width: 1126
GlyphClass: 2
Flags: W
AnchorPoint: "Anchor-11" 0 1700 basechar 0
AnchorPoint: "Anchor-10" 1126 1700 basechar 0
AnchorPoint: "Anchor-9" 950 60 basechar 0
AnchorPoint: "Anchor-6" 1126 -350 basechar 0
AnchorPoint: "Anchor-5" 1126 1700 basechar 0
AnchorPoint: "Anchor-2" 563 -180 basechar 0
AnchorPoint: "Anchor-1" 773 1500 basechar 0
AnchorPoint: "Anchor-0" 563 1500 basechar 0
LayerCount: 2
Fore
SplineSet
78 672 m 1,0,-1
 344 793 l 1,1,-1
 469 1413 l 1,2,-1
 647 1413 l 1,3,-1
 541 885 l 1,4,-1
 903 1051 l 1,5,-1
 903 903 l 1,6,-1
 508 723 l 1,7,-1
 451 430 l 2,8,9
 433 341 433 341 428.5 284 c 128,-1,10
 424 227 424 227 435 194 c 128,-1,11
 446 161 446 161 472.5 148 c 128,-1,12
 499 135 499 135 543 135 c 0,13,14
 617 135 617 135 707.5 156 c 128,-1,15
 798 177 798 177 909 223 c 1,16,-1
 909 68 l 1,17,18
 813 29 813 29 717.5 7.5 c 128,-1,19
 622 -14 622 -14 522 -14 c 0,20,21
 428 -14 428 -14 368 9 c 128,-1,22
 308 32 308 32 278 84.5 c 128,-1,23
 248 137 248 137 247 222 c 128,-1,24
 246 307 246 307 270 430 c 2,25,-1
 311 631 l 1,26,-1
 78 524 l 1,27,-1
 78 672 l 1,0,-1
EndSplineSet
AlternateSubs2: "'ss06' Style Set 6 lookup 30 subtable" glyph300
Substitution2: "'ss04' Style Set 4 lookup 28 subtable" lslash.ss04
AlternateSubs2: "'salt' Stylistic Alternatives lookup 22 subtable" lslash.ss04 glyph300
EndChar

StartChar: eng
Encoding: 331 331 218
Width: 1126
GlyphClass: 2
Flags: W
AnchorPoint: "Anchor-11" 0 1700 basechar 0
AnchorPoint: "Anchor-10" 1126 1700 basechar 0
AnchorPoint: "Anchor-9" 710 -350 basechar 0
AnchorPoint: "Anchor-6" 1126 -350 basechar 0
AnchorPoint: "Anchor-5" 1126 1700 basechar 0
AnchorPoint: "Anchor-2" 563 -510 basechar 0
AnchorPoint: "Anchor-1" 1017 1160 basechar 0
AnchorPoint: "Anchor-0" 563 1200 basechar 0
LayerCount: 2
Fore
SplineSet
864 8 m 2,0,1
 820 -207 820 -207 693.5 -313.5 c 128,-1,2
 567 -420 567 -420 375 -420 c 1,3,-1
 408 -270 l 1,4,5
 516 -270 516 -270 591 -194 c 128,-1,6
 666 -118 666 -118 694 23 c 2,7,-1
 819 641 l 2,8,9
 844 763 844 763 815.5 817.5 c 128,-1,10
 787 872 787 872 707 872 c 0,11,12
 643 872 643 872 579.5 828 c 128,-1,13
 516 784 516 784 461 713.5 c 128,-1,14
 406 643 406 643 365.5 555 c 128,-1,15
 325 467 325 467 307 379 c 2,16,-1
 231 0 l 1,17,-1
 57 0 l 1,18,-1
 166 543 l 2,19,20
 170 562 170 562 174.5 593 c 128,-1,21
 179 624 179 624 185 676.5 c 128,-1,22
 191 729 191 729 200 808.5 c 128,-1,23
 209 888 209 888 221 1004 c 1,24,-1
 385 1004 l 1,25,-1
 360 772 l 1,26,27
 430 893 430 893 527.5 957.5 c 128,-1,28
 625 1022 625 1022 739 1022 c 0,29,30
 898 1022 898 1022 964.5 926 c 128,-1,31
 1031 830 1031 830 993 643 c 2,32,-1
 864 8 l 2,0,1
EndSplineSet
EndChar

StartChar: oslash
Encoding: 248 248 227
Width: 1126
GlyphClass: 2
Flags: W
AnchorPoint: "Anchor-11" 0 1700 basechar 0
AnchorPoint: "Anchor-10" 1126 1700 basechar 0
AnchorPoint: "Anchor-9" 690 0 basechar 0
AnchorPoint: "Anchor-6" 1126 -350 basechar 0
AnchorPoint: "Anchor-5" 1126 1700 basechar 0
AnchorPoint: "Anchor-4" 810 930 basechar 0
AnchorPoint: "Anchor-2" 563 -305 basechar 0
AnchorPoint: "Anchor-1" 1030 1309 basechar 0
AnchorPoint: "Anchor-0" 563 1309 basechar 0
LayerCount: 2
Fore
SplineSet
467 -18 m 0,0,1
 439 -18 439 -18 414 -15.5 c 128,-1,2
 389 -13 389 -13 365 -10 c 1,3,-1
 256 -215 l 1,4,-1
 98 -215 l 1,5,-1
 231 35 l 1,6,7
 156 80 156 80 114 159 c 128,-1,8
 72 238 72 238 72 352 c 0,9,10
 72 435 72 435 90 516.5 c 128,-1,11
 108 598 108 598 142 672.5 c 128,-1,12
 176 747 176 747 226 811 c 128,-1,13
 276 875 276 875 341 922 c 128,-1,14
 406 969 406 969 484.5 995.5 c 128,-1,15
 563 1022 563 1022 655 1022 c 0,16,17
 681 1022 681 1022 707 1019.5 c 128,-1,18
 733 1017 733 1017 756 1014 c 1,19,-1
 866 1219 l 1,20,-1
 1024 1219 l 1,21,-1
 889 967 l 1,22,23
 966 923 966 923 1008.5 844.5 c 128,-1,24
 1051 766 1051 766 1051 651 c 0,25,26
 1051 569 1051 569 1033 487.5 c 128,-1,27
 1015 406 1015 406 981 331.5 c 128,-1,28
 947 257 947 257 896.5 193 c 128,-1,29
 846 129 846 129 781.5 82 c 128,-1,30
 717 35 717 35 638 8.5 c 128,-1,31
 559 -18 559 -18 467 -18 c 0,0,1
872 633 m 0,32,33
 872 759 872 759 809 819 c 1,34,-1
 440 131 l 1,35,36
 451 129 451 129 463 129 c 128,-1,37
 475 129 475 129 487 129 c 0,38,39
 549 129 549 129 602 150.5 c 128,-1,40
 655 172 655 172 698 209.5 c 128,-1,41
 741 247 741 247 773.5 296.5 c 128,-1,42
 806 346 806 346 828 402 c 128,-1,43
 850 458 850 458 861 517.5 c 128,-1,44
 872 577 872 577 872 633 c 0,32,33
250 371 m 0,45,46
 250 308 250 308 264.5 260.5 c 128,-1,47
 279 213 279 213 311 184 c 1,48,-1
 680 873 l 1,49,50
 669 875 669 875 658 875 c 128,-1,51
 647 875 647 875 635 875 c 0,52,53
 573 875 573 875 520 853.5 c 128,-1,54
 467 832 467 832 424 794 c 128,-1,55
 381 756 381 756 348.5 706.5 c 128,-1,56
 316 657 316 657 294 601.5 c 128,-1,57
 272 546 272 546 261 486.5 c 128,-1,58
 250 427 250 427 250 371 c 0,45,46
EndSplineSet
EndChar

StartChar: oe
Encoding: 339 339 229
Width: 1126
GlyphClass: 2
Flags: W
AnchorPoint: "Anchor-11" 0 1700 basechar 0
AnchorPoint: "Anchor-10" 1126 1700 basechar 0
AnchorPoint: "Anchor-9" 900 0 basechar 0
AnchorPoint: "Anchor-6" 1126 -350 basechar 0
AnchorPoint: "Anchor-5" 1126 1700 basechar 0
AnchorPoint: "Anchor-4" 920 930 basechar 0
AnchorPoint: "Anchor-2" 563 -180 basechar 0
AnchorPoint: "Anchor-1" 1106 1160 basechar 0
AnchorPoint: "Anchor-0" 563 1200 basechar 0
LayerCount: 2
Fore
SplineSet
504 135 m 1,0,1
 488 100 488 100 461 72 c 128,-1,2
 434 44 434 44 401 24 c 128,-1,3
 368 4 368 4 330.5 -7 c 128,-1,4
 293 -18 293 -18 256 -18 c 0,5,6
 128 -18 128 -18 69 52.5 c 128,-1,7
 10 123 10 123 10 268 c 0,8,9
 10 305 10 305 14.5 357.5 c 128,-1,10
 19 410 19 410 29.5 470 c 128,-1,11
 40 530 40 530 57 594 c 128,-1,12
 74 658 74 658 98.5 719.5 c 128,-1,13
 123 781 123 781 156 836 c 128,-1,14
 189 891 189 891 231 932.5 c 128,-1,15
 273 974 273 974 325.5 998 c 128,-1,16
 378 1022 378 1022 442 1022 c 0,17,18
 489 1022 489 1022 525 1011 c 128,-1,19
 561 1000 561 1000 586 980.5 c 128,-1,20
 611 961 611 961 624 935 c 128,-1,21
 637 909 637 909 639 879 c 1,22,23
 651 903 651 903 675.5 928.5 c 128,-1,24
 700 954 700 954 732.5 975 c 128,-1,25
 765 996 765 996 805 1009 c 128,-1,26
 845 1022 845 1022 889 1022 c 0,27,28
 950 1022 950 1022 996 1002.5 c 128,-1,29
 1042 983 1042 983 1072.5 949 c 128,-1,30
 1103 915 1103 915 1118 868.5 c 128,-1,31
 1133 822 1133 822 1133 768 c 0,32,33
 1133 748 1133 748 1128.5 718 c 128,-1,34
 1124 688 1124 688 1110 653.5 c 128,-1,35
 1096 619 1096 619 1069.5 584.5 c 128,-1,36
 1043 550 1043 550 998.5 522 c 128,-1,37
 954 494 954 494 889 476.5 c 128,-1,38
 824 459 824 459 733 459 c 2,39,-1
 651 459 l 1,40,41
 643 417 643 417 639 380.5 c 128,-1,42
 635 344 635 344 635 313 c 0,43,44
 635 220 635 220 670 172.5 c 128,-1,45
 705 125 705 125 774 125 c 0,46,47
 831 125 831 125 879 136 c 128,-1,48
 927 147 927 147 971 164 c 1,49,-1
 971 25 l 1,50,51
 921 5 921 5 855 -6.5 c 128,-1,52
 789 -18 789 -18 727 -18 c 0,53,54
 636 -18 636 -18 582.5 19.5 c 128,-1,55
 529 57 529 57 504 135 c 1,0,1
268 125 m 0,56,57
 310 125 310 125 344.5 160 c 128,-1,58
 379 195 379 195 407 250 c 128,-1,59
 435 305 435 305 455 373 c 128,-1,60
 475 441 475 441 489 508 c 128,-1,61
 503 575 503 575 509.5 633.5 c 128,-1,62
 516 692 516 692 516 727 c 0,63,64
 516 808 516 808 493 843.5 c 128,-1,65
 470 879 470 879 428 879 c 0,66,67
 383 879 383 879 346.5 844.5 c 128,-1,68
 310 810 310 810 281.5 755.5 c 128,-1,69
 253 701 253 701 232.5 632.5 c 128,-1,70
 212 564 212 564 198.5 496.5 c 128,-1,71
 185 429 185 429 178.5 368.5 c 128,-1,72
 172 308 172 308 172 270 c 0,73,74
 172 193 172 193 195.5 159 c 128,-1,75
 219 125 219 125 268 125 c 0,56,57
758 588 m 2,76,77
 805 588 805 588 844 599.5 c 128,-1,78
 883 611 883 611 910.5 633.5 c 128,-1,79
 938 656 938 656 953.5 688 c 128,-1,80
 969 720 969 720 969 762 c 0,81,82
 969 819 969 819 941 849 c 128,-1,83
 913 879 913 879 874 879 c 0,84,85
 805 879 805 879 756 802 c 128,-1,86
 707 725 707 725 678 588 c 1,87,-1
 758 588 l 2,76,77
EndSplineSet
EndChar

StartChar: thorn
Encoding: 254 254 230
Width: 1126
GlyphClass: 2
Flags: W
AnchorPoint: "Anchor-11" 0 1700 basechar 0
AnchorPoint: "Anchor-10" 1126 1700 basechar 0
AnchorPoint: "Anchor-9" 190 -410 basechar 0
AnchorPoint: "Anchor-6" 1126 -350 basechar 0
AnchorPoint: "Anchor-5" 1126 1700 basechar 0
AnchorPoint: "Anchor-2" 563 -500 basechar 0
AnchorPoint: "Anchor-1" 978 1413 basechar 0
AnchorPoint: "Anchor-0" 563 1503 basechar 0
LayerCount: 2
Fore
SplineSet
340 1413 m 1,0,-1
 514 1413 l 1,1,-1
 436 1024 l 1,2,-1
 371 782 l 1,3,4
 402 838 402 838 442 882.5 c 128,-1,5
 482 927 482 927 529.5 958 c 128,-1,6
 577 989 577 989 630.5 1005.5 c 128,-1,7
 684 1022 684 1022 741 1022 c 0,8,9
 813 1022 813 1022 866.5 997.5 c 128,-1,10
 920 973 920 973 955 929 c 128,-1,11
 990 885 990 885 1007 822.5 c 128,-1,12
 1024 760 1024 760 1024 684 c 0,13,14
 1024 540 1024 540 986.5 413.5 c 128,-1,15
 949 287 949 287 876 192.5 c 128,-1,16
 803 98 803 98 695.5 43 c 128,-1,17
 588 -12 588 -12 449 -12 c 0,18,19
 376 -12 376 -12 326.5 -6 c 128,-1,20
 277 0 277 0 233 12 c 1,21,-1
 150 -410 l 1,22,-1
 -25 -410 l 1,23,-1
 340 1413 l 1,0,-1
848 668 m 0,24,25
 848 764 848 764 815.5 817 c 128,-1,26
 783 870 783 870 709 870 c 0,27,28
 666 870 666 870 623 850 c 128,-1,29
 580 830 580 830 539 795 c 128,-1,30
 498 760 498 760 461.5 713 c 128,-1,31
 425 666 425 666 394.5 612.5 c 128,-1,32
 364 559 364 559 342 502 c 128,-1,33
 320 445 320 445 309 389 c 2,34,-1
 266 172 l 1,35,36
 313 152 313 152 363 140.5 c 128,-1,37
 413 129 413 129 455 129 c 0,38,39
 537 129 537 129 598 157 c 128,-1,40
 659 185 659 185 702.5 230 c 128,-1,41
 746 275 746 275 774 333 c 128,-1,42
 802 391 802 391 818.5 451 c 128,-1,43
 835 511 835 511 841.5 567.5 c 128,-1,44
 848 624 848 624 848 668 c 0,24,25
EndSplineSet
EndChar

StartChar: scedilla
Encoding: 351 351 237
Width: 1126
GlyphClass: 2
Flags: W
AnchorPoint: "Anchor-11" 0 1700 basechar 0
AnchorPoint: "Anchor-10" 1126 1700 basechar 0
AnchorPoint: "Anchor-9" 470 -295 basechar 0
AnchorPoint: "Anchor-6" 1126 -350 basechar 0
AnchorPoint: "Anchor-5" 1126 1700 basechar 0
AnchorPoint: "Anchor-2" 563 -385 basechar 0
AnchorPoint: "Anchor-1" 935 1160 basechar 0
AnchorPoint: "Anchor-0" 563 1200 basechar 0
LayerCount: 2
Fore
SplineSet
376 -17 m 1,0,1
 327 -17 327 -17 245.5 -8 c 128,-1,2
 164 1 164 1 100 16 c 1,3,-1
 100 186 l 1,4,5
 190 157 190 157 279 143 c 128,-1,6
 368 129 368 129 455 129 c 0,7,8
 597 129 597 129 662.5 169 c 128,-1,9
 728 209 728 209 728 293 c 0,10,11
 728 315 728 315 718 333.5 c 128,-1,12
 708 352 708 352 683.5 368.5 c 128,-1,13
 659 385 659 385 617 402 c 128,-1,14
 575 419 575 419 510 438 c 0,15,16
 450 456 450 456 400.5 478.5 c 128,-1,17
 351 501 351 501 315 532.5 c 128,-1,18
 279 564 279 564 259.5 606.5 c 128,-1,19
 240 649 240 649 240 705 c 0,20,21
 240 772 240 772 267 829.5 c 128,-1,22
 294 887 294 887 350.5 930 c 128,-1,23
 407 973 407 973 493 997.5 c 128,-1,24
 579 1022 579 1022 696 1022 c 0,25,26
 724 1022 724 1022 757.5 1020 c 128,-1,27
 791 1018 791 1018 827 1013.5 c 128,-1,28
 863 1009 863 1009 899.5 1003 c 128,-1,29
 936 997 936 997 971 989 c 1,30,-1
 971 836 l 1,31,32
 880 857 880 857 808 867 c 128,-1,33
 736 877 736 877 680 877 c 0,34,35
 611 877 611 877 561.5 866 c 128,-1,36
 512 855 512 855 480 835 c 128,-1,37
 448 815 448 815 433 786.5 c 128,-1,38
 418 758 418 758 418 723 c 0,39,40
 418 698 418 698 429.5 678.5 c 128,-1,41
 441 659 441 659 466 641.5 c 128,-1,42
 491 624 491 624 532.5 607 c 128,-1,43
 574 590 574 590 635 571 c 0,44,45
 708 547 708 547 759.5 521.5 c 128,-1,46
 811 496 811 496 844 464 c 128,-1,47
 877 432 877 432 892 393 c 128,-1,48
 907 354 907 354 907 303 c 0,49,50
 907 225 907 225 870 160 c 128,-1,51
 833 95 833 95 754.5 50 c 128,-1,52
 676 5 676 5 549 -12 c 1,53,-1
 410 -295 l 1,54,-1
 258 -295 l 1,55,-1
 376 -17 l 1,0,1
EndSplineSet
Substitution2: "'salt' Stylistic Alternatives in Latin lookup 0 subtable" uni0219
EndChar

StartChar: germandbls
Encoding: 223 223 239
Width: 1126
GlyphClass: 2
Flags: W
AnchorPoint: "Anchor-11" 0 1700 basechar 0
AnchorPoint: "Anchor-10" 1126 1700 basechar 0
AnchorPoint: "Anchor-9" 780 0 basechar 0
AnchorPoint: "Anchor-6" 1126 -350 basechar 0
AnchorPoint: "Anchor-5" 1126 1700 basechar 0
AnchorPoint: "Anchor-2" 693 -180 basechar 0
AnchorPoint: "Anchor-1" 932 1515 basechar 0
AnchorPoint: "Anchor-0" 563 1515 basechar 0
LayerCount: 2
Fore
SplineSet
220 0 m 2,0,1
 200 -103 200 -103 164 -204.5 c 128,-1,2
 128 -306 128 -306 77 -410 c 1,3,-1
 -98 -410 l 1,4,5
 -46 -306 -46 -306 -10.5 -204 c 128,-1,6
 25 -102 25 -102 45 0 c 2,7,-1
 248 1014 l 2,8,9
 288 1213 288 1213 407 1319 c 128,-1,10
 526 1425 526 1425 725 1425 c 0,11,12
 887 1425 887 1425 973 1361 c 128,-1,13
 1059 1297 1059 1297 1059 1182 c 0,14,15
 1059 1111 1059 1111 1033.5 1061.5 c 128,-1,16
 1008 1012 1008 1012 970 975 c 128,-1,17
 932 938 932 938 887 910.5 c 128,-1,18
 842 883 842 883 804 856.5 c 128,-1,19
 766 830 766 830 740.5 801 c 128,-1,20
 715 772 715 772 715 733 c 0,21,22
 715 697 715 697 734.5 665 c 128,-1,23
 754 633 754 633 782.5 601.5 c 128,-1,24
 811 570 811 570 845 538 c 128,-1,25
 879 506 879 506 907.5 469.5 c 128,-1,26
 936 433 936 433 955.5 391 c 128,-1,27
 975 349 975 349 975 297 c 0,28,29
 975 252 975 252 953 198.5 c 128,-1,30
 931 145 931 145 882 98 c 128,-1,31
 833 51 833 51 755 19.5 c 128,-1,32
 677 -12 677 -12 565 -12 c 0,33,34
 514 -12 514 -12 469 -9 c 128,-1,35
 424 -6 424 -6 387 0 c 1,36,-1
 418 154 l 1,37,38
 449 144 449 144 489 138.5 c 128,-1,39
 529 133 529 133 567 133 c 0,40,41
 627 133 627 133 670 145.5 c 128,-1,42
 713 158 713 158 740 179 c 128,-1,43
 767 200 767 200 780 226.5 c 128,-1,44
 793 253 793 253 793 281 c 0,45,46
 793 319 793 319 774 351.5 c 128,-1,47
 755 384 755 384 726 414.5 c 128,-1,48
 697 445 697 445 664 476.5 c 128,-1,49
 631 508 631 508 602 543 c 128,-1,50
 573 578 573 578 554 619 c 128,-1,51
 535 660 535 660 535 711 c 0,52,53
 535 778 535 778 560.5 823 c 128,-1,54
 586 868 586 868 624.5 901.5 c 128,-1,55
 663 935 663 935 708 961 c 128,-1,56
 753 987 753 987 791.5 1016 c 128,-1,57
 830 1045 830 1045 855.5 1081 c 128,-1,58
 881 1117 881 1117 881 1171 c 0,59,60
 881 1224 881 1224 837 1254 c 128,-1,61
 793 1284 793 1284 715 1284 c 0,62,63
 596 1284 596 1284 523 1217 c 128,-1,64
 450 1150 450 1150 421 1008 c 2,65,-1
 220 0 l 2,0,1
EndSplineSet
EndChar

StartChar: longs
Encoding: 383 383 240
Width: 1126
GlyphClass: 2
Flags: W
AnchorPoint: "Anchor-11" 0 1700 basechar 0
AnchorPoint: "Anchor-10" 1126 1700 basechar 0
AnchorPoint: "Anchor-9" 280 -400 basechar 0
AnchorPoint: "Anchor-6" 1126 -350 basechar 0
AnchorPoint: "Anchor-5" 1126 1700 basechar 0
AnchorPoint: "Anchor-2" 563 -500 basechar 0
AnchorPoint: "Anchor-1" 1096 1517 basechar 0
AnchorPoint: "Anchor-0" 698 1517 basechar 0
LayerCount: 2
Fore
SplineSet
365 0 m 2,0,1
 345 -103 345 -103 308.5 -204.5 c 128,-1,2
 272 -306 272 -306 221 -410 c 1,3,-1
 43 -410 l 1,4,5
 96 -306 96 -306 131 -204 c 128,-1,6
 166 -102 166 -102 186 0 c 2,7,-1
 391 1030 l 2,8,9
 413 1133 413 1133 457 1208 c 128,-1,10
 501 1283 501 1283 563 1331.5 c 128,-1,11
 625 1380 625 1380 703.5 1403.5 c 128,-1,12
 782 1427 782 1427 874 1427 c 0,13,14
 928 1427 928 1427 974.5 1417 c 128,-1,15
 1021 1407 1021 1407 1060 1389.5 c 128,-1,16
 1099 1372 1099 1372 1130 1349 c 128,-1,17
 1161 1326 1161 1326 1184 1300 c 1,18,-1
 1083 1178 l 1,19,20
 1048 1223 1048 1223 991.5 1250.5 c 128,-1,21
 935 1278 935 1278 864 1278 c 0,22,23
 809 1278 809 1278 760.5 1261.5 c 128,-1,24
 712 1245 712 1245 673 1210 c 128,-1,25
 634 1175 634 1175 605.5 1120.5 c 128,-1,26
 577 1066 577 1066 561 991 c 2,27,-1
 365 0 l 2,0,1
EndSplineSet
EndChar

StartChar: tbar
Encoding: 359 359 243
Width: 1126
GlyphClass: 2
Flags: W
AnchorPoint: "Anchor-11" 0 1700 basechar 0
AnchorPoint: "Anchor-10" 1126 1700 basechar 0
AnchorPoint: "Anchor-9" 780 0 basechar 0
AnchorPoint: "Anchor-6" 1126 -350 basechar 0
AnchorPoint: "Anchor-5" 1126 1700 basechar 0
AnchorPoint: "Anchor-2" 563 -180 basechar 0
AnchorPoint: "Anchor-1" 969 1415 basechar 0
AnchorPoint: "Anchor-0" 433 1450 basechar 0
LayerCount: 2
Fore
SplineSet
885 14 m 1,0,1
 822 -1 822 -1 760.5 -7.5 c 128,-1,2
 699 -14 699 -14 651 -14 c 0,3,4
 549 -14 549 -14 476.5 8.5 c 128,-1,5
 404 31 404 31 362 80 c 128,-1,6
 320 129 320 129 309.5 206.5 c 128,-1,7
 299 284 299 284 322 395 c 2,8,-1
 332 449 l 1,9,-1
 90 449 l 1,10,-1
 121 594 l 1,11,-1
 360 594 l 1,12,-1
 414 858 l 1,13,-1
 133 858 l 1,14,-1
 162 1004 l 1,15,-1
 442 1004 l 1,16,-1
 498 1280 l 1,17,-1
 682 1325 l 1,18,-1
 616 1004 l 1,19,-1
 1067 1004 l 1,20,-1
 1038 858 l 1,21,-1
 588 858 l 1,22,-1
 535 594 l 1,23,-1
 924 594 l 1,24,-1
 893 449 l 1,25,-1
 506 449 l 1,26,-1
 494 389 l 2,27,28
 480 320 480 320 483 271.5 c 128,-1,29
 486 223 486 223 507 192 c 128,-1,30
 528 161 528 161 568 147 c 128,-1,31
 608 133 608 133 670 133 c 0,32,33
 707 133 707 133 763 140.5 c 128,-1,34
 819 148 819 148 885 164 c 1,35,-1
 885 14 l 1,0,1
EndSplineSet
EndChar

StartChar: uogonek
Encoding: 371 371 253
Width: 1126
GlyphClass: 2
Flags: W
AnchorPoint: "Anchor-11" 0 1700 basechar 0
AnchorPoint: "Anchor-10" 1126 1700 basechar 0
AnchorPoint: "Anchor-9" 930 -385 basechar 0
AnchorPoint: "Anchor-6" 1126 -350 basechar 0
AnchorPoint: "Anchor-5" 1126 1700 basechar 0
AnchorPoint: "Anchor-2" 563 -475 basechar 0
AnchorPoint: "Anchor-1" 1017 1160 basechar 0
AnchorPoint: "Anchor-0" 563 1200 basechar 0
LayerCount: 2
Fore
SplineSet
891 -375 m 1,0,1
 866 -380 866 -380 834.5 -382.5 c 128,-1,2
 803 -385 803 -385 778 -385 c 0,3,4
 724 -385 724 -385 685.5 -373.5 c 128,-1,5
 647 -362 647 -362 622.5 -342.5 c 128,-1,6
 598 -323 598 -323 586 -297 c 128,-1,7
 574 -271 574 -271 574 -242 c 0,8,9
 574 -217 574 -217 580.5 -192 c 128,-1,10
 587 -167 587 -167 604.5 -138 c 128,-1,11
 622 -109 622 -109 653.5 -75.5 c 128,-1,12
 685 -42 685 -42 737 0 c 1,13,-1
 762 231 l 1,14,15
 693 111 693 111 595.5 46.5 c 128,-1,16
 498 -18 498 -18 383 -18 c 0,17,18
 224 -18 224 -18 157.5 78 c 128,-1,19
 91 174 91 174 129 360 c 2,20,-1
 258 1004 l 1,21,-1
 432 1004 l 1,22,-1
 303 362 l 2,23,24
 278 241 278 241 306.5 186 c 128,-1,25
 335 131 335 131 416 131 c 0,26,27
 459 131 459 131 501.5 151 c 128,-1,28
 544 171 544 171 584.5 206.5 c 128,-1,29
 625 242 625 242 661.5 289.5 c 128,-1,30
 698 337 698 337 728.5 392 c 128,-1,31
 759 447 759 447 781 506.5 c 128,-1,32
 803 566 803 566 815 625 c 2,33,-1
 891 1004 l 1,34,-1
 1065 1004 l 1,35,-1
 956 461 l 2,36,37
 952 442 952 442 947.5 411 c 128,-1,38
 943 380 943 380 937 327.5 c 128,-1,39
 931 275 931 275 922 195.5 c 128,-1,40
 913 116 913 116 901 0 c 1,41,42
 851 -43 851 -43 820 -74.5 c 128,-1,43
 789 -106 789 -106 771.5 -130.5 c 128,-1,44
 754 -155 754 -155 748 -175 c 128,-1,45
 742 -195 742 -195 742 -215 c 256,46,47
 742 -235 742 -235 758.5 -250.5 c 128,-1,48
 775 -266 775 -266 821 -266 c 0,49,50
 835 -266 835 -266 854.5 -265 c 128,-1,51
 874 -264 874 -264 891 -262 c 1,52,-1
 891 -375 l 1,0,1
EndSplineSet
EndChar

StartChar: f.ss04
Encoding: 65537 -1 265
Width: 1126
GlyphClass: 2
Flags: W
LayerCount: 2
Fore
SplineSet
1214 1251 m 1,0,1
 1149 1265 1149 1265 1089 1272.5 c 128,-1,2
 1029 1280 1029 1280 979 1280 c 0,3,4
 860 1280 860 1280 784.5 1219 c 128,-1,5
 709 1158 709 1158 684 1034 c 2,6,-1
 649 858 l 1,7,-1
 1089 858 l 1,8,-1
 1060 713 l 1,9,-1
 620 713 l 1,10,-1
 506 141 l 1,11,-1
 837 141 l 1,12,-1
 809 0 l 1,13,-1
 11 0 l 1,14,-1
 39 141 l 1,15,-1
 329 141 l 1,16,-1
 443 713 l 1,17,-1
 120 713 l 1,18,-1
 149 858 l 1,19,-1
 472 858 l 1,20,-1
 505 1024 l 2,21,22
 545 1223 545 1223 665 1324 c 128,-1,23
 785 1425 785 1425 994 1425 c 0,24,25
 1047 1425 1047 1425 1100 1419.5 c 128,-1,26
 1153 1414 1153 1414 1214 1402 c 1,27,-1
 1214 1251 l 1,0,1
EndSplineSet
EndChar

StartChar: f.ss05
Encoding: 65538 -1 266
Width: 1126
GlyphClass: 2
Flags: W
LayerCount: 2
Fore
SplineSet
1235 1245 m 1,0,1
 1205 1253 1205 1253 1171.5 1259 c 128,-1,2
 1138 1265 1138 1265 1104 1269.5 c 128,-1,3
 1070 1274 1070 1274 1038 1276 c 128,-1,4
 1006 1278 1006 1278 979 1278 c 0,5,6
 920 1278 920 1278 866 1261.5 c 128,-1,7
 812 1245 812 1245 769 1212.5 c 128,-1,8
 726 1180 726 1180 695.5 1132.5 c 128,-1,9
 665 1085 665 1085 653 1024 c 2,10,-1
 620 858 l 1,11,-1
 1089 858 l 1,12,-1
 1060 713 l 1,13,-1
 591 713 l 1,14,-1
 515 331 l 2,15,16
 494 225 494 225 515.5 178 c 128,-1,17
 537 131 537 131 614 131 c 0,18,19
 656 131 656 131 694.5 137.5 c 128,-1,20
 733 144 733 144 768 155 c 1,21,-1
 768 9 l 1,22,23
 729 -3 729 -3 679 -8.5 c 128,-1,24
 629 -14 629 -14 577 -14 c 0,25,26
 515 -14 515 -14 463.5 4.5 c 128,-1,27
 412 23 412 23 377.5 63.5 c 128,-1,28
 343 104 343 104 330.5 167 c 128,-1,29
 318 230 318 230 336 319 c 2,30,-1
 415 713 l 1,31,-1
 120 713 l 1,32,-1
 149 858 l 1,33,-1
 444 858 l 1,34,-1
 477 1024 l 2,35,36
 497 1124 497 1124 541.5 1199 c 128,-1,37
 586 1274 586 1274 651.5 1324 c 128,-1,38
 717 1374 717 1374 803.5 1399.5 c 128,-1,39
 890 1425 890 1425 994 1425 c 0,40,41
 1047 1425 1047 1425 1111.5 1417.5 c 128,-1,42
 1176 1410 1176 1410 1235 1395 c 1,43,-1
 1235 1245 l 1,0,1
EndSplineSet
EndChar

StartChar: i.ss05
Encoding: 65539 -1 267
Width: 1126
GlyphClass: 2
Flags: W
LayerCount: 2
Fore
SplineSet
901 10 m 1,0,1
 861 -2 861 -2 813 -8 c 128,-1,2
 765 -14 765 -14 713 -14 c 0,3,4
 641 -14 641 -14 582 3.5 c 128,-1,5
 523 21 523 21 485 62.5 c 128,-1,6
 447 104 447 104 433.5 172.5 c 128,-1,7
 420 241 420 241 440 342 c 2,8,-1
 545 858 l 1,9,-1
 207 858 l 1,10,-1
 236 1004 l 1,11,-1
 750 1004 l 1,12,-1
 614 326 l 2,13,14
 594 227 594 227 626 179 c 128,-1,15
 658 131 658 131 748 131 c 0,16,17
 829 131 829 131 901 154 c 1,18,-1
 901 10 l 1,0,1
567 1276 m 0,19,20
 567 1307 567 1307 579 1334 c 128,-1,21
 591 1361 591 1361 611 1381 c 128,-1,22
 631 1401 631 1401 658 1412 c 128,-1,23
 685 1423 685 1423 715 1423 c 256,24,25
 745 1423 745 1423 770 1412 c 128,-1,26
 795 1401 795 1401 812.5 1382.5 c 128,-1,27
 830 1364 830 1364 840 1339.5 c 128,-1,28
 850 1315 850 1315 850 1288 c 0,29,30
 850 1256 850 1256 838 1229.5 c 128,-1,31
 826 1203 826 1203 806 1183 c 128,-1,32
 786 1163 786 1163 759 1152 c 128,-1,33
 732 1141 732 1141 702 1141 c 256,34,35
 672 1141 672 1141 647.5 1152 c 128,-1,36
 623 1163 623 1163 605 1181.5 c 128,-1,37
 587 1200 587 1200 577 1224.5 c 128,-1,38
 567 1249 567 1249 567 1276 c 0,19,20
EndSplineSet
EndChar

StartChar: iogonek.ss05
Encoding: 65547 -1 275
Width: 1126
GlyphClass: 2
Flags: W
LayerCount: 2
Fore
SplineSet
854 -375 m 1,0,1
 829 -380 829 -380 797.5 -382.5 c 128,-1,2
 766 -385 766 -385 741 -385 c 0,3,4
 687 -385 687 -385 648.5 -373.5 c 128,-1,5
 610 -362 610 -362 585.5 -342.5 c 128,-1,6
 561 -323 561 -323 549 -297 c 128,-1,7
 537 -271 537 -271 537 -242 c 0,8,9
 537 -217 537 -217 543.5 -192 c 128,-1,10
 550 -167 550 -167 567.5 -138 c 128,-1,11
 585 -109 585 -109 616 -75 c 0,12,13
 643 -47 643 -47 682 -13 c 1,14,15
 628 -10 628 -10 582 3 c 0,16,17
 523 21 523 21 485 62.5 c 128,-1,18
 447 104 447 104 433.5 172.5 c 128,-1,19
 420 241 420 241 440 342 c 2,20,-1
 545 858 l 1,21,-1
 207 858 l 1,22,-1
 236 1004 l 1,23,-1
 750 1004 l 1,24,-1
 614 326 l 2,25,26
 594 227 594 227 626 179 c 128,-1,27
 658 131 658 131 748 131 c 0,28,29
 829 131 829 131 901 154 c 1,30,-1
 901 10 l 1,31,32
 882 4 882 4 864 0 c 1,33,34
 814 -43 814 -43 783 -74.5 c 128,-1,35
 752 -106 752 -106 734.5 -130.5 c 128,-1,36
 717 -155 717 -155 711 -175 c 128,-1,37
 705 -195 705 -195 705 -215 c 256,38,39
 705 -235 705 -235 721.5 -250.5 c 128,-1,40
 738 -266 738 -266 784 -266 c 0,41,42
 798 -266 798 -266 817.5 -265 c 128,-1,43
 837 -264 837 -264 854 -262 c 1,44,-1
 854 -375 l 1,0,1
567 1276 m 0,45,46
 567 1307 567 1307 579 1334 c 128,-1,47
 591 1361 591 1361 611 1381 c 128,-1,48
 631 1401 631 1401 658 1412 c 128,-1,49
 685 1423 685 1423 715 1423 c 256,50,51
 745 1423 745 1423 770 1412 c 128,-1,52
 795 1401 795 1401 812.5 1382.5 c 128,-1,53
 830 1364 830 1364 840 1339.5 c 128,-1,54
 850 1315 850 1315 850 1288 c 0,55,56
 850 1256 850 1256 838 1229.5 c 128,-1,57
 826 1203 826 1203 806 1183 c 128,-1,58
 786 1163 786 1163 759 1152 c 128,-1,59
 732 1141 732 1141 702 1141 c 256,60,61
 672 1141 672 1141 647.5 1152 c 128,-1,62
 623 1163 623 1163 605 1181.5 c 128,-1,63
 587 1200 587 1200 577 1224.5 c 128,-1,64
 567 1249 567 1249 567 1276 c 0,45,46
EndSplineSet
EndChar

StartChar: dotlessi.ss05
Encoding: 65548 -1 276
Width: 1126
GlyphClass: 2
Flags: W
LayerCount: 2
Fore
SplineSet
901 10 m 1,0,1
 861 -2 861 -2 813 -8 c 128,-1,2
 765 -14 765 -14 713 -14 c 0,3,4
 641 -14 641 -14 582 3.5 c 128,-1,5
 523 21 523 21 485 62.5 c 128,-1,6
 447 104 447 104 433.5 172.5 c 128,-1,7
 420 241 420 241 440 342 c 2,8,-1
 545 858 l 1,9,-1
 207 858 l 1,10,-1
 236 1004 l 1,11,-1
 750 1004 l 1,12,-1
 614 326 l 2,13,14
 594 227 594 227 626 179 c 128,-1,15
 658 131 658 131 748 131 c 0,16,17
 829 131 829 131 901 154 c 1,18,-1
 901 10 l 1,0,1
EndSplineSet
EndChar

StartChar: i.ss04
Encoding: 65549 -1 277
Width: 1126
GlyphClass: 2
Flags: W
LayerCount: 2
Fore
SplineSet
582 858 m 1,0,-1
 281 858 l 1,1,-1
 310 1004 l 1,2,-1
 794 1004 l 1,3,-1
 623 145 l 1,4,-1
 913 145 l 1,5,-1
 884 0 l 1,6,-1
 88 0 l 1,7,-1
 117 145 l 1,8,-1
 439 145 l 1,9,-1
 582 858 l 1,0,-1
595 1282 m 0,10,11
 595 1313 595 1313 606 1339 c 128,-1,12
 617 1365 617 1365 636.5 1384 c 128,-1,13
 656 1403 656 1403 682 1414 c 128,-1,14
 708 1425 708 1425 738 1425 c 0,15,16
 767 1425 767 1425 791 1414.5 c 128,-1,17
 815 1404 815 1404 832.5 1386.5 c 128,-1,18
 850 1369 850 1369 859.5 1345 c 128,-1,19
 869 1321 869 1321 869 1294 c 0,20,21
 869 1263 869 1263 858 1237 c 128,-1,22
 847 1211 847 1211 827.5 1192 c 128,-1,23
 808 1173 808 1173 782 1162 c 128,-1,24
 756 1151 756 1151 726 1151 c 0,25,26
 697 1151 697 1151 672.5 1161.5 c 128,-1,27
 648 1172 648 1172 631 1189.5 c 128,-1,28
 614 1207 614 1207 604.5 1231 c 128,-1,29
 595 1255 595 1255 595 1282 c 0,10,11
EndSplineSet
EndChar

StartChar: iogonek.ss04
Encoding: 65557 -1 285
Width: 1126
GlyphClass: 2
Flags: W
LayerCount: 2
Fore
SplineSet
874 -375 m 1,0,1
 849 -380 849 -380 817.5 -382.5 c 128,-1,2
 786 -385 786 -385 761 -385 c 0,3,4
 707 -385 707 -385 668.5 -373.5 c 128,-1,5
 630 -362 630 -362 605.5 -342.5 c 128,-1,6
 581 -323 581 -323 569 -297 c 128,-1,7
 557 -271 557 -271 557 -242 c 0,8,9
 557 -217 557 -217 563.5 -192 c 128,-1,10
 570 -167 570 -167 587.5 -138 c 128,-1,11
 605 -109 605 -109 636.5 -75.5 c 128,-1,12
 668 -42 668 -42 718 0 c 1,13,-1
 88 0 l 1,14,-1
 117 145 l 1,15,-1
 439 145 l 1,16,-1
 582 858 l 1,17,-1
 281 858 l 1,18,-1
 310 1004 l 1,19,-1
 794 1004 l 1,20,-1
 623 145 l 1,21,-1
 913 145 l 1,22,-1
 884 0 l 1,23,24
 834 -43 834 -43 803 -74.5 c 128,-1,25
 772 -106 772 -106 754.5 -130.5 c 128,-1,26
 737 -155 737 -155 731 -175 c 128,-1,27
 725 -195 725 -195 725 -215 c 256,28,29
 725 -235 725 -235 741.5 -250.5 c 128,-1,30
 758 -266 758 -266 804 -266 c 0,31,32
 818 -266 818 -266 837.5 -265 c 128,-1,33
 857 -264 857 -264 874 -262 c 1,34,-1
 874 -375 l 1,0,1
595 1282 m 0,35,36
 595 1313 595 1313 606 1339 c 128,-1,37
 617 1365 617 1365 636.5 1384 c 128,-1,38
 656 1403 656 1403 682 1414 c 128,-1,39
 708 1425 708 1425 738 1425 c 0,40,41
 767 1425 767 1425 791 1414.5 c 128,-1,42
 815 1404 815 1404 832.5 1386.5 c 128,-1,43
 850 1369 850 1369 859.5 1345 c 128,-1,44
 869 1321 869 1321 869 1294 c 0,45,46
 869 1263 869 1263 858 1237 c 128,-1,47
 847 1211 847 1211 827.5 1192 c 128,-1,48
 808 1173 808 1173 782 1162 c 128,-1,49
 756 1151 756 1151 726 1151 c 0,50,51
 697 1151 697 1151 672.5 1161.5 c 128,-1,52
 648 1172 648 1172 631 1189.5 c 128,-1,53
 614 1207 614 1207 604.5 1231 c 128,-1,54
 595 1255 595 1255 595 1282 c 0,35,36
EndSplineSet
EndChar

StartChar: dotlessi.ss04
Encoding: 65558 -1 286
Width: 1126
GlyphClass: 2
Flags: W
LayerCount: 2
Fore
SplineSet
582 859 m 1,0,-1
 281 859 l 1,1,-1
 310 1004 l 1,2,-1
 794 1004 l 1,3,-1
 623 145 l 1,4,-1
 913 145 l 1,5,-1
 884 0 l 1,6,-1
 88 0 l 1,7,-1
 117 145 l 1,8,-1
 439 145 l 1,9,-1
 582 859 l 1,0,-1
EndSplineSet
EndChar

StartChar: j.ss04
Encoding: 65559 -1 287
Width: 1126
GlyphClass: 2
Flags: W
LayerCount: 2
Fore
SplineSet
938 1004 m 1,0,-1
 737 2 l 2,1,2
 716 -106 716 -106 669.5 -185 c 128,-1,3
 623 -264 623 -264 559.5 -316.5 c 128,-1,4
 496 -369 496 -369 419 -394.5 c 128,-1,5
 342 -420 342 -420 258 -420 c 0,6,7
 199 -420 199 -420 147.5 -409.5 c 128,-1,8
 96 -399 96 -399 52 -380.5 c 128,-1,9
 8 -362 8 -362 -28.5 -337 c 128,-1,10
 -65 -312 -65 -312 -94 -283 c 1,11,-1
 20 -168 l 1,12,13
 64 -214 64 -214 128.5 -242 c 128,-1,14
 193 -270 193 -270 268 -270 c 0,15,16
 323 -270 323 -270 371 -251.5 c 128,-1,17
 419 -233 419 -233 457.5 -195 c 128,-1,18
 496 -157 496 -157 524.5 -97.5 c 128,-1,19
 553 -38 553 -38 569 43 c 2,20,-1
 733 859 l 1,21,-1
 250 859 l 1,22,-1
 279 1004 l 1,23,-1
 938 1004 l 1,0,-1
752 1276 m 0,24,25
 752 1307 752 1307 763.5 1334 c 128,-1,26
 775 1361 775 1361 795.5 1381 c 128,-1,27
 816 1401 816 1401 842.5 1412 c 128,-1,28
 869 1423 869 1423 899 1423 c 256,29,30
 929 1423 929 1423 954 1412 c 128,-1,31
 979 1401 979 1401 996.5 1382.5 c 128,-1,32
 1014 1364 1014 1364 1024 1339.5 c 128,-1,33
 1034 1315 1034 1315 1034 1288 c 0,34,35
 1034 1256 1034 1256 1022.5 1229.5 c 128,-1,36
 1011 1203 1011 1203 990.5 1183 c 128,-1,37
 970 1163 970 1163 943.5 1152 c 128,-1,38
 917 1141 917 1141 887 1141 c 256,39,40
 857 1141 857 1141 832 1152 c 128,-1,41
 807 1163 807 1163 789.5 1181.5 c 128,-1,42
 772 1200 772 1200 762 1224.5 c 128,-1,43
 752 1249 752 1249 752 1276 c 0,24,25
EndSplineSet
EndChar

StartChar: uni0237.ss04
Encoding: 65560 -1 288
Width: 1126
GlyphClass: 2
Flags: W
LayerCount: 2
Fore
SplineSet
938 1004 m 1,0,-1
 737 2 l 2,1,2
 716 -106 716 -106 669.5 -185 c 128,-1,3
 623 -264 623 -264 559.5 -316.5 c 128,-1,4
 496 -369 496 -369 419 -394.5 c 128,-1,5
 342 -420 342 -420 258 -420 c 0,6,7
 199 -420 199 -420 147.5 -409.5 c 128,-1,8
 96 -399 96 -399 52 -380.5 c 128,-1,9
 8 -362 8 -362 -28.5 -337 c 128,-1,10
 -65 -312 -65 -312 -94 -283 c 1,11,-1
 20 -168 l 1,12,13
 64 -214 64 -214 128.5 -242 c 128,-1,14
 193 -270 193 -270 268 -270 c 0,15,16
 323 -270 323 -270 371 -251.5 c 128,-1,17
 419 -233 419 -233 457.5 -195 c 128,-1,18
 496 -157 496 -157 524.5 -97.5 c 128,-1,19
 553 -38 553 -38 569 43 c 2,20,-1
 733 858 l 1,21,-1
 250 858 l 1,22,-1
 279 1004 l 1,23,-1
 938 1004 l 1,0,-1
EndSplineSet
EndChar

StartChar: l.ss04
Encoding: 65562 -1 290
Width: 1126
GlyphClass: 2
Flags: W
LayerCount: 2
Fore
SplineSet
654 1270 m 1,0,-1
 357 1270 l 1,1,-1
 385 1413 l 1,2,-1
 858 1413 l 1,3,-1
 605 145 l 1,4,-1
 904 145 l 1,5,-1
 875 0 l 1,6,-1
 70 0 l 1,7,-1
 99 145 l 1,8,-1
 429 145 l 1,9,-1
 654 1270 l 1,0,-1
EndSplineSet
EndChar

StartChar: lslash.ss04
Encoding: 65566 -1 294
Width: 1126
GlyphClass: 2
Flags: W
LayerCount: 2
Fore
SplineSet
530 655 m 1,0,-1
 232 516 l 1,1,-1
 232 674 l 1,2,-1
 565 828 l 1,3,-1
 654 1270 l 1,4,-1
 357 1270 l 1,5,-1
 385 1413 l 1,6,-1
 858 1413 l 1,7,-1
 759 916 l 1,8,-1
 1056 1053 l 1,9,-1
 1056 895 l 1,10,-1
 724 743 l 1,11,-1
 605 145 l 1,12,-1
 904 145 l 1,13,-1
 875 0 l 1,14,-1
 70 0 l 1,15,-1
 99 145 l 1,16,-1
 429 145 l 1,17,-1
 530 655 l 1,0,-1
EndSplineSet
EndChar

StartChar: glyph296
Encoding: 65568 -1 296
Width: 1126
GlyphClass: 2
Flags: W
LayerCount: 2
Fore
SplineSet
890 63 m 1,0,1
 821 25 821 25 744.5 3.5 c 128,-1,2
 668 -18 668 -18 581 -18 c 0,3,4
 510 -18 510 -18 462 2 c 128,-1,5
 414 22 414 22 388.5 65.5 c 128,-1,6
 363 109 363 109 360.5 177 c 128,-1,7
 358 245 358 245 377 342 c 2,8,-1
 525 1081 l 2,9,10
 537 1138 537 1138 536.5 1176.5 c 128,-1,11
 536 1215 536 1215 526 1238 c 128,-1,12
 516 1261 516 1261 496.5 1270.5 c 128,-1,13
 477 1280 477 1280 451 1280 c 0,14,15
 383 1280 383 1280 317 1253.5 c 128,-1,16
 251 1227 251 1227 183 1189 c 1,17,-1
 183 1343 l 1,18,19
 252 1381 252 1381 328.5 1403 c 128,-1,20
 405 1425 405 1425 492 1425 c 0,21,22
 563 1425 563 1425 611 1405 c 128,-1,23
 659 1385 659 1385 684.5 1341.5 c 128,-1,24
 710 1298 710 1298 713 1230 c 128,-1,25
 716 1162 716 1162 697 1063 c 2,26,-1
 550 326 l 2,27,28
 539 268 539 268 539 230 c 128,-1,29
 539 192 539 192 548.5 169 c 128,-1,30
 558 146 558 146 577 136.5 c 128,-1,31
 596 127 596 127 622 127 c 0,32,33
 690 127 690 127 756 153.5 c 128,-1,34
 822 180 822 180 890 217 c 1,35,-1
 890 63 l 1,0,1
EndSplineSet
EndChar

StartChar: glyph300
Encoding: 65572 -1 300
Width: 1126
GlyphClass: 2
Flags: W
LayerCount: 2
Fore
SplineSet
890 63 m 1,0,1
 821 25 821 25 744.5 3.5 c 128,-1,2
 668 -18 668 -18 581 -18 c 0,3,4
 510 -18 510 -18 462 2 c 128,-1,5
 414 22 414 22 388.5 65.5 c 128,-1,6
 363 109 363 109 360.5 177 c 128,-1,7
 358 245 358 245 377 342 c 2,8,-1
 437 643 l 1,9,-1
 138 506 l 1,10,-1
 138 656 l 1,11,-1
 470 808 l 1,12,-1
 525 1081 l 2,13,14
 537 1138 537 1138 536.5 1176.5 c 128,-1,15
 536 1215 536 1215 526 1238 c 128,-1,16
 516 1261 516 1261 496.5 1270.5 c 128,-1,17
 477 1280 477 1280 451 1280 c 0,18,19
 383 1280 383 1280 317 1253.5 c 128,-1,20
 251 1227 251 1227 183 1189 c 1,21,-1
 183 1343 l 1,22,23
 252 1381 252 1381 328.5 1403 c 128,-1,24
 405 1425 405 1425 492 1425 c 0,25,26
 563 1425 563 1425 611 1405 c 128,-1,27
 659 1385 659 1385 684.5 1341.5 c 128,-1,28
 710 1298 710 1298 713 1230 c 128,-1,29
 716 1162 716 1162 697 1063 c 2,30,-1
 664 897 l 1,31,-1
 963 1035 l 1,32,-1
 963 885 l 1,33,-1
 631 733 l 1,34,-1
 550 326 l 2,35,36
 539 268 539 268 539 230 c 128,-1,37
 539 192 539 192 548.5 169 c 128,-1,38
 558 146 558 146 577 136.5 c 128,-1,39
 596 127 596 127 622 127 c 0,40,41
 690 127 690 127 756 153.5 c 128,-1,42
 822 180 822 180 890 217 c 1,43,-1
 890 63 l 1,0,1
EndSplineSet
EndChar

StartChar: r.ss04
Encoding: 65574 -1 302
Width: 1126
GlyphClass: 2
Flags: W
LayerCount: 2
Fore
SplineSet
565 1004 m 1,0,-1
 512 772 l 1,1,2
 552 839 552 839 597.5 886.5 c 128,-1,3
 643 934 643 934 694 963.5 c 128,-1,4
 745 993 745 993 801 1006.5 c 128,-1,5
 857 1020 857 1020 919 1020 c 0,6,7
 970 1020 970 1020 1015.5 1017 c 128,-1,8
 1061 1014 1061 1014 1099 1006 c 1,9,-1
 1099 847 l 1,10,11
 1011 866 1011 866 912 866 c 0,12,13
 841 866 841 866 770.5 834 c 128,-1,14
 700 802 700 802 638.5 740 c 128,-1,15
 577 678 577 678 530 587.5 c 128,-1,16
 483 497 483 497 459 379 c 2,17,-1
 412 144 l 1,18,-1
 711 144 l 1,19,-1
 682 0 l 1,20,-1
 -8 0 l 1,21,-1
 21 144 l 1,22,-1
 236 144 l 1,23,-1
 379 860 l 1,24,-1
 164 860 l 1,25,-1
 192 1004 l 1,26,-1
 565 1004 l 1,0,-1
EndSplineSet
EndChar

StartChar: r.ss05
Encoding: 65578 -1 306
Width: 1126
GlyphClass: 2
Flags: W
LayerCount: 2
Fore
SplineSet
203 521 m 2,0,1
 213 570 213 570 221.5 634.5 c 128,-1,2
 230 699 230 699 237.5 765.5 c 128,-1,3
 245 832 245 832 251 895 c 128,-1,4
 257 958 257 958 262 1004 c 1,5,-1
 426 1004 l 1,6,-1
 401 772 l 1,7,8
 437 826 437 826 485.5 871.5 c 128,-1,9
 534 917 534 917 593 950.5 c 128,-1,10
 652 984 652 984 721 1003 c 128,-1,11
 790 1022 790 1022 867 1022 c 0,12,13
 921 1022 921 1022 977.5 1015.5 c 128,-1,14
 1034 1009 1034 1009 1082 998 c 1,15,-1
 1082 828 l 1,16,17
 1053 837 1053 837 1019 843 c 128,-1,18
 985 849 985 849 952 853.5 c 128,-1,19
 919 858 919 858 889 860 c 128,-1,20
 859 862 859 862 837 862 c 0,21,22
 759 862 759 862 695.5 840 c 128,-1,23
 632 818 632 818 581.5 780.5 c 128,-1,24
 531 743 531 743 492 694 c 128,-1,25
 453 645 453 645 424.5 591.5 c 128,-1,26
 396 538 396 538 378 483 c 128,-1,27
 360 428 360 428 350 379 c 2,28,-1
 275 0 l 1,29,-1
 99 0 l 1,30,-1
 203 521 l 2,0,1
EndSplineSet
EndChar

StartChar: glyph310
Encoding: 65582 -1 310
Width: 1126
GlyphClass: 2
Flags: W
LayerCount: 2
Fore
SplineSet
914 865 m 0,0,1
 833 865 833 865 759 828 c 128,-1,2
 685 791 685 791 624 726 c 128,-1,3
 563 661 563 661 519.5 573.5 c 128,-1,4
 476 486 476 486 457 384 c 2,5,-1
 446 326 l 2,6,7
 426 220 426 220 459 175.5 c 128,-1,8
 492 131 492 131 578 131 c 0,9,10
 620 131 620 131 656 137 c 128,-1,11
 692 143 692 143 727 154 c 1,12,-1
 727 6 l 1,13,14
 689 -3 689 -3 641 -8.5 c 128,-1,15
 593 -14 593 -14 540 -14 c 0,16,17
 466 -14 466 -14 407.5 4 c 128,-1,18
 349 22 349 22 312 61.5 c 128,-1,19
 275 101 275 101 262.5 164.5 c 128,-1,20
 250 228 250 228 268 319 c 2,21,-1
 339 672 l 2,22,23
 360 778 360 778 327 827.5 c 128,-1,24
 294 877 294 877 218 877 c 0,25,26
 207 877 207 877 195.5 876.5 c 128,-1,27
 184 876 184 876 170 874 c 1,28,-1
 200 1020 l 1,29,30
 217 1022 217 1022 227.5 1022 c 128,-1,31
 238 1022 238 1022 254 1022 c 0,32,33
 315 1022 315 1022 368 1008.5 c 128,-1,34
 421 995 421 995 458 965 c 128,-1,35
 495 935 495 935 510 887.5 c 128,-1,36
 525 840 525 840 509 772 c 1,37,38
 540 830 540 830 583.5 876 c 128,-1,39
 627 922 627 922 680 954.5 c 128,-1,40
 733 987 733 987 794 1004 c 128,-1,41
 855 1021 855 1021 922 1021 c 0,42,43
 944 1021 944 1021 968.5 1020 c 128,-1,44
 993 1019 993 1019 1017 1017 c 128,-1,45
 1041 1015 1041 1015 1062.5 1012 c 128,-1,46
 1084 1009 1084 1009 1099 1006 c 1,47,-1
 1099 846 l 1,48,49
 1054 857 1054 857 1003 861 c 128,-1,50
 952 865 952 865 914 865 c 0,0,1
EndSplineSet
EndChar

StartChar: ampersand
Encoding: 38 38 314
Width: 1126
GlyphClass: 2
Flags: W
LayerCount: 2
Fore
SplineSet
1057 682 m 1,0,1
 1031 548 1031 548 984 437.5 c 128,-1,2
 937 327 937 327 872 242 c 1,3,-1
 1018 0 l 1,4,-1
 801 0 l 1,5,-1
 735 109 l 1,6,7
 657 47 657 47 568 16.5 c 128,-1,8
 479 -14 479 -14 385 -14 c 0,9,10
 298 -14 298 -14 230 7.5 c 128,-1,11
 162 29 162 29 115 69.5 c 128,-1,12
 68 110 68 110 43 169.5 c 128,-1,13
 18 229 18 229 18 305 c 0,14,15
 18 388 18 388 45.5 454 c 128,-1,16
 73 520 73 520 119.5 573 c 128,-1,17
 166 626 166 626 227 668 c 128,-1,18
 288 710 288 710 356 745 c 1,19,-1
 340 772 l 2,20,21
 308 826 308 826 290 884.5 c 128,-1,22
 272 943 272 943 272 1008 c 0,23,24
 272 1086 272 1086 299.5 1154.5 c 128,-1,25
 327 1223 327 1223 378.5 1274 c 128,-1,26
 430 1325 430 1325 503 1354.5 c 128,-1,27
 576 1384 576 1384 668 1384 c 0,28,29
 745 1384 745 1384 801.5 1362.5 c 128,-1,30
 858 1341 858 1341 894.5 1304.5 c 128,-1,31
 931 1268 931 1268 949 1218.5 c 128,-1,32
 967 1169 967 1169 967 1114 c 0,33,34
 967 1038 967 1038 937 979 c 128,-1,35
 907 920 907 920 855.5 872.5 c 128,-1,36
 804 825 804 825 735.5 785 c 128,-1,37
 667 745 667 745 590 707 c 1,38,-1
 782 387 l 1,39,40
 816 447 816 447 840.5 521 c 128,-1,41
 865 595 865 595 881 682 c 1,42,-1
 1057 682 l 1,0,1
201 334 m 0,43,44
 201 234 201 234 254.5 184.5 c 128,-1,45
 308 135 308 135 408 135 c 0,46,47
 474 135 474 135 538 161 c 128,-1,48
 602 187 602 187 659 238 c 1,49,-1
 428 625 l 1,50,51
 378 599 378 599 336.5 569.5 c 128,-1,52
 295 540 295 540 265 505 c 128,-1,53
 235 470 235 470 218 428 c 128,-1,54
 201 386 201 386 201 334 c 0,43,44
786 1102 m 0,55,56
 786 1162 786 1162 751 1199.5 c 128,-1,57
 716 1237 716 1237 647 1237 c 0,58,59
 600 1237 600 1237 564 1219 c 128,-1,60
 528 1201 528 1201 503 1171.5 c 128,-1,61
 478 1142 478 1142 465.5 1104 c 128,-1,62
 453 1066 453 1066 453 1026 c 0,63,64
 453 1002 453 1002 456 980 c 128,-1,65
 459 958 459 958 466.5 935.5 c 128,-1,66
 474 913 474 913 486.5 887 c 128,-1,67
 499 861 499 861 518 829 c 2,68,-1
 520 825 l 1,69,70
 575 852 575 852 623.5 880 c 128,-1,71
 672 908 672 908 708 940.5 c 128,-1,72
 744 973 744 973 765 1012.5 c 128,-1,73
 786 1052 786 1052 786 1102 c 0,55,56
EndSplineSet
AlternateSubs2: "'ss06' Style Set 6 lookup 30 subtable" ampersand.ss05
Substitution2: "'ss05' Style Set 5 lookup 29 subtable" ampersand.ss05
AlternateSubs2: "'salt' Stylistic Alternatives lookup 22 subtable" ampersand.ss05
EndChar

StartChar: ampersand.ss05
Encoding: 65586 -1 315
Width: 1126
GlyphClass: 2
Flags: W
LayerCount: 2
Fore
SplineSet
618 674 m 2,0,1
 536 674 536 674 474 657 c 128,-1,2
 412 640 412 640 367 612 c 128,-1,3
 322 584 322 584 292 548 c 128,-1,4
 262 512 262 512 244 474 c 128,-1,5
 226 436 226 436 218.5 399 c 128,-1,6
 211 362 211 362 211 332 c 0,7,8
 211 290 211 290 224 254.5 c 128,-1,9
 237 219 237 219 265.5 193 c 128,-1,10
 294 167 294 167 338 152 c 128,-1,11
 382 137 382 137 444 137 c 0,12,13
 526 137 526 137 589.5 159.5 c 128,-1,14
 653 182 653 182 699.5 224.5 c 128,-1,15
 746 267 746 267 776 327.5 c 128,-1,16
 806 388 806 388 821 463 c 2,17,-1
 864 674 l 1,18,-1
 618 674 l 2,0,1
893 821 m 1,19,-1
 932 1010 l 1,20,-1
 1120 1057 l 1,21,-1
 997 442 l 2,22,23
 976 340 976 340 930.5 256 c 128,-1,24
 885 172 885 172 813.5 112 c 128,-1,25
 742 52 742 52 645 19 c 128,-1,26
 548 -14 548 -14 424 -14 c 0,27,28
 231 -14 231 -14 129 71.5 c 128,-1,29
 27 157 27 157 27 315 c 0,30,31
 27 384 27 384 48.5 452.5 c 128,-1,32
 70 521 70 521 111.5 581 c 128,-1,33
 153 641 153 641 214 687.5 c 128,-1,34
 275 734 275 734 354 758 c 1,35,36
 288 789 288 789 252.5 844 c 128,-1,37
 217 899 217 899 217 977 c 0,38,39
 217 1010 217 1010 225 1053 c 128,-1,40
 233 1096 233 1096 253.5 1141.5 c 128,-1,41
 274 1187 274 1187 310 1230.5 c 128,-1,42
 346 1274 346 1274 402 1308 c 128,-1,43
 458 1342 458 1342 536.5 1363 c 128,-1,44
 615 1384 615 1384 721 1384 c 0,45,46
 767 1384 767 1384 816 1381.5 c 128,-1,47
 865 1379 865 1379 907 1374 c 1,48,-1
 877 1223 l 1,49,50
 829 1228 829 1228 787 1230.5 c 128,-1,51
 745 1233 745 1233 700 1233 c 0,52,53
 616 1233 616 1233 559 1210 c 128,-1,54
 502 1187 502 1187 467 1151 c 128,-1,55
 432 1115 432 1115 416.5 1070.5 c 128,-1,56
 401 1026 401 1026 401 983 c 0,57,58
 401 939 401 939 416.5 908.5 c 128,-1,59
 432 878 432 878 461 858.5 c 128,-1,60
 490 839 490 839 531.5 830 c 128,-1,61
 573 821 573 821 625 821 c 2,62,-1
 893 821 l 1,19,-1
EndSplineSet
EndChar

StartChar: grave
Encoding: 96 96 316
Width: 1126
GlyphClass: 2
Flags: W
LayerCount: 2
Fore
SplineSet
797 1171 m 1,0,-1
 623 1171 l 1,1,-1
 315 1413 l 1,2,-1
 567 1413 l 1,3,-1
 797 1171 l 1,0,-1
0 1004 m 1024,4,-1
EndSplineSet
Substitution2: "'locl' Localized Forms in Greek lookup 2 subtable" uni1FEF
EndChar

StartChar: glyph317
Encoding: 65587 -1 317
Width: 1126
GlyphClass: 4
Flags: W
AnchorPoint: "Anchor-12" 518 1749 basemark 0
AnchorPoint: "Anchor-12" 518 1446 mark 0
AnchorPoint: "Anchor-0" 518 1446 mark 0
LayerCount: 2
Fore
SplineSet
850 1446 m 1,0,-1
 672 1446 l 1,1,-1
 397 1659 l 1,2,-1
 649 1659 l 1,3,-1
 850 1446 l 1,0,-1
0 1307 m 1024,4,-1
EndSplineSet
Position2: "'mkmk' Mark to Mark lookup 8 subtable" dx=0 dy=0 dh=-1126 dv=0
EndChar

StartChar: acute
Encoding: 180 180 318
Width: 1126
GlyphClass: 2
Flags: W
LayerCount: 2
Fore
SplineSet
1104 1413 m 1,0,-1
 772 1171 l 1,1,-1
 598 1171 l 1,2,-1
 852 1413 l 1,3,-1
 1104 1413 l 1,0,-1
0 1004 m 1024,4,-1
EndSplineSet
Substitution2: "'locl' Localized Forms in Greek lookup 2 subtable" uni1FFD
EndChar

StartChar: glyph319
Encoding: 65588 -1 319
Width: 1126
GlyphClass: 4
Flags: W
AnchorPoint: "Anchor-12" 538 1749 basemark 0
AnchorPoint: "Anchor-12" 538 1446 mark 0
AnchorPoint: "Anchor-0" 538 1446 mark 0
LayerCount: 2
Fore
SplineSet
1124 1659 m 1,0,-1
 829 1446 l 1,1,-1
 651 1446 l 1,2,-1
 872 1659 l 1,3,-1
 1124 1659 l 1,0,-1
0 1307 m 1024,4,-1
EndSplineSet
Position2: "'mkmk' Mark to Mark lookup 8 subtable" dx=0 dy=0 dh=-1126 dv=0
EndChar

StartChar: circumflex
Encoding: 710 710 320
Width: 1126
GlyphClass: 2
Flags: W
LayerCount: 2
Fore
SplineSet
815 1413 m 1,0,-1
 1010 1171 l 1,1,-1
 840 1171 l 1,2,-1
 723 1292 l 1,3,-1
 557 1171 l 1,4,-1
 379 1171 l 1,5,-1
 672 1413 l 1,6,-1
 815 1413 l 1,0,-1
0 1004 m 1024,7,-1
EndSplineSet
EndChar

StartChar: glyph321
Encoding: 65589 -1 321
Width: 1126
GlyphClass: 4
Flags: W
AnchorPoint: "Anchor-12" 563 1749 basemark 0
AnchorPoint: "Anchor-12" 563 1446 mark 0
AnchorPoint: "Anchor-0" 563 1446 mark 0
LayerCount: 2
Fore
SplineSet
1065 1446 m 1,0,-1
 889 1446 l 1,1,-1
 774 1548 l 1,2,-1
 618 1446 l 1,3,-1
 434 1446 l 1,4,-1
 709 1659 l 1,5,-1
 877 1659 l 1,6,-1
 1065 1446 l 1,0,-1
0 1307 m 1024,7,-1
EndSplineSet
Position2: "'mkmk' Mark to Mark lookup 8 subtable" dx=0 dy=0 dh=-1126 dv=0
EndChar

StartChar: caron
Encoding: 711 711 322
Width: 1126
GlyphClass: 2
Flags: W
LayerCount: 2
Fore
SplineSet
623 1171 m 1,0,-1
 428 1413 l 1,1,-1
 598 1413 l 1,2,-1
 715 1292 l 1,3,-1
 881 1413 l 1,4,-1
 1059 1413 l 1,5,-1
 766 1171 l 1,6,-1
 623 1171 l 1,0,-1
0 1004 m 1024,7,-1
EndSplineSet
EndChar

StartChar: glyph323
Encoding: 65590 -1 323
Width: 1126
GlyphClass: 4
Flags: W
AnchorPoint: "Anchor-12" 563 1749 basemark 0
AnchorPoint: "Anchor-12" 563 1446 mark 0
AnchorPoint: "Anchor-0" 563 1446 mark 0
LayerCount: 2
Fore
SplineSet
477 1659 m 1,0,-1
 653 1659 l 1,1,-1
 768 1556 l 1,2,-1
 924 1659 l 1,3,-1
 1108 1659 l 1,4,-1
 834 1446 l 1,5,-1
 666 1446 l 1,6,-1
 477 1659 l 1,0,-1
0 1307 m 1024,7,-1
EndSplineSet
Position2: "'mkmk' Mark to Mark lookup 8 subtable" dx=0 dy=0 dh=-1126 dv=0
EndChar

StartChar: uni0315
Encoding: 789 789 324
Width: 1126
GlyphClass: 4
Flags: W
AnchorPoint: "Anchor-1" 981 1171 mark 0
LayerCount: 2
Fore
SplineSet
1405 1466 m 1,0,-1
 1264 1171 l 1,1,-1
 1118 1171 l 1,2,-1
 1235 1466 l 1,3,-1
 1405 1466 l 1,0,-1
0 1004 m 1024,4,-1
EndSplineSet
Position2: "'mkmk' Mark to Mark lookup 8 subtable" dx=0 dy=0 dh=-1126 dv=0
EndChar

StartChar: tilde
Encoding: 732 732 325
Width: 1126
GlyphClass: 2
Flags: W
LayerCount: 2
Fore
SplineSet
365 1268 m 1,0,1
 454 1413 454 1413 592 1413 c 0,2,3
 650 1413 650 1413 689 1396 c 128,-1,4
 728 1379 728 1379 758 1359 c 128,-1,5
 788 1339 788 1339 814 1322 c 128,-1,6
 840 1305 840 1305 874 1305 c 0,7,8
 915 1305 915 1305 947 1332.5 c 128,-1,9
 979 1360 979 1360 1008 1403 c 1,10,-1
 1092 1317 l 1,11,12
 998 1171 998 1171 862 1171 c 0,13,14
 804 1171 804 1171 765.5 1188 c 128,-1,15
 727 1205 727 1205 697 1225.5 c 128,-1,16
 667 1246 667 1246 640.5 1263 c 128,-1,17
 614 1280 614 1280 580 1280 c 0,18,19
 539 1280 539 1280 507 1252.5 c 128,-1,20
 475 1225 475 1225 446 1182 c 1,21,-1
 365 1268 l 1,0,1
0 1004 m 1024,22,-1
EndSplineSet
EndChar

StartChar: glyph326
Encoding: 65591 -1 326
Width: 1126
GlyphClass: 4
Flags: W
AnchorPoint: "Anchor-12" 563 1761 basemark 0
AnchorPoint: "Anchor-12" 563 1434 mark 0
AnchorPoint: "Anchor-0" 563 1434 mark 0
LayerCount: 2
Fore
SplineSet
408 1526 m 1,0,1
 454 1598 454 1598 510 1634.5 c 128,-1,2
 566 1671 566 1671 635 1671 c 0,3,4
 693 1671 693 1671 732.5 1654 c 128,-1,5
 772 1637 772 1637 802 1617 c 128,-1,6
 832 1597 832 1597 859 1580 c 128,-1,7
 886 1563 886 1563 920 1563 c 0,8,9
 960 1563 960 1563 992 1590.5 c 128,-1,10
 1024 1618 1024 1618 1053 1661 c 1,11,-1
 1135 1579 l 1,12,13
 1088 1507 1088 1507 1032 1470.5 c 128,-1,14
 976 1434 976 1434 907 1434 c 0,15,16
 868 1434 868 1434 838.5 1442 c 128,-1,17
 809 1450 809 1450 785 1462 c 128,-1,18
 761 1474 761 1474 741.5 1488 c 128,-1,19
 722 1502 722 1502 703.5 1514 c 128,-1,20
 685 1526 685 1526 666 1534 c 128,-1,21
 647 1542 647 1542 625 1542 c 0,22,23
 584 1542 584 1542 552 1514.5 c 128,-1,24
 520 1487 520 1487 489 1444 c 1,25,-1
 408 1526 l 1,0,1
0 1307 m 1024,26,-1
EndSplineSet
Position2: "'mkmk' Mark to Mark lookup 8 subtable" dx=0 dy=0 dh=-1126 dv=0
EndChar

StartChar: dieresis
Encoding: 168 168 327
Width: 1126
GlyphClass: 2
Flags: W
LayerCount: 2
Fore
SplineSet
508 1405 m 0,0,1
 556 1405 556 1405 586 1373.5 c 128,-1,2
 616 1342 616 1342 616 1298 c 0,3,4
 616 1272 616 1272 606.5 1250.5 c 128,-1,5
 597 1229 597 1229 580.5 1213 c 128,-1,6
 564 1197 564 1197 543 1188.5 c 128,-1,7
 522 1180 522 1180 498 1180 c 256,8,9
 474 1180 474 1180 454.5 1188.5 c 128,-1,10
 435 1197 435 1197 420.5 1211.5 c 128,-1,11
 406 1226 406 1226 398.5 1245.5 c 128,-1,12
 391 1265 391 1265 391 1286 c 0,13,14
 391 1312 391 1312 400.5 1334 c 128,-1,15
 410 1356 410 1356 425.5 1371.5 c 128,-1,16
 441 1387 441 1387 462.5 1396 c 128,-1,17
 484 1405 484 1405 508 1405 c 0,0,1
938 1405 m 256,18,19
 962 1405 962 1405 982 1396.5 c 128,-1,20
 1002 1388 1002 1388 1016.5 1373.5 c 128,-1,21
 1031 1359 1031 1359 1039 1339.5 c 128,-1,22
 1047 1320 1047 1320 1047 1298 c 0,23,24
 1047 1272 1047 1272 1037.5 1250.5 c 128,-1,25
 1028 1229 1028 1229 1011.5 1213 c 128,-1,26
 995 1197 995 1197 973.5 1188.5 c 128,-1,27
 952 1180 952 1180 928 1180 c 256,28,29
 904 1180 904 1180 884.5 1188.5 c 128,-1,30
 865 1197 865 1197 850.5 1211.5 c 128,-1,31
 836 1226 836 1226 828.5 1245.5 c 128,-1,32
 821 1265 821 1265 821 1286 c 0,33,34
 821 1312 821 1312 830.5 1334 c 128,-1,35
 840 1356 840 1356 855.5 1371.5 c 128,-1,36
 871 1387 871 1387 892.5 1396 c 128,-1,37
 914 1405 914 1405 938 1405 c 256,18,19
0 1004 m 1024,38,-1
EndSplineSet
EndChar

StartChar: glyph328
Encoding: 65592 -1 328
Width: 1126
GlyphClass: 4
Flags: W
AnchorPoint: "Anchor-12" 563 1749 basemark 0
AnchorPoint: "Anchor-12" 563 1446 mark 0
AnchorPoint: "Anchor-0" 563 1446 mark 0
LayerCount: 2
Fore
SplineSet
557 1659 m 0,0,1
 602 1659 602 1659 630.5 1628.5 c 128,-1,2
 659 1598 659 1598 659 1554 c 0,3,4
 659 1531 659 1531 650 1511.5 c 128,-1,5
 641 1492 641 1492 626 1477.5 c 128,-1,6
 611 1463 611 1463 591 1454.5 c 128,-1,7
 571 1446 571 1446 549 1446 c 0,8,9
 502 1446 502 1446 474 1476.5 c 128,-1,10
 446 1507 446 1507 446 1550 c 0,11,12
 446 1573 446 1573 455 1593 c 128,-1,13
 464 1613 464 1613 479 1627.5 c 128,-1,14
 494 1642 494 1642 514 1650.5 c 128,-1,15
 534 1659 534 1659 557 1659 c 0,0,1
995 1659 m 0,16,17
 1017 1659 1017 1659 1036 1650.5 c 128,-1,18
 1055 1642 1055 1642 1069 1628 c 128,-1,19
 1083 1614 1083 1614 1090.5 1595 c 128,-1,20
 1098 1576 1098 1576 1098 1554 c 0,21,22
 1098 1531 1098 1531 1089 1511.5 c 128,-1,23
 1080 1492 1080 1492 1065 1477.5 c 128,-1,24
 1050 1463 1050 1463 1029.5 1454.5 c 128,-1,25
 1009 1446 1009 1446 987 1446 c 0,26,27
 941 1446 941 1446 913 1476.5 c 128,-1,28
 885 1507 885 1507 885 1550 c 0,29,30
 885 1573 885 1573 893.5 1593 c 128,-1,31
 902 1613 902 1613 917 1627.5 c 128,-1,32
 932 1642 932 1642 952 1650.5 c 128,-1,33
 972 1659 972 1659 995 1659 c 0,16,17
0 1307 m 1024,34,-1
EndSplineSet
Position2: "'mkmk' Mark to Mark lookup 8 subtable" dx=0 dy=0 dh=-1126 dv=0
EndChar

StartChar: macron
Encoding: 175 175 329
AltUni2: 0002c9.ffffffff.0
Width: 1126
GlyphClass: 2
Flags: W
LayerCount: 2
Fore
SplineSet
967 1225 m 1,0,-1
 442 1225 l 1,1,-1
 469 1358 l 1,2,-1
 993 1358 l 1,3,-1
 967 1225 l 1,0,-1
0 1004 m 1024,4,-1
EndSplineSet
EndChar

StartChar: glyph330
Encoding: 65593 -1 330
Width: 1126
GlyphClass: 4
Flags: W
AnchorPoint: "Anchor-12" 563 1706 basemark 0
AnchorPoint: "Anchor-12" 563 1483 mark 0
AnchorPoint: "Anchor-0" 563 1483 mark 0
LayerCount: 2
Fore
SplineSet
1040 1483 m 1,0,-1
 475 1483 l 1,1,-1
 502 1616 l 1,2,-1
 1067 1616 l 1,3,-1
 1040 1483 l 1,0,-1
0 1307 m 1024,4,-1
EndSplineSet
Position2: "'mkmk' Mark to Mark lookup 8 subtable" dx=0 dy=0 dh=-1126 dv=0
EndChar

StartChar: breve
Encoding: 728 728 331
Width: 1126
GlyphClass: 2
Flags: W
LayerCount: 2
Fore
SplineSet
987 1413 m 1,0,1
 975 1352 975 1352 948.5 1306.5 c 128,-1,2
 922 1261 922 1261 884.5 1231 c 128,-1,3
 847 1201 847 1201 800.5 1186 c 128,-1,4
 754 1171 754 1171 702 1171 c 0,5,6
 652 1171 652 1171 608.5 1186 c 128,-1,7
 565 1201 565 1201 535 1231 c 128,-1,8
 505 1261 505 1261 492.5 1306.5 c 128,-1,9
 480 1352 480 1352 492 1413 c 1,10,-1
 627 1413 l 1,11,12
 616 1362 616 1362 635.5 1331 c 128,-1,13
 655 1300 655 1300 711 1300 c 0,14,15
 766 1300 766 1300 803.5 1331 c 128,-1,16
 841 1362 841 1362 852 1413 c 1,17,-1
 987 1413 l 1,0,1
0 1004 m 1024,18,-1
EndSplineSet
Substitution2: "'locl' Localized Forms in Cyrillic lookup 3 subtable" breve.locl
EndChar

StartChar: glyph332
Encoding: 65594 -1 332
Width: 1126
GlyphClass: 4
Flags: W
AnchorPoint: "Anchor-12" 533 1755 basemark 0
AnchorPoint: "Anchor-12" 533 1434 mark 0
AnchorPoint: "Anchor-0" 533 1434 mark 0
LayerCount: 2
Fore
SplineSet
1061 1665 m 1,0,1
 1049 1604 1049 1604 1021 1560.5 c 128,-1,2
 993 1517 993 1517 952.5 1489 c 128,-1,3
 912 1461 912 1461 862 1447.5 c 128,-1,4
 812 1434 812 1434 758 1434 c 0,5,6
 705 1434 705 1434 658 1447.5 c 128,-1,7
 611 1461 611 1461 578 1489 c 128,-1,8
 545 1517 545 1517 530.5 1560.5 c 128,-1,9
 516 1604 516 1604 528 1665 c 1,10,-1
 666 1665 l 1,11,12
 655 1614 655 1614 681.5 1588.5 c 128,-1,13
 708 1563 708 1563 770 1563 c 256,14,15
 832 1563 832 1563 872.5 1588.5 c 128,-1,16
 913 1614 913 1614 924 1665 c 1,17,-1
 1061 1665 l 1,0,1
0 1307 m 1024,18,-1
EndSplineSet
Position2: "'mkmk' Mark to Mark lookup 8 subtable" dx=0 dy=0 dh=-1126 dv=0
EndChar

StartChar: ring
Encoding: 730 730 333
Width: 1126
GlyphClass: 2
Flags: W
LayerCount: 2
Fore
SplineSet
729 1501 m 256,0,1
 774 1501 774 1501 812 1485.5 c 128,-1,2
 850 1470 850 1470 876.5 1443.5 c 128,-1,3
 903 1417 903 1417 918 1382 c 128,-1,4
 933 1347 933 1347 933 1307 c 0,5,6
 933 1259 933 1259 914.5 1218.5 c 128,-1,7
 896 1178 896 1178 866 1149 c 128,-1,8
 836 1120 836 1120 795.5 1104 c 128,-1,9
 755 1088 755 1088 711 1088 c 0,10,11
 666 1088 666 1088 628 1103.5 c 128,-1,12
 590 1119 590 1119 562.5 1145 c 128,-1,13
 535 1171 535 1171 519.5 1206.5 c 128,-1,14
 504 1242 504 1242 504 1282 c 0,15,16
 504 1330 504 1330 522.5 1370.5 c 128,-1,17
 541 1411 541 1411 572 1440 c 128,-1,18
 603 1469 603 1469 643.5 1485 c 128,-1,19
 684 1501 684 1501 729 1501 c 256,0,1
723 1395 m 256,20,21
 702 1395 702 1395 682.5 1387 c 128,-1,22
 663 1379 663 1379 649 1364.5 c 128,-1,23
 635 1350 635 1350 626.5 1330.5 c 128,-1,24
 618 1311 618 1311 618 1288 c 0,25,26
 618 1251 618 1251 645.5 1222.5 c 128,-1,27
 673 1194 673 1194 717 1194 c 0,28,29
 760 1194 760 1194 789.5 1224 c 128,-1,30
 819 1254 819 1254 819 1300 c 0,31,32
 819 1319 819 1319 812 1336 c 128,-1,33
 805 1353 805 1353 792.5 1366 c 128,-1,34
 780 1379 780 1379 762 1387 c 128,-1,35
 744 1395 744 1395 723 1395 c 256,20,21
0 1004 m 1024,36,-1
EndSplineSet
EndChar

StartChar: glyph334
Encoding: 65595 -1 334
Width: 1126
GlyphClass: 4
Flags: W
AnchorPoint: "Anchor-12" 533 1830 basemark 0
AnchorPoint: "Anchor-12" 533 1358 mark 0
AnchorPoint: "Anchor-0" 533 1358 mark 0
LayerCount: 2
Fore
SplineSet
780 1740 m 256,0,1
 822 1740 822 1740 857 1725.5 c 128,-1,2
 892 1711 892 1711 917.5 1687 c 128,-1,3
 943 1663 943 1663 957 1630.5 c 128,-1,4
 971 1598 971 1598 971 1561 c 0,5,6
 971 1516 971 1516 954 1479 c 128,-1,7
 937 1442 937 1442 907.5 1415 c 128,-1,8
 878 1388 878 1388 840 1373 c 128,-1,9
 802 1358 802 1358 760 1358 c 256,10,11
 718 1358 718 1358 683 1372.5 c 128,-1,12
 648 1387 648 1387 622.5 1411.5 c 128,-1,13
 597 1436 597 1436 583 1468.5 c 128,-1,14
 569 1501 569 1501 569 1538 c 0,15,16
 569 1583 569 1583 586 1620 c 128,-1,17
 603 1657 603 1657 632.5 1683.5 c 128,-1,18
 662 1710 662 1710 700 1725 c 128,-1,19
 738 1740 738 1740 780 1740 c 256,0,1
774 1638 m 0,20,21
 732 1638 732 1638 706 1612 c 128,-1,22
 680 1586 680 1586 680 1544 c 0,23,24
 680 1509 680 1509 703 1484.5 c 128,-1,25
 726 1460 726 1460 766 1460 c 0,26,27
 808 1460 808 1460 834 1485.5 c 128,-1,28
 860 1511 860 1511 860 1554 c 0,29,30
 860 1588 860 1588 837 1613 c 128,-1,31
 814 1638 814 1638 774 1638 c 0,20,21
0 1307 m 1024,32,-1
EndSplineSet
Position2: "'mkmk' Mark to Mark lookup 8 subtable" dx=0 dy=0 dh=-1126 dv=0
EndChar

StartChar: glyph335
Encoding: 65596 -1 335
Width: 1126
GlyphClass: 2
Flags: W
LayerCount: 2
Fore
SplineSet
767 1711 m 0,0,1
 811 1711 811 1711 848.5 1698 c 128,-1,2
 886 1685 886 1685 913 1662.5 c 128,-1,3
 940 1640 940 1640 954.5 1609.5 c 128,-1,4
 969 1579 969 1579 969 1545 c 0,5,6
 969 1501 969 1501 951 1466.5 c 128,-1,7
 933 1432 933 1432 901.5 1407 c 128,-1,8
 870 1382 870 1382 830 1369.5 c 128,-1,9
 790 1357 790 1357 745 1357 c 0,10,11
 701 1357 701 1357 664 1369 c 128,-1,12
 627 1381 627 1381 600 1404 c 128,-1,13
 573 1427 573 1427 558 1457 c 128,-1,14
 543 1487 543 1487 543 1524 c 0,15,16
 543 1565 543 1565 561 1599 c 128,-1,17
 579 1633 579 1633 610.5 1658 c 128,-1,18
 642 1683 642 1683 682 1697 c 128,-1,19
 722 1711 722 1711 767 1711 c 0,0,1
760 1616 m 0,20,21
 716 1616 716 1616 688.5 1592 c 128,-1,22
 661 1568 661 1568 661 1529 c 0,23,24
 661 1497 661 1497 685 1474.5 c 128,-1,25
 709 1452 709 1452 752 1452 c 0,26,27
 796 1452 796 1452 823.5 1475.5 c 128,-1,28
 851 1499 851 1499 851 1538 c 0,29,30
 851 1570 851 1570 827 1593 c 128,-1,31
 803 1616 803 1616 760 1616 c 0,20,21
1169 1950 m 1,32,-1
 889 1760 l 1,33,-1
 720 1760 l 1,34,-1
 930 1950 l 1,35,-1
 1169 1950 l 1,32,-1
0 1307 m 1024,36,-1
EndSplineSet
EndChar

StartChar: hungarumlaut
Encoding: 733 733 336
Width: 1126
GlyphClass: 2
Flags: W
LayerCount: 2
Fore
SplineSet
797 1413 m 1,0,-1
 543 1171 l 1,1,-1
 369 1171 l 1,2,-1
 586 1413 l 1,3,-1
 797 1413 l 1,0,-1
1249 1413 m 1,4,-1
 961 1171 l 1,5,-1
 786 1171 l 1,6,-1
 1018 1413 l 1,7,-1
 1249 1413 l 1,4,-1
0 1004 m 1024,8,-1
EndSplineSet
EndChar

StartChar: glyph337
Encoding: 65597 -1 337
Width: 1126
GlyphClass: 4
Flags: W
AnchorPoint: "Anchor-12" 593 1749 basemark 0
AnchorPoint: "Anchor-12" 593 1446 mark 0
AnchorPoint: "Anchor-0" 593 1446 mark 0
LayerCount: 2
Fore
SplineSet
877 1659 m 1,0,-1
 643 1446 l 1,1,-1
 463 1446 l 1,2,-1
 664 1659 l 1,3,-1
 877 1659 l 1,0,-1
1327 1659 m 1,4,-1
 1057 1446 l 1,5,-1
 874 1446 l 1,6,-1
 1096 1659 l 1,7,-1
 1327 1659 l 1,4,-1
0 1307 m 1024,8,-1
EndSplineSet
Position2: "'mkmk' Mark to Mark lookup 8 subtable" dx=0 dy=0 dh=-1126 dv=0
EndChar

StartChar: dotaccent
Encoding: 729 729 338
Width: 1126
GlyphClass: 2
Flags: W
LayerCount: 2
Fore
SplineSet
584 1280 m 0,0,1
 584 1311 584 1311 595 1336.5 c 128,-1,2
 606 1362 606 1362 625 1381 c 128,-1,3
 644 1400 644 1400 669 1410.5 c 128,-1,4
 694 1421 694 1421 723 1421 c 0,5,6
 751 1421 751 1421 774.5 1410.5 c 128,-1,7
 798 1400 798 1400 815 1383 c 128,-1,8
 832 1366 832 1366 841 1343.5 c 128,-1,9
 850 1321 850 1321 850 1296 c 0,10,11
 850 1265 850 1265 839 1239 c 128,-1,12
 828 1213 828 1213 809.5 1194.5 c 128,-1,13
 791 1176 791 1176 766 1165.5 c 128,-1,14
 741 1155 741 1155 713 1155 c 0,15,16
 684 1155 684 1155 660.5 1165 c 128,-1,17
 637 1175 637 1175 620 1192 c 128,-1,18
 603 1209 603 1209 593.5 1231.5 c 128,-1,19
 584 1254 584 1254 584 1280 c 0,0,1
0 1004 m 1024,20,-1
EndSplineSet
EndChar

StartChar: glyph339
Encoding: 65598 -1 339
Width: 1126
GlyphClass: 4
Flags: W
AnchorPoint: "Anchor-12" 533 1769 basemark 0
AnchorPoint: "Anchor-12" 533 1425 mark 0
AnchorPoint: "Anchor-0" 533 1425 mark 0
LayerCount: 2
Fore
SplineSet
645 1546 m 0,0,1
 645 1574 645 1574 655.5 1598.5 c 128,-1,2
 666 1623 666 1623 684 1641 c 128,-1,3
 702 1659 702 1659 725.5 1669 c 128,-1,4
 749 1679 749 1679 776 1679 c 256,5,6
 803 1679 803 1679 825.5 1669 c 128,-1,7
 848 1659 848 1659 864.5 1642.5 c 128,-1,8
 881 1626 881 1626 890 1604.5 c 128,-1,9
 899 1583 899 1583 899 1559 c 0,10,11
 899 1530 899 1530 888.5 1505.5 c 128,-1,12
 878 1481 878 1481 859.5 1463 c 128,-1,13
 841 1445 841 1445 817 1435 c 128,-1,14
 793 1425 793 1425 766 1425 c 256,15,16
 739 1425 739 1425 716.5 1435 c 128,-1,17
 694 1445 694 1445 678.5 1462 c 128,-1,18
 663 1479 663 1479 654 1500.5 c 128,-1,19
 645 1522 645 1522 645 1546 c 0,0,1
0 1307 m 1024,20,-1
EndSplineSet
Position2: "'mkmk' Mark to Mark lookup 8 subtable" dx=0 dy=0 dh=-1126 dv=0
EndChar

StartChar: cedilla
Encoding: 184 184 340
Width: 1126
GlyphClass: 2
Flags: W
LayerCount: 2
Fore
SplineSet
571 0 m 1,0,-1
 426 -295 l 1,1,-1
 274 -295 l 1,2,-1
 399 0 l 1,3,-1
 571 0 l 1,0,-1
EndSplineSet
EndChar

StartChar: ogonek
Encoding: 731 731 341
Width: 1126
GlyphClass: 2
Flags: W
LayerCount: 2
Fore
SplineSet
854 -375 m 1,0,1
 829 -380 829 -380 797.5 -382.5 c 128,-1,2
 766 -385 766 -385 741 -385 c 0,3,4
 687 -385 687 -385 648.5 -373.5 c 128,-1,5
 610 -362 610 -362 585.5 -342.5 c 128,-1,6
 561 -323 561 -323 549 -297 c 128,-1,7
 537 -271 537 -271 537 -242 c 0,8,9
 537 -217 537 -217 543.5 -192 c 128,-1,10
 550 -167 550 -167 567.5 -138 c 128,-1,11
 585 -109 585 -109 616.5 -75.5 c 128,-1,12
 648 -42 648 -42 698 0 c 1,13,-1
 864 0 l 1,14,15
 814 -43 814 -43 783 -74.5 c 128,-1,16
 752 -106 752 -106 734.5 -130.5 c 128,-1,17
 717 -155 717 -155 711 -175 c 128,-1,18
 705 -195 705 -195 705 -215 c 256,19,20
 705 -235 705 -235 721.5 -250.5 c 128,-1,21
 738 -266 738 -266 784 -266 c 0,22,23
 798 -266 798 -266 817.5 -265 c 128,-1,24
 837 -264 837 -264 854 -262 c 1,25,-1
 854 -375 l 1,0,1
EndSplineSet
EndChar

StartChar: uni0326
Encoding: 806 806 342
Width: 1126
GlyphClass: 4
Flags: W
AnchorPoint: "Anchor-13" 503 -500 basemark 0
AnchorPoint: "Anchor-13" 563 -115 mark 0
AnchorPoint: "Anchor-2" 563 -115 mark 0
LayerCount: 2
Fore
SplineSet
541 -115 m 1,0,-1
 393 -410 l 1,1,-1
 246 -410 l 1,2,-1
 371 -115 l 1,3,-1
 541 -115 l 1,0,-1
EndSplineSet
Position2: "'mkmk' Mark to Mark lookup 8 subtable" dx=0 dy=0 dh=-1126 dv=0
EndChar

StartChar: uni0312
Encoding: 786 786 343
Width: 1126
GlyphClass: 4
Flags: W
LayerCount: 2
Fore
SplineSet
596 1171 m 1,0,-1
 764 1466 l 1,1,-1
 909 1466 l 1,2,-1
 766 1171 l 1,3,-1
 596 1171 l 1,0,-1
0 1004 m 1024,4,-1
EndSplineSet
EndChar

StartChar: glyph344
Encoding: 65599 -1 344
Width: 1126
GlyphClass: 2
Flags: W
LayerCount: 2
Fore
SplineSet
111 1176 m 1,0,1
 150 1176 150 1176 182.5 1187.5 c 128,-1,2
 215 1199 215 1199 238 1218 c 128,-1,3
 261 1237 261 1237 274 1262 c 128,-1,4
 287 1287 287 1287 287 1315 c 0,5,6
 287 1338 287 1338 280 1352.5 c 128,-1,7
 273 1367 273 1367 264.5 1380 c 128,-1,8
 256 1393 256 1393 249 1408 c 128,-1,9
 242 1423 242 1423 242 1446 c 0,10,11
 242 1464 242 1464 248.5 1484 c 128,-1,12
 255 1504 255 1504 269 1520.5 c 128,-1,13
 283 1537 283 1537 304.5 1548 c 128,-1,14
 326 1559 326 1559 356 1559 c 0,15,16
 406 1559 406 1559 439.5 1526.5 c 128,-1,17
 473 1494 473 1494 473 1427 c 0,18,19
 473 1345 473 1345 441 1277.5 c 128,-1,20
 409 1210 409 1210 355.5 1162 c 128,-1,21
 302 1114 302 1114 232.5 1087.5 c 128,-1,22
 163 1061 163 1061 88 1061 c 1,23,-1
 111 1176 l 1,0,1
0 1004 m 1024,24,-1
EndSplineSet
EndChar

StartChar: comma
Encoding: 44 44 345
Width: 1126
GlyphClass: 2
Flags: W
LayerCount: 2
Fore
SplineSet
80 -205 m 1,0,1
 131 -207 131 -207 187 -195 c 128,-1,2
 243 -183 243 -183 289 -157 c 128,-1,3
 335 -131 335 -131 365 -91.5 c 128,-1,4
 395 -52 395 -52 395 2 c 0,5,6
 395 28 395 28 386.5 46.5 c 128,-1,7
 378 65 378 65 368.5 82 c 128,-1,8
 359 99 359 99 350.5 119 c 128,-1,9
 342 139 342 139 342 168 c 0,10,11
 342 205 342 205 355.5 234 c 128,-1,12
 369 263 369 263 390 282.5 c 128,-1,13
 411 302 411 302 437 312 c 128,-1,14
 463 322 463 322 489 322 c 0,15,16
 556 322 556 322 598.5 278 c 128,-1,17
 641 234 641 234 641 147 c 0,18,19
 641 97 641 97 626.5 42 c 128,-1,20
 612 -13 612 -13 582 -67.5 c 128,-1,21
 552 -122 552 -122 506.5 -171.5 c 128,-1,22
 461 -221 461 -221 398.5 -259 c 128,-1,23
 336 -297 336 -297 256.5 -319.5 c 128,-1,24
 177 -342 177 -342 80 -342 c 1,25,-1
 80 -205 l 1,0,1
EndSplineSet
EndChar

StartChar: semicolon
Encoding: 59 59 346
Width: 1126
GlyphClass: 2
Flags: W
LayerCount: 2
Fore
SplineSet
92 -205 m 1,0,1
 143 -207 143 -207 199 -195 c 128,-1,2
 255 -183 255 -183 301.5 -157 c 128,-1,3
 348 -131 348 -131 378 -91.5 c 128,-1,4
 408 -52 408 -52 408 2 c 0,5,6
 408 28 408 28 399.5 46.5 c 128,-1,7
 391 65 391 65 381 82 c 128,-1,8
 371 99 371 99 362.5 119 c 128,-1,9
 354 139 354 139 354 168 c 0,10,11
 354 205 354 205 367.5 234 c 128,-1,12
 381 263 381 263 402 282.5 c 128,-1,13
 423 302 423 302 449.5 312 c 128,-1,14
 476 322 476 322 502 322 c 0,15,16
 568 322 568 322 610.5 278 c 128,-1,17
 653 234 653 234 653 147 c 0,18,19
 653 97 653 97 638.5 42 c 128,-1,20
 624 -13 624 -13 594 -67.5 c 128,-1,21
 564 -122 564 -122 518.5 -171.5 c 128,-1,22
 473 -221 473 -221 410.5 -259 c 128,-1,23
 348 -297 348 -297 268.5 -319.5 c 128,-1,24
 189 -342 189 -342 92 -342 c 1,25,-1
 92 -205 l 1,0,1
639 1022 m 0,26,27
 671 1022 671 1022 698.5 1010 c 128,-1,28
 726 998 726 998 746 977 c 128,-1,29
 766 956 766 956 777 929 c 128,-1,30
 788 902 788 902 788 872 c 256,31,32
 788 842 788 842 775.5 814 c 128,-1,33
 763 786 763 786 741.5 764 c 128,-1,34
 720 742 720 742 691 728.5 c 128,-1,35
 662 715 662 715 629 715 c 256,36,37
 596 715 596 715 568.5 727 c 128,-1,38
 541 739 541 739 521.5 759 c 128,-1,39
 502 779 502 779 491.5 806 c 128,-1,40
 481 833 481 833 481 862 c 0,41,42
 481 896 481 896 494 925 c 128,-1,43
 507 954 507 954 529 975.5 c 128,-1,44
 551 997 551 997 579.5 1009.5 c 128,-1,45
 608 1022 608 1022 639 1022 c 0,26,27
EndSplineSet
EndChar

StartChar: colon
Encoding: 58 58 347
Width: 1126
GlyphClass: 2
Flags: W
LayerCount: 2
Fore
SplineSet
492 289 m 0,0,1
 524 289 524 289 551.5 277 c 128,-1,2
 579 265 579 265 599 244 c 128,-1,3
 619 223 619 223 630 196 c 128,-1,4
 641 169 641 169 641 139 c 256,5,6
 641 109 641 109 628.5 80.5 c 128,-1,7
 616 52 616 52 594 30.5 c 128,-1,8
 572 9 572 9 543 -4.5 c 128,-1,9
 514 -18 514 -18 481 -18 c 256,10,11
 448 -18 448 -18 421 -6 c 128,-1,12
 394 6 394 6 374.5 26 c 128,-1,13
 355 46 355 46 344.5 73 c 128,-1,14
 334 100 334 100 334 129 c 0,15,16
 334 163 334 163 347 192 c 128,-1,17
 360 221 360 221 382 242.5 c 128,-1,18
 404 264 404 264 432.5 276.5 c 128,-1,19
 461 289 461 289 492 289 c 0,0,1
639 1022 m 0,20,21
 671 1022 671 1022 698.5 1010 c 128,-1,22
 726 998 726 998 746 977 c 128,-1,23
 766 956 766 956 777 929 c 128,-1,24
 788 902 788 902 788 872 c 256,25,26
 788 842 788 842 775.5 814 c 128,-1,27
 763 786 763 786 741.5 764 c 128,-1,28
 720 742 720 742 691 728.5 c 128,-1,29
 662 715 662 715 629 715 c 256,30,31
 596 715 596 715 568.5 727 c 128,-1,32
 541 739 541 739 521.5 759 c 128,-1,33
 502 779 502 779 491.5 806 c 128,-1,34
 481 833 481 833 481 862 c 0,35,36
 481 896 481 896 494 925 c 128,-1,37
 507 954 507 954 529 975.5 c 128,-1,38
 551 997 551 997 579.5 1009.5 c 128,-1,39
 608 1022 608 1022 639 1022 c 0,20,21
EndSplineSet
EndChar

StartChar: period
Encoding: 46 46 348
Width: 1126
GlyphClass: 2
Flags: W
LayerCount: 2
Fore
SplineSet
487 315 m 0,0,1
 523 315 523 315 552.5 302 c 128,-1,2
 582 289 582 289 603 267 c 128,-1,3
 624 245 624 245 635.5 215.5 c 128,-1,4
 647 186 647 186 647 154 c 0,5,6
 647 118 647 118 633 86.5 c 128,-1,7
 619 55 619 55 595.5 31.5 c 128,-1,8
 572 8 572 8 540.5 -5 c 128,-1,9
 509 -18 509 -18 475 -18 c 0,10,11
 440 -18 440 -18 411 -5 c 128,-1,12
 382 8 382 8 360.5 30 c 128,-1,13
 339 52 339 52 327 80.5 c 128,-1,14
 315 109 315 109 315 141 c 0,15,16
 315 178 315 178 329 210 c 128,-1,17
 343 242 343 242 367 265 c 128,-1,18
 391 288 391 288 422 301.5 c 128,-1,19
 453 315 453 315 487 315 c 0,0,1
EndSplineSet
EndChar

StartChar: ellipsis
Encoding: 8230 8230 349
Width: 1126
GlyphClass: 2
Flags: W
LayerCount: 2
Fore
SplineSet
213 109 m 0,0,1
 213 82 213 82 203.5 59 c 128,-1,2
 194 36 194 36 177.5 18.5 c 128,-1,3
 161 1 161 1 138.5 -8.5 c 128,-1,4
 116 -18 116 -18 90 -18 c 256,5,6
 64 -18 64 -18 43 -9 c 128,-1,7
 22 0 22 0 7.5 16 c 128,-1,8
 -7 32 -7 32 -15 52.5 c 128,-1,9
 -23 73 -23 73 -23 96 c 0,10,11
 -23 123 -23 123 -14 146 c 128,-1,12
 -5 169 -5 169 11.5 186.5 c 128,-1,13
 28 204 28 204 50 213.5 c 128,-1,14
 72 223 72 223 98 223 c 256,15,16
 124 223 124 223 145.5 214 c 128,-1,17
 167 205 167 205 182 189 c 128,-1,18
 197 173 197 173 205 152.5 c 128,-1,19
 213 132 213 132 213 109 c 0,0,1
598 109 m 0,20,21
 598 82 598 82 588.5 59 c 128,-1,22
 579 36 579 36 562.5 18.5 c 128,-1,23
 546 1 546 1 523.5 -8.5 c 128,-1,24
 501 -18 501 -18 475 -18 c 256,25,26
 449 -18 449 -18 428 -9 c 128,-1,27
 407 0 407 0 392.5 16 c 128,-1,28
 378 32 378 32 370 52.5 c 128,-1,29
 362 73 362 73 362 96 c 0,30,31
 362 123 362 123 371 146 c 128,-1,32
 380 169 380 169 396.5 186.5 c 128,-1,33
 413 204 413 204 435 213.5 c 128,-1,34
 457 223 457 223 483 223 c 256,35,36
 509 223 509 223 530.5 214 c 128,-1,37
 552 205 552 205 567 189 c 128,-1,38
 582 173 582 173 590 152.5 c 128,-1,39
 598 132 598 132 598 109 c 0,20,21
984 109 m 0,40,41
 984 82 984 82 974.5 59 c 128,-1,42
 965 36 965 36 948 18.5 c 128,-1,43
 931 1 931 1 908.5 -8.5 c 128,-1,44
 886 -18 886 -18 860 -18 c 256,45,46
 834 -18 834 -18 813.5 -9 c 128,-1,47
 793 0 793 0 778.5 16 c 128,-1,48
 764 32 764 32 756 52.5 c 128,-1,49
 748 73 748 73 748 96 c 0,50,51
 748 123 748 123 757 146 c 128,-1,52
 766 169 766 169 782 186.5 c 128,-1,53
 798 204 798 204 820 213.5 c 128,-1,54
 842 223 842 223 868 223 c 256,55,56
 894 223 894 223 915.5 214 c 128,-1,57
 937 205 937 205 952.5 189 c 128,-1,58
 968 173 968 173 976 152.5 c 128,-1,59
 984 132 984 132 984 109 c 0,40,41
EndSplineSet
EndChar

